<?xml version="1.0" encoding="utf-8"?>
<!-- Generator: Adobe Illustrator 16.0.3, SVG Export Plug-In . SVG Version: 6.00 Build 0)  -->
<!DOCTYPE svg PUBLIC "-//W3C//DTD SVG 1.1//EN" "http://www.w3.org/Graphics/SVG/1.1/DTD/svg11.dtd">
<svg version="1.1" id="Capa_1" xmlns="http://www.w3.org/2000/svg" xmlns:xlink="http://www.w3.org/1999/xlink" x="0px" y="0px"
	 width="85.515px" height="90.563px" viewBox="0 0 85.515 90.563" enable-background="new 0 0 85.515 90.563" xml:space="preserve">
<g>
	<circle fill="#245789" cx="42.758" cy="44.956" r="10.089"/>
	<g>
		<g>
			<path fill="#245789" d="M42.757,56.876c-6.572,0-11.918-5.348-11.918-11.92s5.346-11.92,11.918-11.92
				c6.573,0,11.921,5.348,11.921,11.92S49.33,56.876,42.757,56.876z M42.757,33.896c-6.098,0-11.059,4.961-11.059,11.06
				s4.961,11.061,11.059,11.061c6.1,0,11.061-4.962,11.061-11.061S48.856,33.896,42.757,33.896z"/>
		</g>
	</g>
	<g>
		<g>
			<path fill="#245789" d="M42.757,89.913l-26.425-8.587L0,58.848V31.065L16.332,8.588L42.757,0l26.426,8.588l16.332,22.478v27.782
				L69.183,81.326L42.757,89.913z M18.778,77.958l23.979,7.793l23.979-7.793l14.82-20.396v-25.21l-14.82-20.396L42.757,4.162
				l-23.979,7.793L3.959,32.352v25.21L18.778,77.958z"/>
		</g>
	</g>
	<rect x="40.318" y="14.781" fill="#245789" width="4.878" height="4.878"/>
	<rect x="68.054" y="42.518" fill="#245789" width="4.879" height="4.878"/>
	<rect x="40.317" y="70.253" fill="#245789" width="4.879" height="4.878"/>
	<rect x="12.582" y="42.518" fill="#245789" width="4.878" height="4.878"/>
	
		<rect x="20.706" y="22.904" transform="matrix(0.707 -0.7072 0.7072 0.707 -11.1418 23.7942)" fill="#245789" width="4.879" height="4.879"/>
	
		<rect x="59.931" y="22.905" transform="matrix(0.707 0.7072 -0.7072 0.707 36.1976 -36.6829)" fill="#245789" width="4.879" height="4.878"/>
	
		<rect x="59.93" y="62.129" transform="matrix(-0.7072 0.707 -0.707 -0.7072 152.1273 66.1362)" fill="#245789" width="4.879" height="4.879"/>
	
		<rect x="20.707" y="62.129" transform="matrix(-0.7071 -0.7071 0.7071 -0.7071 -6.1449 126.5914)" fill="#245789" width="4.878" height="4.878"/>
	
		<rect x="14.704" y="31.878" transform="matrix(0.3835 -0.9235 0.9235 0.3835 -21.1244 36.9884)" fill="#245789" width="4.879" height="4.878"/>
	
		<rect x="50.957" y="16.903" transform="matrix(0.9235 0.3835 -0.3835 0.9235 11.5007 -18.999)" fill="#245789" width="4.879" height="4.878"/>
	
		<rect x="65.932" y="53.157" transform="matrix(-0.3835 0.9235 -0.9235 -0.3835 145.9371 13.7744)" fill="#245789" width="4.879" height="4.879"/>
	
		<rect x="29.679" y="68.131" transform="matrix(-0.9234 -0.3838 0.3838 -0.9234 34.6901 148.0631)" fill="#245789" width="4.877" height="4.878"/>
	
		<rect x="14.567" y="52.822" transform="matrix(-0.3717 -0.9284 0.9284 -0.3717 -27.9743 91.5898)" fill="#245789" width="4.879" height="4.878"/>
	
		<rect x="30.013" y="16.767" transform="matrix(0.9284 -0.3715 0.3715 0.9284 -4.8127 13.4316)" fill="#245789" width="4.878" height="4.878"/>
	
		<rect x="66.069" y="32.212" transform="matrix(0.3715 0.9284 -0.9284 0.3715 75.2263 -41.8267)" fill="#245789" width="4.878" height="4.878"/>
	
		<rect x="50.623" y="68.268" transform="matrix(-0.9284 0.3715 -0.3715 -0.9284 128.5966 116.6387)" fill="#245789" width="4.878" height="4.878"/>
</g>
</svg>
