<?xml version="1.0" encoding="utf-8"?>
<!-- Generator: Adobe Illustrator 16.0.3, SVG Export Plug-In . SVG Version: 6.00 Build 0)  -->
<!DOCTYPE svg PUBLIC "-//W3C//DTD SVG 1.1//EN" "http://www.w3.org/Graphics/SVG/1.1/DTD/svg11.dtd">
<svg version="1.1" id="Capa_1" xmlns="http://www.w3.org/2000/svg" xmlns:xlink="http://www.w3.org/1999/xlink" x="0px" y="0px"
	 width="1280px" height="720px" viewBox="0 0 1280 720" enable-background="new 0 0 1280 720" xml:space="preserve">
<rect fill="#040404" width="1280" height="720"/>
<g opacity="0.04">
	<g>
		<g>
			<g>
				<g>
					<g>
						<g>
							<g>
								<path fill="#F0D40F" d="M46.908,548.655"/>
							</g>
						</g>
					</g>
				</g>
			</g>
		</g>
		<g>
			<g>
				<g>
					<g>
						<g>
							<polygon fill="#F0D40F" points="745.541,294.217 776.883,323 776.939,323.568 790.764,460.555 934.002,589.91 
								937.154,619.556 1007.596,681.269 1102.244,681.269 1145.578,718.929 1143.609,721.193 1101.123,684.269 1006.467,684.269 
								934.295,621.039 931.141,591.368 787.895,462.006 787.836,461.431 774.012,324.438 743.512,296.426 							"/>
						</g>
					</g>
				</g>
			</g>
		</g>
		<g>
			<g>
				<g>
					<g>
						<g>
							<polygon fill="#F0D40F" points="1064.229,614.161 1077,626.324 1129.361,622.538 1197.99,686.083 1195.951,688.284 
								1128.279,625.624 1075.893,629.412 1062.158,616.334 							"/>
						</g>
					</g>
				</g>
			</g>
		</g>
		<g>
			<g>
				<g>
					<g>
						<g>
							<polygon fill="#F0D40F" points="244.797,19.328 407.514,19.328 444.113,52.771 769.098,52.139 769.531,52.543 
								938.844,210.525 1018.34,210.525 1059.584,247.904 1072.834,386.723 1216.043,514.79 1220.459,544.44 1280.26,597.084 
								1278.277,599.336 1217.652,545.968 1213.234,516.304 1069.959,388.177 1056.709,249.348 1017.184,213.525 937.662,213.525 
								767.918,55.141 442.951,55.773 406.35,22.328 245.984,22.328 132.402,128.969 -0.988,128.969 -0.988,125.969 
								131.215,125.969 							"/>
						</g>
					</g>
				</g>
			</g>
		</g>
		<g>
			<g>
				<g>
					<g>
						<g>
							<polygon fill="#F0D40F" points="224.82,-1.193 226.84,1.025 143.115,77.227 -0.988,77.227 -0.988,74.227 141.955,74.227 
															"/>
						</g>
					</g>
				</g>
			</g>
		</g>
		<g>
			<g>
				<g>
					<g>
						<g>
							<polygon fill="#F0D40F" points="189.457,-1.17 191.527,1.002 139.35,50.723 -0.988,50.723 -0.988,47.723 138.148,47.723 
															"/>
						</g>
					</g>
				</g>
			</g>
		</g>
		<g>
			<g>
				<g>
					<g>
						<g>
							<polygon fill="#F0D40F" points="172.82,98.836 260.527,98.836 280.09,118.396 453.629,118.396 454.07,118.848 
								544.496,211.156 582.357,211.156 582.357,214.156 543.234,214.156 542.795,213.707 452.367,121.396 278.848,121.396 
								259.285,101.836 174.092,101.836 113.057,164.938 -0.988,164.938 -0.988,161.938 111.785,161.938 							"/>
						</g>
					</g>
				</g>
			</g>
		</g>
		<g>
			<g>
				<g>
					<g>
						<g>
							<g>
								<polygon fill="#F0D40F" points="395.391,149.447 522.619,149.447 590.727,218.828 587.871,221.631 520.941,153.447 
									397.021,153.447 310.572,238.006 -0.988,238.006 -0.988,234.006 308.941,234.006 								"/>
							</g>
						</g>
					</g>
				</g>
			</g>
		</g>
		<g>
			<g>
				<g>
					<g>
						<g>
							<polygon fill="#F0D40F" points="183.146,166.855 211.73,166.855 238.58,193.703 228.453,204.508 226.994,203.141 
								235.797,193.748 210.902,168.855 183.957,168.855 141.047,210.502 -0.988,210.502 -0.988,208.502 140.236,208.502 							"/>
						</g>
					</g>
				</g>
			</g>
		</g>
		<g>
			<g>
				<g>
					<g>
						<g>
							<polygon fill="#F0D40F" points="208.381,129.625 240.344,129.625 240.344,131.625 209.203,131.625 150.518,189.678 
								-0.988,189.678 -0.988,187.678 149.695,187.678 							"/>
						</g>
					</g>
				</g>
			</g>
		</g>
		<g>
			<g>
				<g>
					<g>
						<g>
							<polygon fill="#F0D40F" points="208.375,108.17 251.506,108.17 251.803,108.486 288.443,147.701 271.957,163.529 
								270.572,162.086 285.635,147.625 250.637,110.17 209.209,110.17 151.156,168.855 -0.988,168.855 -0.988,166.855 
								150.322,166.855 							"/>
						</g>
					</g>
				</g>
			</g>
		</g>
		<g>
			<g>
				<g>
					<g>
						<g>
							<polygon fill="#F0D40F" points="270.854,258.984 299.436,258.984 326.934,285.828 315.531,297.9 314.078,296.527 
								324.129,285.885 298.621,260.984 271.674,260.984 230.027,302 81.957,302 81.957,300 229.207,300 							"/>
						</g>
					</g>
				</g>
			</g>
		</g>
		<g>
			<g>
				<g>
					<g>
						<g>
							<polygon fill="#F0D40F" points="411.564,271.604 520.314,271.604 520.609,271.914 547.742,300.311 546.297,301.691 
								519.459,273.604 412.398,273.604 325.949,360.989 237.189,360.989 237.189,358.988 325.115,358.988 							"/>
						</g>
					</g>
				</g>
			</g>
		</g>
		<g>
			<g>
				<g>
					<g>
						<g>
							<polygon fill="#F0D40F" points="391.688,318.299 530.398,318.299 595.686,383.587 594.271,385.001 529.57,320.299 
								392.521,320.299 301.971,411.798 -0.988,411.798 -0.988,409.798 301.137,409.798 							"/>
						</g>
					</g>
				</g>
			</g>
		</g>
		<g>
			<g>
				<g>
					<g>
						<g>
							<polygon fill="#F0D40F" points="407.15,371.936 501.371,371.936 501.666,372.23 847.465,719.355 846.047,720.767 
								500.541,373.936 407.979,373.936 322.16,459.755 -0.988,459.755 -0.988,457.755 321.332,457.755 							"/>
						</g>
					</g>
				</g>
			</g>
		</g>
		<g>
			<g>
				<g>
					<g>
						<g>
							<polygon fill="#F0D40F" points="999.441,294.531 1013.689,305.537 1017.477,380.67 1097.008,451.363 1097.008,468.395 
								1130.455,497.509 1186,497.509 1235.506,542.572 1234.158,544.051 1185.225,499.509 1129.707,499.509 1095.008,469.306 
								1095.008,452.262 1015.521,381.607 1011.738,306.557 998.219,296.113 							"/>
						</g>
					</g>
				</g>
			</g>
		</g>
		<g>
			<g>
				<g>
					<g>
						<g>
							<polygon fill="#F0D40F" points="451.068,-0.887 457.744,4.051 780.258,4.051 780.545,4.316 949.371,160.545 
								1018.393,160.545 1018.393,162.545 948.588,162.545 948.301,162.279 779.475,6.051 457.084,6.051 449.879,0.721 							"/>
						</g>
					</g>
				</g>
			</g>
		</g>
		<g>
			<g>
				<g>
					<g>
						<g>
							<polygon fill="#F0D40F" points="834.188,-0.813 982.189,137.826 1013.346,137.826 1013.346,139.826 981.398,139.826 
								981.111,139.557 832.82,0.646 							"/>
						</g>
					</g>
				</g>
			</g>
		</g>
		<g>
			<g>
				<g>
					<g>
						<g>
							<polygon fill="#F0D40F" points="956.633,-0.785 1003.666,46.959 1279.268,46.959 1279.268,48.959 1002.828,48.959 
								1002.535,48.66 955.209,0.619 							"/>
						</g>
					</g>
				</g>
			</g>
		</g>
		<g>
			<g>
				<g>
					<g>
						<g>
							<circle fill="#F0D40F" cx="611.424" cy="402.008" r="26.947"/>
						</g>
					</g>
				</g>
			</g>
		</g>
		<g>
			<g>
				<g>
					<g>
						<g>
							<circle fill="#F0D40F" cx="550.274" cy="304.93" r="5.915"/>
						</g>
					</g>
				</g>
			</g>
		</g>
		<g>
			<g>
				<g>
					<g>
						<g>
							<circle fill="#F0D40F" cx="311.551" cy="301" r="5.182"/>
						</g>
					</g>
				</g>
			</g>
		</g>
		<g>
			<g>
				<g>
					<g>
						<g>
							<circle fill="#F0D40F" cx="208.944" cy="359.988" r="27.423"/>
						</g>
					</g>
				</g>
			</g>
		</g>
		<g>
			<g>
				<g>
					<g>
						<g>
							<circle fill="#F0D40F" cx="60.736" cy="301" r="22.672"/>
						</g>
					</g>
				</g>
			</g>
		</g>
		<g>
			<g>
				<g>
					<g>
						<g>
							<circle fill="#F0D40F" cx="222.074" cy="209.502" r="9.6"/>
						</g>
					</g>
				</g>
			</g>
		</g>
		<g>
			<g>
				<g>
					<g>
						<g>
							<circle fill="#F0D40F" cx="211.02" cy="183.32" r="7.275"/>
						</g>
					</g>
				</g>
			</g>
		</g>
		<g>
			<g>
				<g>
					<g>
						<g>
							<circle fill="#F0D40F" cx="265.95" cy="167.855" r="8.204"/>
						</g>
					</g>
				</g>
			</g>
		</g>
		<g>
			<g>
				<g>
					<g>
						<g>
							<circle fill="#F0D40F" cx="250.059" cy="130.625" r="10.18"/>
						</g>
					</g>
				</g>
			</g>
		</g>
		<g>
			<g>
				<g>
					<g>
						<g>
							<circle fill="#F0D40F" cx="409.669" cy="215.797" r="10.019"/>
						</g>
					</g>
				</g>
			</g>
		</g>
		<g>
			<g>
				<g>
					<g>
						<g>
							<circle fill="#F0D40F" cx="536.459" cy="177.449" r="3.455"/>
						</g>
					</g>
				</g>
			</g>
		</g>
		<g>
			<g>
				<g>
					<g>
						<g>
							<circle fill="#F0D40F" cx="598.99" cy="225.814" r="13.158"/>
						</g>
					</g>
				</g>
			</g>
		</g>
		<g>
			<g>
				<g>
					<g>
						<g>
							<circle fill="#F0D40F" cx="731.308" cy="295.322" r="14.231"/>
						</g>
					</g>
				</g>
			</g>
		</g>
		<g>
			<g>
				<g>
					<g>
						<g>
							<circle fill="#F0D40F" cx="1063.194" cy="140.803" r="53.179"/>
						</g>
					</g>
				</g>
			</g>
		</g>
		<g>
			<g>
				<g>
					<g>
						<g>
							<circle fill="#F0D40F" cx="1239.653" cy="546.498" r="5.278"/>
						</g>
					</g>
				</g>
			</g>
		</g>
		<g>
			<g>
				<g>
					<g>
						<g>
							<circle fill="#F0D40F" cx="1059.448" cy="611.004" r="4.858"/>
						</g>
					</g>
				</g>
			</g>
		</g>
		<g>
			<g>
				<g>
					<g>
						<g>
							<circle fill="#F0D40F" cx="1196.97" cy="687.184" r="6.093"/>
						</g>
					</g>
				</g>
			</g>
		</g>
		<g>
			<g>
				<g>
					<g>
						<g>
							<polygon fill="#F0D40F" points="299.846,160.545 437.48,160.545 566.576,294.322 731.678,294.322 731.959,294.564 
								843.096,390.136 847.744,546.049 935.441,627.042 1019.52,620.529 1130.746,719.313 1129.418,720.809 1018.826,622.589 
								934.725,629.104 845.77,546.947 845.756,546.527 841.123,391.077 730.936,296.322 565.727,296.322 436.631,162.545 
								300.674,162.545 232.088,231.125 -0.984,231.719 -0.99,229.719 231.258,229.127 							"/>
						</g>
					</g>
				</g>
			</g>
		</g>
		<g>
			<g>
				<g>
					<g>
						<g>
							<polygon fill="#F0D40F" points="376.814,99.336 572.492,99.336 758.438,287.756 988.971,287.756 988.971,289.756 
								757.602,289.756 571.656,101.336 377.672,101.336 282.924,200.902 -0.988,200.902 -0.988,198.902 282.066,198.902 							"/>
						</g>
					</g>
				</g>
			</g>
		</g>
		<g>
			<g>
				<g>
					<g>
						<g>
							<circle fill="#F0D40F" cx="995.483" cy="288.756" r="7.665"/>
						</g>
					</g>
				</g>
			</g>
		</g>
		<g>
			<g>
				<g>
					<g>
						<g>
							<polygon fill="#F0D40F" points="388.084,146.223 506.754,146.223 507.049,146.518 533.713,173.289 532.295,174.701 
								505.924,148.223 388.902,148.223 319.217,216.797 -0.988,216.797 -0.988,214.797 318.398,214.797 							"/>
						</g>
					</g>
				</g>
			</g>
		</g>
		<g>
			<g>
				<g>
					<g>
						<g>
							<polygon fill="#F0D40F" points="305.943,192.727 392.572,192.727 404.539,207.059 403.004,208.34 391.637,194.727 
								306.795,194.727 258.172,245.342 -0.988,245.342 -0.988,243.342 257.32,243.342 							"/>
						</g>
					</g>
				</g>
			</g>
		</g>
	</g>
</g>
</svg>
