<?xml version="1.0" encoding="utf-8"?>
<!-- Generator: Adobe Illustrator 16.0.3, SVG Export Plug-In . SVG Version: 6.00 Build 0)  -->
<!DOCTYPE svg PUBLIC "-//W3C//DTD SVG 1.1//EN" "http://www.w3.org/Graphics/SVG/1.1/DTD/svg11.dtd">
<svg version="1.1" id="Capa_1" xmlns="http://www.w3.org/2000/svg" xmlns:xlink="http://www.w3.org/1999/xlink" x="0px" y="0px"
	 width="189.39px" height="76.953px" viewBox="0 0 189.39 76.953" enable-background="new 0 0 189.39 76.953" xml:space="preserve">
<g>
	<g>
		<g>
			<circle fill="#FFFFFF" cx="147.703" cy="52.905" r="23.112"/>
			<path fill="#040404" d="M147.704,76.953c-6.424,0-12.464-2.501-17.006-7.043s-7.043-10.581-7.043-17.005
				s2.501-12.463,7.043-17.006c4.542-4.541,10.582-7.043,17.006-7.043c6.423,0,12.463,2.502,17.004,7.043
				c4.543,4.543,7.044,10.582,7.044,17.006s-2.501,12.463-7.044,17.005C160.167,74.452,154.127,76.953,147.704,76.953z
				 M147.704,30.729c-12.229,0-22.177,9.947-22.177,22.176c0,12.228,9.948,22.176,22.177,22.176
				c12.227,0,22.176-9.948,22.176-22.176C169.88,40.677,159.931,30.729,147.704,30.729z"/>
		</g>
		<g>
			<circle fill="#FFFFFF" cx="147.704" cy="52.905" r="16.748"/>
			<path fill="#040404" d="M147.704,70.59c-4.725,0-9.165-1.839-12.506-5.181c-3.34-3.34-5.18-7.78-5.18-12.504
				c0-4.725,1.84-9.164,5.18-12.505c3.341-3.341,7.781-5.181,12.506-5.181c4.723,0,9.164,1.84,12.504,5.181s5.18,7.78,5.18,12.505
				c0,4.724-1.84,9.164-5.18,12.504C156.868,68.751,152.427,70.59,147.704,70.59z M147.704,37.094
				c-8.719,0-15.813,7.093-15.813,15.812s7.094,15.811,15.813,15.811c8.718,0,15.811-7.092,15.811-15.811
				S156.422,37.094,147.704,37.094z"/>
		</g>
		<g>
			<circle fill="#FFFFFF" cx="147.704" cy="52.905" r="10.338"/>
			<path fill="#040404" d="M147.704,64.181c-6.217,0-11.275-5.059-11.275-11.275s5.059-11.275,11.275-11.275
				s11.273,5.059,11.273,11.275S153.921,64.181,147.704,64.181z M147.704,43.503c-5.186,0-9.402,4.218-9.402,9.402
				c0,5.184,4.217,9.402,9.402,9.402c5.184,0,9.401-4.219,9.401-9.402C157.105,47.721,152.888,43.503,147.704,43.503z"/>
		</g>
		<g>
			<circle fill="#FFFFFF" cx="147.704" cy="52.905" r="3.872"/>
			<path fill="#040404" d="M147.704,57.713c-2.651,0-4.809-2.156-4.809-4.808c0-2.65,2.157-4.809,4.809-4.809
				c2.65,0,4.807,2.158,4.807,4.809C152.511,55.557,150.354,57.713,147.704,57.713z M147.704,49.971
				c-1.619,0-2.936,1.315-2.936,2.935c0,1.618,1.316,2.936,2.936,2.936c1.617,0,2.935-1.317,2.935-2.936
				C150.639,51.286,149.321,49.971,147.704,49.971z"/>
		</g>
	</g>
	<g>
		<g>
			<circle fill="#FFFFFF" cx="112.333" cy="52.905" r="23.113"/>
			<path fill="#040404" d="M112.333,76.953c-6.424,0-12.463-2.501-17.005-7.043s-7.044-10.581-7.044-17.005
				s2.502-12.463,7.044-17.006c4.542-4.541,10.581-7.043,17.005-7.043s12.463,2.502,17.006,7.043
				c4.541,4.543,7.043,10.582,7.043,17.006s-2.502,12.463-7.043,17.005C124.796,74.452,118.757,76.953,112.333,76.953z
				 M112.333,30.729c-12.228,0-22.176,9.947-22.176,22.176c0,12.228,9.948,22.176,22.176,22.176
				c12.229,0,22.176-9.948,22.176-22.176C134.509,40.677,124.562,30.729,112.333,30.729z"/>
		</g>
		<g>
			<circle fill="#FFFFFF" cx="112.333" cy="52.905" r="16.748"/>
			<path fill="#040404" d="M112.333,70.59c-4.723,0-9.164-1.839-12.504-5.181c-3.341-3.34-5.181-7.78-5.181-12.504
				c0-4.725,1.84-9.164,5.181-12.505c3.34-3.341,7.781-5.181,12.504-5.181c4.725,0,9.165,1.84,12.505,5.181
				c3.341,3.341,5.181,7.78,5.181,12.505c0,4.724-1.84,9.164-5.181,12.504C121.498,68.751,117.058,70.59,112.333,70.59z
				 M112.333,37.094c-8.719,0-15.811,7.093-15.811,15.812s7.092,15.811,15.811,15.811s15.812-7.092,15.812-15.811
				S121.052,37.094,112.333,37.094z"/>
		</g>
		<g>
			<circle fill="#FFFFFF" cx="112.333" cy="52.905" r="10.338"/>
			<path fill="#040404" d="M112.333,64.181c-6.217,0-11.274-5.059-11.274-11.275s5.058-11.275,11.274-11.275
				s11.275,5.059,11.275,11.275S118.55,64.181,112.333,64.181z M112.333,43.503c-5.184,0-9.402,4.218-9.402,9.402
				c0,5.184,4.219,9.402,9.402,9.402c5.185,0,9.402-4.219,9.402-9.402C121.735,47.721,117.518,43.503,112.333,43.503z"/>
		</g>
		<g>
			<circle fill="#FFFFFF" cx="112.333" cy="52.905" r="3.871"/>
			<path fill="#040404" d="M112.333,57.713c-2.65,0-4.808-2.156-4.808-4.808c0-2.65,2.157-4.809,4.808-4.809
				s4.809,2.158,4.809,4.809C117.142,55.557,114.983,57.713,112.333,57.713z M112.333,49.971c-1.618,0-2.934,1.315-2.934,2.935
				c0,1.618,1.315,2.936,2.934,2.936c1.619,0,2.936-1.317,2.936-2.936C115.269,51.286,113.952,49.971,112.333,49.971z"/>
		</g>
	</g>
	<g>
		<g>
			<circle fill="#FFFFFF" cx="76.963" cy="52.905" r="23.112"/>
			<path fill="#040404" d="M76.964,76.953c-6.424,0-12.464-2.501-17.006-7.043s-7.043-10.581-7.043-17.005
				s2.501-12.463,7.043-17.006c4.542-4.541,10.582-7.043,17.006-7.043c6.423,0,12.463,2.502,17.004,7.043
				c4.543,4.543,7.044,10.582,7.044,17.006s-2.501,12.463-7.044,17.005C89.427,74.452,83.387,76.953,76.964,76.953z M76.964,30.729
				c-12.229,0-22.177,9.947-22.177,22.176c0,12.228,9.948,22.176,22.177,22.176c12.227,0,22.176-9.948,22.176-22.176
				C99.14,40.677,89.19,30.729,76.964,30.729z"/>
		</g>
		<g>
			<circle fill="#FFFFFF" cx="76.964" cy="52.905" r="16.748"/>
			<path fill="#040404" d="M76.964,70.59c-4.725,0-9.165-1.839-12.506-5.181c-3.34-3.34-5.18-7.78-5.18-12.504
				c0-4.725,1.84-9.164,5.18-12.505c3.341-3.341,7.781-5.181,12.506-5.181c4.723,0,9.164,1.84,12.504,5.181s5.18,7.78,5.18,12.505
				c0,4.724-1.84,9.164-5.18,12.504C86.128,68.751,81.687,70.59,76.964,70.59z M76.964,37.094c-8.719,0-15.813,7.093-15.813,15.812
				s7.094,15.811,15.813,15.811c8.718,0,15.811-7.092,15.811-15.811S85.682,37.094,76.964,37.094z"/>
		</g>
		<g>
			<circle fill="#FFFFFF" cx="76.963" cy="52.905" r="10.338"/>
			<path fill="#040404" d="M76.964,64.181c-6.217,0-11.275-5.059-11.275-11.275S70.747,41.63,76.964,41.63
				s11.273,5.059,11.273,11.275S83.181,64.181,76.964,64.181z M76.964,43.503c-5.186,0-9.402,4.218-9.402,9.402
				c0,5.184,4.217,9.402,9.402,9.402c5.184,0,9.401-4.219,9.401-9.402C86.365,47.721,82.147,43.503,76.964,43.503z"/>
		</g>
		<g>
			<circle fill="#FFFFFF" cx="76.963" cy="52.905" r="3.872"/>
			<path fill="#040404" d="M76.964,57.713c-2.651,0-4.809-2.156-4.809-4.808c0-2.65,2.157-4.809,4.809-4.809
				c2.65,0,4.807,2.158,4.807,4.809C81.771,55.557,79.614,57.713,76.964,57.713z M76.964,49.971c-1.619,0-2.936,1.315-2.936,2.935
				c0,1.618,1.316,2.936,2.936,2.936c1.617,0,2.935-1.317,2.935-2.936C79.898,51.286,78.581,49.971,76.964,49.971z"/>
		</g>
	</g>
	<g>
		<g>
			<circle fill="#FFFFFF" cx="41.593" cy="52.905" r="23.113"/>
			<path fill="#040404" d="M41.593,76.953c-6.424,0-12.463-2.501-17.005-7.043s-7.044-10.581-7.044-17.005
				s2.502-12.463,7.044-17.006c4.542-4.541,10.581-7.043,17.005-7.043s12.463,2.502,17.006,7.043
				c4.541,4.543,7.043,10.582,7.043,17.006S63.14,65.368,58.599,69.91C54.056,74.452,48.017,76.953,41.593,76.953z M41.593,30.729
				c-12.228,0-22.176,9.947-22.176,22.176c0,12.228,9.948,22.176,22.176,22.176c12.229,0,22.176-9.948,22.176-22.176
				C63.769,40.677,53.821,30.729,41.593,30.729z"/>
		</g>
		<g>
			<circle fill="#FFFFFF" cx="41.593" cy="52.905" r="16.748"/>
			<path fill="#040404" d="M41.593,70.59c-4.723,0-9.164-1.839-12.504-5.181c-3.341-3.34-5.181-7.78-5.181-12.504
				c0-4.725,1.84-9.164,5.181-12.505c3.34-3.341,7.781-5.181,12.504-5.181c4.725,0,9.165,1.84,12.505,5.181
				c3.341,3.341,5.181,7.78,5.181,12.505c0,4.724-1.84,9.164-5.181,12.504C50.758,68.751,46.317,70.59,41.593,70.59z M41.593,37.094
				c-8.719,0-15.811,7.093-15.811,15.812s7.092,15.811,15.811,15.811s15.812-7.092,15.812-15.811S50.312,37.094,41.593,37.094z"/>
		</g>
		<g>
			<circle fill="#FFFFFF" cx="41.593" cy="52.905" r="10.338"/>
			<path fill="#040404" d="M41.593,64.181c-6.217,0-11.274-5.059-11.274-11.275S35.376,41.63,41.593,41.63
				s11.275,5.059,11.275,11.275S47.81,64.181,41.593,64.181z M41.593,43.503c-5.184,0-9.402,4.218-9.402,9.402
				c0,5.184,4.219,9.402,9.402,9.402c5.185,0,9.402-4.219,9.402-9.402C50.995,47.721,46.777,43.503,41.593,43.503z"/>
		</g>
		<g>
			<circle fill="#FFFFFF" cx="41.593" cy="52.905" r="3.871"/>
			<path fill="#040404" d="M41.593,57.713c-2.65,0-4.808-2.156-4.808-4.808c0-2.65,2.157-4.809,4.808-4.809s4.809,2.158,4.809,4.809
				C46.401,55.557,44.243,57.713,41.593,57.713z M41.593,49.971c-1.618,0-2.934,1.315-2.934,2.935c0,1.618,1.315,2.936,2.934,2.936
				c1.619,0,2.936-1.317,2.936-2.936C44.528,51.286,43.212,49.971,41.593,49.971z"/>
		</g>
	</g>
	<g>
		<g>
			<circle fill="#FFFFFF" cx="24.049" cy="24.049" r="23.112"/>
			<path fill="#040404" d="M24.049,48.097c-6.424,0-12.464-2.501-17.005-7.043C2.501,36.512,0,30.472,0,24.049
				c0-6.424,2.501-12.464,7.044-17.005C11.585,2.501,17.625,0,24.049,0c6.423,0,12.463,2.501,17.005,7.044
				c4.542,4.541,7.043,10.581,7.043,17.005c0,6.423-2.501,12.463-7.043,17.005S30.472,48.097,24.049,48.097z M24.049,1.873
				c-12.228,0-22.177,9.948-22.177,22.176s9.949,22.176,22.177,22.176s22.176-9.948,22.176-22.176S36.276,1.873,24.049,1.873z"/>
		</g>
		<g>
			<circle fill="#FFFFFF" cx="24.049" cy="24.049" r="16.748"/>
			<path fill="#040404" d="M24.049,41.733c-4.724,0-9.165-1.84-12.505-5.18c-3.34-3.341-5.18-7.781-5.18-12.505
				s1.84-9.165,5.18-12.505s7.781-5.18,12.505-5.18s9.165,1.84,12.505,5.18s5.18,7.781,5.18,12.505s-1.84,9.164-5.18,12.505
				C33.214,39.894,28.772,41.733,24.049,41.733z M24.049,8.237c-8.719,0-15.812,7.093-15.812,15.812
				c0,8.718,7.093,15.812,15.812,15.812c8.718,0,15.812-7.094,15.812-15.812C39.86,15.33,32.767,8.237,24.049,8.237z"/>
		</g>
		<g>
			<circle fill="#FFFFFF" cx="24.048" cy="24.049" r="10.338"/>
			<path fill="#040404" d="M24.049,35.323c-6.217,0-11.274-5.058-11.274-11.274c0-6.218,5.058-11.274,11.274-11.274
				s11.274,5.057,11.274,11.274C35.323,30.266,30.266,35.323,24.049,35.323z M24.049,14.646c-5.185,0-9.402,4.218-9.402,9.402
				s4.218,9.401,9.402,9.401s9.401-4.217,9.401-9.401S29.233,14.646,24.049,14.646z"/>
		</g>
		<g>
			<circle fill="#FFFFFF" cx="24.048" cy="24.049" r="3.872"/>
			<path fill="#040404" d="M24.049,28.856c-2.651,0-4.808-2.156-4.808-4.808s2.156-4.808,4.808-4.808
				c2.65,0,4.808,2.156,4.808,4.808S26.699,28.856,24.049,28.856z M24.049,21.114c-1.618,0-2.935,1.316-2.935,2.935
				s1.316,2.935,2.935,2.935s2.935-1.316,2.935-2.935S25.667,21.114,24.049,21.114z"/>
		</g>
	</g>
	<g>
		<g>
			<circle fill="#FFFFFF" cx="59.372" cy="24.049" r="23.113"/>
			<path fill="#040404" d="M59.372,48.097c-6.424,0-12.463-2.501-17.006-7.043c-4.541-4.542-7.043-10.582-7.043-17.005
				c0-6.424,2.502-12.464,7.043-17.005C46.909,2.501,52.948,0,59.372,0s12.463,2.501,17.005,7.044
				c4.542,4.541,7.044,10.581,7.044,17.005c0,6.423-2.502,12.463-7.044,17.005S65.796,48.097,59.372,48.097z M59.372,1.873
				c-12.229,0-22.176,9.948-22.176,22.176s9.947,22.176,22.176,22.176c12.228,0,22.176-9.948,22.176-22.176S71.6,1.873,59.372,1.873
				z"/>
		</g>
		<g>
			<circle fill="#FFFFFF" cx="59.372" cy="24.049" r="16.748"/>
			<path fill="#040404" d="M59.372,41.733c-4.724,0-9.164-1.84-12.505-5.18c-3.341-3.341-5.181-7.781-5.181-12.505
				s1.84-9.165,5.181-12.505s7.781-5.18,12.505-5.18s9.164,1.84,12.504,5.18c3.341,3.34,5.181,7.781,5.181,12.505
				s-1.84,9.164-5.181,12.505C68.536,39.894,64.096,41.733,59.372,41.733z M59.372,8.237c-8.719,0-15.812,7.093-15.812,15.812
				c0,8.718,7.093,15.812,15.812,15.812s15.811-7.094,15.811-15.812C75.183,15.33,68.091,8.237,59.372,8.237z"/>
		</g>
		<g>
			<circle fill="#FFFFFF" cx="59.372" cy="24.049" r="10.338"/>
			<path fill="#040404" d="M59.372,35.323c-6.217,0-11.275-5.058-11.275-11.274c0-6.218,5.059-11.274,11.275-11.274
				s11.274,5.057,11.274,11.274C70.646,30.266,65.589,35.323,59.372,35.323z M59.372,14.646c-5.185,0-9.402,4.218-9.402,9.402
				s4.218,9.401,9.402,9.401c5.184,0,9.402-4.217,9.402-9.401S64.556,14.646,59.372,14.646z"/>
		</g>
		<g>
			<circle fill="#FFFFFF" cx="59.372" cy="24.049" r="3.871"/>
			<path fill="#040404" d="M59.372,28.856c-2.65,0-4.809-2.156-4.809-4.808s2.158-4.808,4.809-4.808s4.808,2.156,4.808,4.808
				S62.022,28.856,59.372,28.856z M59.372,21.114c-1.619,0-2.935,1.316-2.935,2.935s1.315,2.935,2.935,2.935
				c1.618,0,2.936-1.316,2.936-2.935S60.99,21.114,59.372,21.114z"/>
		</g>
	</g>
	<g>
		<g>
			<circle fill="#FFFFFF" cx="94.695" cy="24.049" r="23.112"/>
			<path fill="#040404" d="M94.695,48.097c-6.424,0-12.464-2.501-17.005-7.043c-4.543-4.542-7.044-10.582-7.044-17.005
				c0-6.424,2.501-12.464,7.044-17.005C82.231,2.501,88.271,0,94.695,0c6.423,0,12.463,2.501,17.005,7.044
				c4.542,4.541,7.043,10.581,7.043,17.005c0,6.423-2.501,12.463-7.043,17.005S101.118,48.097,94.695,48.097z M94.695,1.873
				c-12.228,0-22.177,9.948-22.177,22.176s9.949,22.176,22.177,22.176s22.176-9.948,22.176-22.176S106.923,1.873,94.695,1.873z"/>
		</g>
		<g>
			<circle fill="#FFFFFF" cx="94.695" cy="24.049" r="16.748"/>
			<path fill="#040404" d="M94.695,41.733c-4.724,0-9.165-1.84-12.505-5.18c-3.34-3.341-5.18-7.781-5.18-12.505
				s1.84-9.165,5.18-12.505s7.781-5.18,12.505-5.18s9.165,1.84,12.505,5.18s5.18,7.781,5.18,12.505s-1.84,9.164-5.18,12.505
				C103.86,39.894,99.419,41.733,94.695,41.733z M94.695,8.237c-8.719,0-15.812,7.093-15.812,15.812
				c0,8.718,7.093,15.812,15.812,15.812c8.718,0,15.812-7.094,15.812-15.812C110.507,15.33,103.413,8.237,94.695,8.237z"/>
		</g>
		<g>
			<circle fill="#FFFFFF" cx="94.695" cy="24.049" r="10.338"/>
			<path fill="#040404" d="M94.695,35.323c-6.217,0-11.274-5.058-11.274-11.274c0-6.218,5.058-11.274,11.274-11.274
				s11.274,5.057,11.274,11.274C105.97,30.266,100.912,35.323,94.695,35.323z M94.695,14.646c-5.185,0-9.402,4.218-9.402,9.402
				s4.218,9.401,9.402,9.401s9.401-4.217,9.401-9.401S99.88,14.646,94.695,14.646z"/>
		</g>
		<g>
			<circle fill="#FFFFFF" cx="94.695" cy="24.049" r="3.872"/>
			<path fill="#040404" d="M94.695,28.856c-2.651,0-4.808-2.156-4.808-4.808s2.156-4.808,4.808-4.808
				c2.65,0,4.808,2.156,4.808,4.808S97.346,28.856,94.695,28.856z M94.695,21.114c-1.618,0-2.935,1.316-2.935,2.935
				s1.316,2.935,2.935,2.935s2.935-1.316,2.935-2.935S96.313,21.114,94.695,21.114z"/>
		</g>
	</g>
	<g>
		<g>
			<circle fill="#FFFFFF" cx="130.018" cy="24.049" r="23.113"/>
			<path fill="#040404" d="M130.019,48.097c-6.424,0-12.463-2.501-17.006-7.043c-4.541-4.542-7.043-10.582-7.043-17.005
				c0-6.424,2.502-12.464,7.043-17.005C117.556,2.501,123.595,0,130.019,0s12.463,2.501,17.005,7.044
				c4.542,4.541,7.044,10.581,7.044,17.005c0,6.423-2.502,12.463-7.044,17.005S136.442,48.097,130.019,48.097z M130.019,1.873
				c-12.229,0-22.176,9.948-22.176,22.176s9.947,22.176,22.176,22.176c12.228,0,22.176-9.948,22.176-22.176
				S142.246,1.873,130.019,1.873z"/>
		</g>
		<g>
			<circle fill="#FFFFFF" cx="130.019" cy="24.049" r="16.748"/>
			<path fill="#040404" d="M130.019,41.733c-4.724,0-9.164-1.84-12.505-5.18c-3.341-3.341-5.181-7.781-5.181-12.505
				s1.84-9.165,5.181-12.505s7.781-5.18,12.505-5.18s9.164,1.84,12.504,5.18c3.341,3.34,5.181,7.781,5.181,12.505
				s-1.84,9.164-5.181,12.505C139.183,39.894,134.742,41.733,130.019,41.733z M130.019,8.237c-8.719,0-15.812,7.093-15.812,15.812
				c0,8.718,7.093,15.812,15.812,15.812s15.811-7.094,15.811-15.812C145.829,15.33,138.737,8.237,130.019,8.237z"/>
		</g>
		<g>
			<circle fill="#FFFFFF" cx="130.019" cy="24.049" r="10.338"/>
			<path fill="#040404" d="M130.019,35.323c-6.217,0-11.275-5.058-11.275-11.274c0-6.218,5.059-11.274,11.275-11.274
				s11.274,5.057,11.274,11.274C141.293,30.266,136.235,35.323,130.019,35.323z M130.019,14.646c-5.185,0-9.402,4.218-9.402,9.402
				s4.218,9.401,9.402,9.401c5.184,0,9.402-4.217,9.402-9.401S135.202,14.646,130.019,14.646z"/>
		</g>
		<g>
			<circle fill="#FFFFFF" cx="130.019" cy="24.049" r="3.871"/>
			<path fill="#040404" d="M130.019,28.856c-2.65,0-4.809-2.156-4.809-4.808s2.158-4.808,4.809-4.808s4.808,2.156,4.808,4.808
				S132.669,28.856,130.019,28.856z M130.019,21.114c-1.619,0-2.935,1.316-2.935,2.935s1.315,2.935,2.935,2.935
				c1.618,0,2.936-1.316,2.936-2.935S131.637,21.114,130.019,21.114z"/>
		</g>
	</g>
	<g>
		<g>
			<circle fill="#FFFFFF" cx="165.342" cy="24.049" r="23.112"/>
			<path fill="#040404" d="M165.342,48.097c-6.424,0-12.464-2.501-17.005-7.043c-4.543-4.542-7.044-10.582-7.044-17.005
				c0-6.424,2.501-12.464,7.044-17.005C152.878,2.501,158.918,0,165.342,0c6.423,0,12.463,2.501,17.005,7.044
				c4.542,4.541,7.043,10.581,7.043,17.005c0,6.423-2.501,12.463-7.043,17.005S171.765,48.097,165.342,48.097z M165.342,1.873
				c-12.228,0-22.177,9.948-22.177,22.176s9.949,22.176,22.177,22.176s22.176-9.948,22.176-22.176S177.569,1.873,165.342,1.873z"/>
		</g>
		<g>
			<circle fill="#FFFFFF" cx="165.342" cy="24.049" r="16.748"/>
			<path fill="#040404" d="M165.342,41.733c-4.724,0-9.165-1.84-12.505-5.18c-3.34-3.341-5.18-7.781-5.18-12.505
				s1.84-9.165,5.18-12.505s7.781-5.18,12.505-5.18s9.165,1.84,12.505,5.18s5.18,7.781,5.18,12.505s-1.84,9.164-5.18,12.505
				C174.507,39.894,170.065,41.733,165.342,41.733z M165.342,8.237c-8.719,0-15.812,7.093-15.812,15.812
				c0,8.718,7.093,15.812,15.812,15.812c8.718,0,15.812-7.094,15.812-15.812C181.153,15.33,174.06,8.237,165.342,8.237z"/>
		</g>
		<g>
			<circle fill="#FFFFFF" cx="165.341" cy="24.049" r="10.338"/>
			<path fill="#040404" d="M165.342,35.323c-6.217,0-11.274-5.058-11.274-11.274c0-6.218,5.058-11.274,11.274-11.274
				s11.274,5.057,11.274,11.274C176.616,30.266,171.559,35.323,165.342,35.323z M165.342,14.646c-5.185,0-9.402,4.218-9.402,9.402
				s4.218,9.401,9.402,9.401s9.401-4.217,9.401-9.401S170.526,14.646,165.342,14.646z"/>
		</g>
		<g>
			<circle fill="#FFFFFF" cx="165.341" cy="24.049" r="3.872"/>
			<path fill="#040404" d="M165.342,28.856c-2.651,0-4.808-2.156-4.808-4.808s2.156-4.808,4.808-4.808
				c2.65,0,4.808,2.156,4.808,4.808S167.992,28.856,165.342,28.856z M165.342,21.114c-1.618,0-2.935,1.316-2.935,2.935
				s1.316,2.935,2.935,2.935s2.935-1.316,2.935-2.935S166.96,21.114,165.342,21.114z"/>
		</g>
	</g>
</g>
</svg>
