<?xml version="1.0" encoding="utf-8"?>
<!-- Generator: Adobe Illustrator 16.0.3, SVG Export Plug-In . SVG Version: 6.00 Build 0)  -->
<!DOCTYPE svg PUBLIC "-//W3C//DTD SVG 1.1//EN" "http://www.w3.org/Graphics/SVG/1.1/DTD/svg11.dtd">
<svg version="1.1" id="Capa_1" xmlns="http://www.w3.org/2000/svg" xmlns:xlink="http://www.w3.org/1999/xlink" x="0px" y="0px"
	 width="1280px" height="720px" viewBox="0 0 1280 720" enable-background="new 0 0 1280 720" xml:space="preserve">
<rect fill="#040404" width="1280" height="720"/>
<g opacity="0.04">
	<g>
		<g>
			<g>
				<g>
					<g>
						<g>
							<g>
								<path fill="#F0D40F" d="M46.908,171.345"/>
							</g>
						</g>
					</g>
				</g>
			</g>
		</g>
		<g>
			<g>
				<g>
					<g>
						<g>
							<polygon fill="#F0D40F" points="745.541,425.783 776.882,397 776.939,396.432 790.764,259.445 934.002,130.09 
								937.154,100.444 1007.596,38.731 1102.244,38.731 1145.578,1.071 1143.609,-1.193 1101.123,35.731 1006.467,35.731 
								934.295,98.961 931.14,128.632 787.895,257.994 787.836,258.569 774.012,395.563 743.512,423.574 							"/>
						</g>
					</g>
				</g>
			</g>
		</g>
		<g>
			<g>
				<g>
					<g>
						<g>
							<polygon fill="#F0D40F" points="1064.229,105.839 1076.999,93.676 1129.361,97.462 1197.989,33.917 1195.951,31.716 
								1128.278,94.376 1075.892,90.588 1062.158,103.666 							"/>
						</g>
					</g>
				</g>
			</g>
		</g>
		<g>
			<g>
				<g>
					<g>
						<g>
							<polygon fill="#F0D40F" points="244.797,700.672 407.514,700.672 444.112,667.229 769.098,667.861 769.531,667.457 
								938.844,509.475 1018.34,509.475 1059.584,472.096 1072.834,333.277 1216.042,205.21 1220.458,175.56 1280.259,122.916 
								1278.276,120.664 1217.652,174.032 1213.234,203.696 1069.959,331.823 1056.709,470.652 1017.183,506.475 937.661,506.475 
								767.918,664.859 442.95,664.227 406.35,697.672 245.984,697.672 132.401,591.031 -0.988,591.031 -0.988,594.031 
								131.214,594.031 							"/>
						</g>
					</g>
				</g>
			</g>
		</g>
		<g>
			<g>
				<g>
					<g>
						<g>
							<polygon fill="#F0D40F" points="224.819,721.193 226.839,718.975 143.115,642.773 -0.988,642.773 -0.988,645.773 
								141.955,645.773 							"/>
						</g>
					</g>
				</g>
			</g>
		</g>
		<g>
			<g>
				<g>
					<g>
						<g>
							<polygon fill="#F0D40F" points="189.457,721.17 191.527,718.998 139.35,669.277 -0.988,669.277 -0.988,672.277 
								138.148,672.277 							"/>
						</g>
					</g>
				</g>
			</g>
		</g>
		<g>
			<g>
				<g>
					<g>
						<g>
							<polygon fill="#F0D40F" points="172.819,621.164 260.526,621.164 280.089,601.604 453.628,601.604 454.069,601.152 
								544.496,508.844 582.357,508.844 582.357,505.844 543.234,505.844 542.794,506.293 452.367,598.604 278.847,598.604 
								259.284,618.164 174.091,618.164 113.056,555.063 -0.988,555.063 -0.988,558.063 111.784,558.063 							"/>
						</g>
					</g>
				</g>
			</g>
		</g>
		<g>
			<g>
				<g>
					<g>
						<g>
							<g>
								<polygon fill="#F0D40F" points="395.391,570.553 522.618,570.553 590.726,501.172 587.87,498.369 520.94,566.553 
									397.021,566.553 310.571,481.994 -0.988,481.994 -0.988,485.994 308.94,485.994 								"/>
							</g>
						</g>
					</g>
				</g>
			</g>
		</g>
		<g>
			<g>
				<g>
					<g>
						<g>
							<polygon fill="#F0D40F" points="183.146,553.145 211.729,553.145 238.58,526.297 228.452,515.492 226.993,516.859 
								235.797,526.252 210.901,551.145 183.956,551.145 141.047,509.498 -0.988,509.498 -0.988,511.498 140.236,511.498 							"/>
						</g>
					</g>
				</g>
			</g>
		</g>
		<g>
			<g>
				<g>
					<g>
						<g>
							<polygon fill="#F0D40F" points="208.381,590.375 240.344,590.375 240.344,588.375 209.203,588.375 150.518,530.322 
								-0.988,530.322 -0.988,532.322 149.695,532.322 							"/>
						</g>
					</g>
				</g>
			</g>
		</g>
		<g>
			<g>
				<g>
					<g>
						<g>
							<polygon fill="#F0D40F" points="208.375,611.83 251.506,611.83 251.802,611.514 288.443,572.299 271.956,556.471 
								270.571,557.914 285.635,572.375 250.637,609.83 209.209,609.83 151.155,551.145 -0.988,551.145 -0.988,553.145 
								150.321,553.145 							"/>
						</g>
					</g>
				</g>
			</g>
		</g>
		<g>
			<g>
				<g>
					<g>
						<g>
							<polygon fill="#F0D40F" points="270.854,461.016 299.436,461.016 326.934,434.172 315.53,422.1 314.077,423.473 
								324.129,434.115 298.621,459.016 271.674,459.016 230.026,418 81.956,418 81.956,420 229.206,420 							"/>
						</g>
					</g>
				</g>
			</g>
		</g>
		<g>
			<g>
				<g>
					<g>
						<g>
							<polygon fill="#F0D40F" points="411.563,448.396 520.313,448.396 520.608,448.086 547.742,419.689 546.297,418.309 
								519.458,446.396 412.397,446.396 325.948,359.011 237.188,359.011 237.188,361.012 325.114,361.012 							"/>
						</g>
					</g>
				</g>
			</g>
		</g>
		<g>
			<g>
				<g>
					<g>
						<g>
							<polygon fill="#F0D40F" points="391.688,401.701 530.397,401.701 595.686,336.413 594.271,334.999 529.569,399.701 
								392.521,399.701 301.971,308.202 -0.988,308.202 -0.988,310.202 301.137,310.202 							"/>
						</g>
					</g>
				</g>
			</g>
		</g>
		<g>
			<g>
				<g>
					<g>
						<g>
							<polygon fill="#F0D40F" points="407.15,348.064 501.371,348.064 501.665,347.77 847.465,0.645 846.047,-0.767 
								500.541,346.064 407.979,346.064 322.159,260.245 -0.988,260.245 -0.988,262.245 321.331,262.245 							"/>
						</g>
					</g>
				</g>
			</g>
		</g>
		<g>
			<g>
				<g>
					<g>
						<g>
							<polygon fill="#F0D40F" points="999.441,425.469 1013.688,414.463 1017.477,339.33 1097.008,268.637 1097.008,251.605 
								1130.455,222.491 1186,222.491 1235.506,177.428 1234.158,175.949 1185.225,220.491 1129.707,220.491 1095.008,250.694 
								1095.008,267.738 1015.521,338.393 1011.737,413.443 998.219,423.887 							"/>
						</g>
					</g>
				</g>
			</g>
		</g>
		<g>
			<g>
				<g>
					<g>
						<g>
							<polygon fill="#F0D40F" points="451.067,720.887 457.744,715.949 780.258,715.949 780.545,715.684 949.371,559.455 
								1018.392,559.455 1018.392,557.455 948.588,557.455 948.3,557.721 779.475,713.949 457.084,713.949 449.878,719.279 							
								"/>
						</g>
					</g>
				</g>
			</g>
		</g>
		<g>
			<g>
				<g>
					<g>
						<g>
							<polygon fill="#F0D40F" points="834.188,720.813 982.188,582.174 1013.345,582.174 1013.345,580.174 981.398,580.174 
								981.11,580.443 832.82,719.354 							"/>
						</g>
					</g>
				</g>
			</g>
		</g>
		<g>
			<g>
				<g>
					<g>
						<g>
							<polygon fill="#F0D40F" points="956.633,720.785 1003.665,673.041 1279.268,673.041 1279.268,671.041 1002.828,671.041 
								1002.534,671.34 955.208,719.381 							"/>
						</g>
					</g>
				</g>
			</g>
		</g>
		<g>
			<g>
				<g>
					<g>
						<g>
							<circle fill="#F0D40F" cx="611.423" cy="317.992" r="26.947"/>
						</g>
					</g>
				</g>
			</g>
		</g>
		<g>
			<g>
				<g>
					<g>
						<g>
							<circle fill="#F0D40F" cx="550.274" cy="415.07" r="5.915"/>
						</g>
					</g>
				</g>
			</g>
		</g>
		<g>
			<g>
				<g>
					<g>
						<g>
							<circle fill="#F0D40F" cx="311.55" cy="419" r="5.182"/>
						</g>
					</g>
				</g>
			</g>
		</g>
		<g>
			<g>
				<g>
					<g>
						<g>
							<circle fill="#F0D40F" cx="208.944" cy="360.012" r="27.422"/>
						</g>
					</g>
				</g>
			</g>
		</g>
		<g>
			<g>
				<g>
					<g>
						<g>
							<circle fill="#F0D40F" cx="60.736" cy="419" r="22.672"/>
						</g>
					</g>
				</g>
			</g>
		</g>
		<g>
			<g>
				<g>
					<g>
						<g>
							<circle fill="#F0D40F" cx="222.074" cy="510.498" r="9.599"/>
						</g>
					</g>
				</g>
			</g>
		</g>
		<g>
			<g>
				<g>
					<g>
						<g>
							<circle fill="#F0D40F" cx="211.019" cy="536.68" r="7.275"/>
						</g>
					</g>
				</g>
			</g>
		</g>
		<g>
			<g>
				<g>
					<g>
						<g>
							<circle fill="#F0D40F" cx="265.95" cy="552.145" r="8.204"/>
						</g>
					</g>
				</g>
			</g>
		</g>
		<g>
			<g>
				<g>
					<g>
						<g>
							<circle fill="#F0D40F" cx="250.058" cy="589.375" r="10.179"/>
						</g>
					</g>
				</g>
			</g>
		</g>
		<g>
			<g>
				<g>
					<g>
						<g>
							<circle fill="#F0D40F" cx="409.668" cy="504.203" r="10.018"/>
						</g>
					</g>
				</g>
			</g>
		</g>
		<g>
			<g>
				<g>
					<g>
						<g>
							<circle fill="#F0D40F" cx="536.458" cy="542.551" r="3.455"/>
						</g>
					</g>
				</g>
			</g>
		</g>
		<g>
			<g>
				<g>
					<g>
						<g>
							<circle fill="#F0D40F" cx="598.99" cy="494.186" r="13.158"/>
						</g>
					</g>
				</g>
			</g>
		</g>
		<g>
			<g>
				<g>
					<g>
						<g>
							<circle fill="#F0D40F" cx="731.307" cy="424.678" r="14.231"/>
						</g>
					</g>
				</g>
			</g>
		</g>
		<g>
			<g>
				<g>
					<g>
						<g>
							<circle fill="#F0D40F" cx="1063.193" cy="579.197" r="53.179"/>
						</g>
					</g>
				</g>
			</g>
		</g>
		<g>
			<g>
				<g>
					<g>
						<g>
							<circle fill="#F0D40F" cx="1239.653" cy="173.502" r="5.279"/>
						</g>
					</g>
				</g>
			</g>
		</g>
		<g>
			<g>
				<g>
					<g>
						<g>
							<circle fill="#F0D40F" cx="1059.448" cy="108.996" r="4.858"/>
						</g>
					</g>
				</g>
			</g>
		</g>
		<g>
			<g>
				<g>
					<g>
						<g>
							<circle fill="#F0D40F" cx="1196.97" cy="32.816" r="6.093"/>
						</g>
					</g>
				</g>
			</g>
		</g>
		<g>
			<g>
				<g>
					<g>
						<g>
							<polygon fill="#F0D40F" points="299.846,559.455 437.479,559.455 566.576,425.678 731.677,425.678 731.958,425.436 
								843.096,329.864 847.743,173.951 935.441,92.958 1019.52,99.471 1130.746,0.687 1129.418,-0.809 1018.826,97.411 
								934.725,90.896 845.77,173.053 845.756,173.473 841.123,328.923 730.936,423.678 565.727,423.678 436.63,557.455 
								300.674,557.455 232.088,488.875 -0.985,488.281 -0.991,490.281 231.258,490.873 							"/>
						</g>
					</g>
				</g>
			</g>
		</g>
		<g>
			<g>
				<g>
					<g>
						<g>
							<polygon fill="#F0D40F" points="376.814,620.664 572.491,620.664 758.437,432.244 988.97,432.244 988.97,430.244 
								757.601,430.244 571.655,618.664 377.672,618.664 282.923,519.098 -0.988,519.098 -0.988,521.098 282.065,521.098 							"/>
						</g>
					</g>
				</g>
			</g>
		</g>
		<g>
			<g>
				<g>
					<g>
						<g>
							<circle fill="#F0D40F" cx="995.483" cy="431.244" r="7.665"/>
						</g>
					</g>
				</g>
			</g>
		</g>
		<g>
			<g>
				<g>
					<g>
						<g>
							<polygon fill="#F0D40F" points="388.084,573.777 506.754,573.777 507.048,573.482 533.712,546.711 532.294,545.299 
								505.924,571.777 388.902,571.777 319.217,503.203 -0.988,503.203 -0.988,505.203 318.398,505.203 							"/>
						</g>
					</g>
				</g>
			</g>
		</g>
		<g>
			<g>
				<g>
					<g>
						<g>
							<polygon fill="#F0D40F" points="305.942,527.273 392.572,527.273 404.539,512.941 403.004,511.66 391.637,525.273 
								306.794,525.273 258.172,474.658 -0.988,474.658 -0.988,476.658 257.32,476.658 							"/>
						</g>
					</g>
				</g>
			</g>
		</g>
	</g>
</g>
</svg>
