<?xml version="1.0" encoding="utf-8"?>
<!-- Generator: Adobe Illustrator 16.0.3, SVG Export Plug-In . SVG Version: 6.00 Build 0)  -->
<!DOCTYPE svg PUBLIC "-//W3C//DTD SVG 1.1//EN" "http://www.w3.org/Graphics/SVG/1.1/DTD/svg11.dtd">
<svg version="1.1" id="Capa_1" xmlns="http://www.w3.org/2000/svg" xmlns:xlink="http://www.w3.org/1999/xlink" x="0px" y="0px"
	 width="96.988px" height="381.402px" viewBox="0 0 96.988 381.402" enable-background="new 0 0 96.988 381.402"
	 xml:space="preserve">
<g>
	<g>
		<path fill-rule="evenodd" clip-rule="evenodd" fill="#D12222" d="M32.212,381.987c-4.258-6.871-2.397-16.727,4.235-22.02
			c2.191-1.749,4.772-3.127,7.366-4.222c3.183-1.345,5.863-2.934,6.244-6.703c0.304-3.018-1.398-5.225-5.381-7.309
			c4.458-0.533,11.226,3.056,12.963,8.604c1.794,5.731-0.337,10.737-7.06,15.134c1.113-0.239,1.663-0.302,2.175-0.476
			c11.127-3.776,18.559-14.036,17.692-25.113c-0.778-9.936-6.526-16.682-15.276-20.763c-3.376-1.574-7.223-2.307-10.936-2.958
			c-6.457-1.133-10.624-5.974-9.388-11.659c0.339-1.56,1.216-3.095,2.161-4.417c5.089-7.122,4.779-13.178-1.047-19.713
			c-3.583-4.019-7.434-7.865-10.526-12.24c-8.343-11.804-7.744-27.309,1.169-38.768c3.193-4.105,6.144-8.316,6.82-13.639
			c1.152-9.062-1.984-16.536-8.826-22.409c-3.94-3.382-7.265-7.07-8.518-12.258c-0.122-0.504-0.156-1.028-0.106-1.609
			c1.714,3.096,4.022,5.504,7.272,6.912c2.54,1.101,4.633,0.439,6.107-1.924c3.594-5.759,2.476-13.176-2.427-18.354
			c-2.97-3.137-5.972-6.384-8.208-10.042c-3.389-5.544-3.943-11.766-2.459-18.129c0.497-2.128,0.923-4.273,1.511-7.016
			c0.244,2.04,0.433,3.48,0.584,4.926c0.179,1.712,1.186,2.533,2.826,2.628c1.68,0.098,2.678-0.825,3.146-2.348
			c1.475-4.792,1.006-9.427-1.506-13.742c-1.429-2.456-3.393-4.61-4.729-7.106c-1.18-2.203-2.193-4.628-2.631-7.07
			c-1.05-5.857,0.812-10.582,6.19-13.695c4.604-2.664,8.34-6.264,10.796-11.036c2.961-5.757,1.849-10.467-3.288-14.451
			c-0.225-0.175-0.419-0.39-0.628-0.586c0.157-0.235,0.314-0.47,0.471-0.705c2.197,1.468,4.754,2.594,6.528,4.462
			c7.478,7.877,6.052,18.806-3.026,24.905c-1.446,0.971-3.037,1.772-4.336,2.91c-4.552,3.986-4.8,9.676-0.156,14.177
			c7.077,6.858,7.946,15.129,6.354,24.133c-0.936,5.287-2.915,10.186-5.812,14.712c-0.983,1.536-1.82,3.137-0.131,4.698
			c1.664,1.539,3.438,1.258,5.223,0.103c3.425-2.218,5.609-5.269,6.753-9.386c0.284,1.482,0.68,2.953,0.833,4.448
			c0.634,6.197-0.217,12.163-2.944,17.817c-3.177,6.586-2.379,9.609,3.35,14.108c0.895,0.702,1.809,2.341,1.581,3.266
			c-0.27,1.092-1.768,1.885-2.75,2.79c-0.095,0.088-0.311,0.034-0.463,0.073c-2.48,0.635-3.726,2.333-3.085,4.198
			c0.643,1.875,2.994,2.808,5.179,2.055c3.603-1.239,7.177-6.345,7.097-10.425c-0.047-2.367-0.481-4.724-0.636-7.093
			c-0.307-4.69,0.65-9.126,2.795-13.322c3.376-6.605,3.425-7.533,0.909-14.72c7.615,6.299,12.144,13.751,12.485,23.417
			c0.409,11.589-4.739,20.315-13.741,27.257c-2.302,1.774-4.307,4.282-5.662,6.866c-2.785,5.312-1.586,10.445,1.948,15.103
			c0.765,1.008,1.695,1.89,2.475,2.888c3.495,4.467,3.166,9.035-0.483,13.287c-3.136,3.655-6.419,7.327-8.77,11.482
			c-5.832,10.308-4.222,20.257,4.287,28.543c3.051,2.97,6.458,5.595,9.844,8.192c3.104,2.382,3.906,4.307,2.783,7.98
			c-1.267,4.145,0.722,7.453,5,8.25c1.088,0.202,2.199,0.304,3.304,0.382c6.813,0.482,10.656,5.643,8.836,12.135
			c-1.775,6.333-1.334,12.444,1.698,18.234c7.136,13.627,0.698,28.8-13.673,34.765c-5.858,2.432-11.915,2.891-18.204,2.14
			c-2.413-0.287-5.148-0.052-7.381,0.837C33.482,374.784,31.868,377.871,32.212,381.987z"/>
		<path fill-rule="evenodd" clip-rule="evenodd" fill="#D12222" d="M57.371,149.81c-7.583-4.692-14.495-10.01-15.339-19.889
			c-0.172-2.017,0.538-4.488,1.691-6.167c3.491-5.082,3.913-6.435,2.243-12.202c1.202,1.427,2.289,2.978,3.646,4.236
			c0.841,0.78,2.07,1.458,3.168,1.53c0.717,0.049,1.941-0.949,2.15-1.698c0.203-0.725-0.475-1.823-1.015-2.579
			c-0.312-0.436-1.104-0.561-1.703-0.753c-6.376-2.057-9.742-8.641-6.1-15.238c3.48-6.306,4.025-12.917,1.786-19.759
			c-1.627-4.972-5.084-8.674-8.452-12.492c-7.263-8.233-10.108-17.816-7.825-28.636c1.337-6.339,4.102-12.015,9.104-16.413
			c1.68-1.476,3.177-3.16,4.758-4.75c0.202,0.164,0.403,0.33,0.604,0.494c-0.213,0.423-0.369,0.887-0.646,1.261
			c-7.996,10.789-2.911,22.907,5.023,28.424c2.128,1.481,4.37,2.804,6.453,4.345c7.71,5.702,10.547,16.155,7.181,25.151
			c-1.428,3.818-2.609,7.795-3.309,11.803c-0.778,4.455,0.214,8.892,2.246,12.913c3.471,6.871,2.406,13.034-2.476,18.688
			c-4.295,4.975-6.543,10.721-7.322,17.214c-0.507,4.231,0.979,7.77,2.937,11.267c0.537,0.958,1.105,1.9,1.658,2.851
			C57.679,149.543,57.525,149.676,57.371,149.81z"/>
		<path fill-rule="evenodd" clip-rule="evenodd" fill="#D12222" d="M72.708,264.977c-1.677,5.273-2.074,10.532-0.293,15.819
			c2.269,6.735,6.887,11.384,12.991,14.828c2.862,1.615,5.797,3.348,8.113,5.623c2.916,2.863,3.94,6.71,3.274,11.422
			c-2.038-4.767-5.021-8.056-9.447-9.67c-2.277-0.83-4.736-1.255-7.15-1.593c-5.927-0.828-9.495-4.676-9.695-10.686
			c-0.108-3.246-1.629-4.649-5.282-4.568c-8.178,0.181-14.586-3.084-19.263-9.744c-5.53-7.878-4.705-18.871,1.944-25.86
			c1.307-1.373,2.773-2.601,4.212-3.842c6.083-5.245,7.24-12.782,2.993-19.654c3.209,2.095,6.227,7.989,6.661,12.894
			c0.676,7.654-1.92,14.039-7.6,19.108c-2.957,2.639-5.212,5.489-4.017,9.668c1.113,3.891,4.014,5.981,7.91,6.638
			c4.481,0.756,8.115-0.738,10.736-4.482C70.148,268.944,71.407,266.945,72.708,264.977z"/>
	</g>
	<g>
		<rect x="3.96" fill="#4D4D4D" width="82.68" height="39.413"/>
		<circle fill="#D12222" cx="45.3" cy="19.707" r="3.663"/>
		<circle fill="#D12222" cx="22.928" cy="19.707" r="3.663"/>
		<circle fill="#D12222" cx="68.164" cy="19.707" r="3.663"/>
		<polygon fill="#333333" points="3.96,39.413 0,36.609 0,0 3.96,0 		"/>
		<rect x="22.928" y="38.413" fill="#333333" width="45.235" height="6.528"/>
	</g>
</g>
</svg>
