<?xml version="1.0" encoding="utf-8"?>
<!-- Generator: Adobe Illustrator 16.0.3, SVG Export Plug-In . SVG Version: 6.00 Build 0)  -->
<!DOCTYPE svg PUBLIC "-//W3C//DTD SVG 1.1//EN" "http://www.w3.org/Graphics/SVG/1.1/DTD/svg11.dtd">
<svg version="1.1" id="Capa_1" xmlns="http://www.w3.org/2000/svg" xmlns:xlink="http://www.w3.org/1999/xlink" x="0px" y="0px"
	 width="341.988px" height="96.988px" viewBox="0 0 341.988 96.988" enable-background="new 0 0 341.988 96.988"
	 xml:space="preserve">
<g>
	<g>
		<path fill-rule="evenodd" clip-rule="evenodd" fill="#D12222" d="M341.988,64.775c-6.871,4.26-16.727,2.396-22.02-4.234
			c-1.749-2.191-3.127-4.773-4.222-7.367c-1.345-3.182-2.934-5.863-6.703-6.242c-3.018-0.305-5.225,1.398-7.309,5.383
			c-0.533-4.461,3.056-11.229,8.604-12.965c5.731-1.795,10.737,0.336,15.134,7.059c-0.239-1.113-0.302-1.662-0.476-2.174
			c-3.776-11.129-14.036-18.559-25.113-17.693c-9.935,0.779-16.682,6.527-20.764,15.277c-1.573,3.377-2.306,7.223-2.957,10.936
			c-1.133,6.457-5.974,10.625-11.659,9.389c-1.559-0.34-3.095-1.217-4.417-2.16c-7.122-5.09-13.178-4.779-19.713,1.047
			c-4.019,3.582-7.865,7.434-12.24,10.525c-11.804,8.344-27.309,7.744-38.768-1.168c-4.105-3.193-8.316-6.145-13.639-6.82
			c-9.062-1.152-16.535,1.984-22.409,8.826c-3.382,3.939-7.069,7.264-12.258,8.518c-0.504,0.121-1.028,0.154-1.608,0.105
			c3.095-1.715,5.503-4.021,6.911-7.273c1.101-2.539,0.439-4.633-1.924-6.105c-5.758-3.596-13.176-2.477-18.354,2.426
			c-3.137,2.971-6.384,5.971-10.041,8.207c-5.545,3.391-11.767,3.943-18.13,2.459c-2.128-0.496-4.272-0.922-7.016-1.51
			c2.041-0.244,3.48-0.434,4.926-0.584c1.713-0.18,2.533-1.188,2.628-2.828c0.099-1.68-0.825-2.678-2.348-3.145
			c-4.792-1.475-9.427-1.006-13.741,1.506c-2.456,1.428-4.611,3.393-7.108,4.729c-2.203,1.18-4.627,2.195-7.07,2.631
			c-5.857,1.051-10.582-0.811-13.695-6.189c-2.662-4.604-6.262-8.34-11.035-10.797c-5.756-2.961-10.467-1.848-14.451,3.289
			c-0.174,0.225-0.391,0.42-0.586,0.629c-0.236-0.158-0.471-0.314-0.705-0.473c1.469-2.195,2.594-4.754,4.463-6.527
			c7.875-7.479,18.805-6.053,24.904,3.025c0.971,1.447,1.771,3.037,2.91,4.336c3.986,4.553,9.676,4.801,14.177,0.158
			c6.858-7.078,15.129-7.947,24.133-6.355c5.288,0.936,10.186,2.914,14.712,5.813c1.536,0.982,3.137,1.818,4.698,0.131
			c1.54-1.664,1.258-3.439,0.103-5.225c-2.218-3.424-5.268-5.609-9.386-6.752c1.482-0.285,2.953-0.682,4.448-0.834
			c6.197-0.635,12.163,0.217,17.817,2.945c6.586,3.176,9.609,2.379,14.108-3.352c0.703-0.895,2.341-1.809,3.266-1.58
			c1.092,0.27,1.885,1.768,2.79,2.75c0.088,0.096,0.034,0.311,0.073,0.463c0.635,2.48,2.333,3.725,4.198,3.084
			c1.875-0.643,2.808-2.994,2.056-5.178c-1.24-3.604-6.346-7.178-10.426-7.098c-2.367,0.047-4.724,0.482-7.093,0.637
			c-4.69,0.307-9.126-0.65-13.322-2.795c-6.605-3.375-7.533-3.424-14.72-0.908c6.299-7.615,13.751-12.145,23.417-12.486
			c11.589-0.408,20.315,4.74,27.257,13.742c1.774,2.303,4.282,4.307,6.866,5.662c5.312,2.785,10.445,1.586,15.103-1.949
			c1.008-0.764,1.89-1.693,2.888-2.475c4.467-3.494,9.035-3.166,13.288,0.484c3.654,3.135,7.326,6.418,11.482,8.77
			c10.307,5.832,20.256,4.221,28.542-4.285c2.97-3.053,5.595-6.461,8.192-9.846c2.382-3.105,4.307-3.906,7.98-2.783
			c4.145,1.266,7.453-0.721,8.25-5.002c0.202-1.088,0.304-2.197,0.382-3.303c0.482-6.814,5.643-10.656,12.135-8.838
			c6.333,1.775,12.444,1.336,18.235-1.697c13.626-7.137,28.799-0.697,34.764,13.674c2.432,5.857,2.891,11.914,2.14,18.203
			c-0.287,2.412-0.052,5.148,0.837,7.381C334.785,63.506,337.872,65.119,341.988,64.775z"/>
		<path fill-rule="evenodd" clip-rule="evenodd" fill="#D12222" d="M109.811,39.617c-4.692,7.582-10.01,14.494-19.889,15.34
			c-2.018,0.172-4.488-0.539-6.167-1.691c-5.082-3.49-6.435-3.912-12.202-2.244c1.426-1.201,2.978-2.287,4.236-3.645
			c0.78-0.842,1.458-2.07,1.53-3.17c0.049-0.717-0.948-1.939-1.698-2.148c-0.725-0.203-1.824,0.475-2.58,1.014
			c-0.436,0.313-0.561,1.105-0.752,1.703c-2.057,6.379-8.641,9.742-15.238,6.1c-6.307-3.48-12.918-4.023-19.76-1.785
			c-4.971,1.627-8.674,5.084-12.49,8.451c-8.234,7.262-17.816,10.107-28.637,7.824c-6.34-1.336-12.016-4.102-16.414-9.104
			c-1.475-1.68-3.16-3.178-4.75-4.758c0.166-0.203,0.332-0.404,0.494-0.605c0.424,0.213,0.887,0.369,1.262,0.646
			c10.789,7.996,22.906,2.91,28.424-5.023c1.48-2.127,2.803-4.369,4.344-6.451c5.703-7.711,16.156-10.547,25.152-7.182
			c3.818,1.428,7.795,2.609,11.803,3.309c4.455,0.779,8.891-0.213,12.912-2.244c6.871-3.471,13.035-2.406,18.689,2.475
			c4.975,4.295,10.721,6.543,17.214,7.322c4.231,0.508,7.77-0.979,11.267-2.936c0.958-0.537,1.9-1.105,2.851-1.658
			C109.544,39.309,109.677,39.463,109.811,39.617z"/>
		<path fill-rule="evenodd" clip-rule="evenodd" fill="#D12222" d="M224.978,24.279c5.273,1.678,10.532,2.074,15.819,0.293
			c6.736-2.268,11.384-6.885,14.828-12.99c1.615-2.861,3.348-5.797,5.623-8.113c2.863-2.916,6.71-3.939,11.422-3.273
			c-4.767,2.037-8.057,5.021-9.67,9.447c-0.83,2.277-1.255,4.736-1.593,7.15c-0.828,5.928-4.676,9.494-10.686,9.695
			c-3.246,0.107-4.649,1.629-4.568,5.281c0.181,8.178-3.083,14.586-9.744,19.264c-7.878,5.529-18.871,4.703-25.86-1.945
			c-1.373-1.307-2.601-2.771-3.842-4.211c-5.244-6.084-12.782-7.24-19.654-2.994c2.095-3.207,7.99-6.227,12.894-6.66
			c7.654-0.676,14.04,1.92,19.108,7.6c2.639,2.957,5.489,5.213,9.668,4.018c3.891-1.113,5.982-4.016,6.638-7.91
			c0.756-4.48-0.738-8.115-4.482-10.736C228.945,26.84,226.946,25.582,224.978,24.279z"/>
	</g>
	<g>
		<rect y="10.348" fill="#4D4D4D" width="39.414" height="82.68"/>
		<circle fill="#D12222" cx="19.707" cy="51.688" r="3.663"/>
		<path fill="#D12222" d="M19.707,70.396c2.023,0,3.662,1.641,3.662,3.664s-1.639,3.662-3.66,3.662
			c-2.025,0-3.666-1.639-3.666-3.662C16.045,72.037,17.684,70.396,19.707,70.396z"/>
		<path fill="#D12222" d="M19.707,25.162c2.023,0,3.662,1.639,3.662,3.662c0,2.025-1.639,3.664-3.66,3.664
			c-2.025,0-3.666-1.641-3.666-3.664S17.684,25.162,19.707,25.162z"/>
		<polygon fill="#333333" points="39.414,93.027 36.609,96.988 0,96.988 0,93.027 		"/>
		<rect x="38.414" y="28.824" fill="#333333" width="6.527" height="45.236"/>
	</g>
</g>
</svg>
