<?xml version="1.0" encoding="utf-8"?>
<!-- Generator: Adobe Illustrator 16.0.3, SVG Export Plug-In . SVG Version: 6.00 Build 0)  -->
<!DOCTYPE svg PUBLIC "-//W3C//DTD SVG 1.1//EN" "http://www.w3.org/Graphics/SVG/1.1/DTD/svg11.dtd">
<svg version="1.1" id="Capa_1" xmlns="http://www.w3.org/2000/svg" xmlns:xlink="http://www.w3.org/1999/xlink" x="0px" y="0px"
	 width="96.988px" height="341.403px" viewBox="0 0 96.988 341.403" enable-background="new 0 0 96.988 341.403"
	 xml:space="preserve">
<g>
	<g>
		<path fill-rule="evenodd" clip-rule="evenodd" fill="#D12222" d="M64.775-0.585c4.26,6.871,2.396,16.727-4.234,22.02
			c-2.191,1.749-4.773,3.127-7.367,4.222c-3.182,1.345-5.863,2.934-6.242,6.703c-0.305,3.018,1.398,5.225,5.383,7.309
			c-4.461,0.533-11.229-3.056-12.965-8.604c-1.795-5.731,0.336-10.737,7.059-15.134c-1.113,0.239-1.662,0.302-2.174,0.476
			C33.105,20.183,25.676,30.442,26.541,41.52c0.779,9.935,6.527,16.682,15.277,20.764c3.377,1.573,7.223,2.306,10.936,2.957
			c6.457,1.133,10.625,5.974,9.389,11.659c-0.34,1.559-1.217,3.095-2.16,4.417c-5.09,7.122-4.779,13.178,1.047,19.713
			c3.582,4.019,7.434,7.865,10.525,12.24c8.344,11.804,7.744,27.309-1.168,38.768c-3.193,4.105-6.145,8.316-6.82,13.639
			c-1.152,9.062,1.984,16.535,8.826,22.409c3.939,3.382,7.264,7.069,8.518,12.258c0.121,0.504,0.154,1.028,0.105,1.608
			c-1.715-3.095-4.021-5.503-7.273-6.911c-2.539-1.101-4.633-0.439-6.105,1.924c-3.596,5.758-2.477,13.176,2.426,18.354
			c2.971,3.137,5.971,6.384,8.207,10.041c3.391,5.545,3.943,11.767,2.459,18.13c-0.496,2.128-0.922,4.272-1.51,7.016
			c-0.244-2.041-0.434-3.48-0.584-4.926c-0.18-1.713-1.188-2.533-2.828-2.628c-1.68-0.099-2.678,0.825-3.145,2.348
			c-1.475,4.792-1.006,9.427,1.506,13.741c1.428,2.456,3.393,4.611,4.729,7.108c1.18,2.203,2.195,4.627,2.631,7.07
			c1.051,5.857-0.811,10.582-6.189,13.695c-4.604,2.662-8.34,6.262-10.797,11.035c-2.961,5.756-1.848,10.467,3.289,14.451
			c0.225,0.174,0.42,0.391,0.629,0.586c-0.158,0.236-0.314,0.471-0.473,0.705c-2.195-1.469-4.754-2.594-6.527-4.463
			c-7.479-7.875-6.053-18.805,3.025-24.904c1.447-0.971,3.037-1.771,4.336-2.91c4.553-3.986,4.801-9.676,0.158-14.177
			c-7.078-6.858-7.947-15.129-6.355-24.133c0.936-5.288,2.914-10.186,5.813-14.712c0.982-1.536,1.818-3.137,0.131-4.698
			c-1.664-1.54-3.439-1.258-5.225-0.103c-3.424,2.218-5.609,5.268-6.752,9.386c-0.285-1.482-0.682-2.953-0.834-4.448
			c-0.635-6.197,0.217-12.163,2.945-17.817c3.176-6.586,2.379-9.609-3.352-14.108c-0.895-0.703-1.809-2.341-1.58-3.266
			c0.27-1.092,1.768-1.885,2.75-2.79c0.096-0.088,0.311-0.034,0.463-0.073c2.48-0.635,3.725-2.333,3.084-4.198
			c-0.643-1.875-2.994-2.808-5.178-2.056c-3.604,1.24-7.178,6.346-7.098,10.426c0.047,2.367,0.482,4.724,0.637,7.093
			c0.307,4.69-0.65,9.126-2.795,13.322c-3.375,6.605-3.424,7.533-0.908,14.72c-7.615-6.299-12.145-13.751-12.486-23.417
			c-0.408-11.589,4.74-20.315,13.742-27.257c2.303-1.774,4.307-4.282,5.662-6.866c2.785-5.312,1.586-10.445-1.949-15.103
			c-0.764-1.008-1.693-1.89-2.475-2.888c-3.494-4.467-3.166-9.035,0.484-13.288c3.135-3.654,6.418-7.326,8.77-11.482
			c5.832-10.307,4.221-20.256-4.285-28.542c-3.053-2.97-6.461-5.595-9.846-8.192c-3.105-2.382-3.906-4.307-2.783-7.98
			c1.266-4.145-0.721-7.453-5.002-8.25c-1.088-0.202-2.197-0.304-3.303-0.382c-6.814-0.482-10.656-5.643-8.838-12.135
			c1.775-6.333,1.336-12.444-1.697-18.235c-7.137-13.626-0.697-28.799,13.674-34.764c5.857-2.432,11.914-2.891,18.203-2.14
			c2.412,0.287,5.148,0.052,7.381-0.837C63.506,6.618,65.119,3.531,64.775-0.585z"/>
		<path fill-rule="evenodd" clip-rule="evenodd" fill="#D12222" d="M39.617,231.593c7.582,4.692,14.494,10.01,15.34,19.889
			c0.172,2.018-0.539,4.488-1.691,6.167c-3.49,5.082-3.912,6.435-2.244,12.202c-1.201-1.426-2.287-2.978-3.645-4.236
			c-0.842-0.78-2.07-1.458-3.17-1.53c-0.717-0.049-1.939,0.948-2.148,1.698c-0.203,0.725,0.475,1.824,1.014,2.58
			c0.313,0.436,1.105,0.561,1.703,0.752c6.379,2.057,9.742,8.641,6.1,15.238c-3.48,6.307-4.023,12.918-1.785,19.76
			c1.627,4.971,5.084,8.674,8.451,12.49c7.262,8.234,10.107,17.816,7.824,28.637c-1.336,6.34-4.102,12.016-9.104,16.414
			c-1.68,1.475-3.178,3.16-4.758,4.75c-0.203-0.166-0.404-0.332-0.605-0.494c0.213-0.424,0.369-0.887,0.646-1.262
			c7.996-10.789,2.91-22.906-5.023-28.424c-2.127-1.48-4.369-2.803-6.451-4.344c-7.711-5.703-10.547-16.156-7.182-25.152
			c1.428-3.818,2.609-7.795,3.309-11.803c0.779-4.455-0.213-8.891-2.244-12.912c-3.471-6.871-2.406-13.035,2.475-18.689
			c4.295-4.975,6.543-10.721,7.322-17.214c0.508-4.231-0.979-7.77-2.936-11.267c-0.537-0.958-1.105-1.9-1.658-2.851
			C39.309,231.859,39.463,231.727,39.617,231.593z"/>
		<path fill-rule="evenodd" clip-rule="evenodd" fill="#D12222" d="M24.279,116.426c1.678-5.273,2.074-10.532,0.293-15.819
			c-2.268-6.736-6.885-11.384-12.99-14.828c-2.861-1.615-5.797-3.348-8.113-5.623c-2.916-2.863-3.939-6.71-3.273-11.422
			c2.037,4.767,5.021,8.057,9.447,9.67c2.277,0.83,4.736,1.255,7.15,1.593c5.928,0.828,9.494,4.676,9.695,10.686
			c0.107,3.246,1.629,4.649,5.281,4.568c8.178-0.181,14.586,3.083,19.264,9.744c5.529,7.878,4.703,18.871-1.945,25.86
			c-1.307,1.373-2.771,2.601-4.211,3.842c-6.084,5.244-7.24,12.782-2.994,19.654c-3.207-2.095-6.227-7.99-6.66-12.894
			c-0.676-7.654,1.92-14.04,7.6-19.108c2.957-2.639,5.213-5.489,4.018-9.668c-1.113-3.891-4.016-5.982-7.91-6.638
			c-4.48-0.756-8.115,0.738-10.736,4.482C26.84,112.458,25.582,114.457,24.279,116.426z"/>
	</g>
	<g>
		<rect x="10.348" y="301.989" fill="#4D4D4D" width="82.68" height="39.414"/>
		<circle fill="#D12222" cx="51.688" cy="321.696" r="3.663"/>
		<path fill="#D12222" d="M70.396,321.696c0-2.023,1.641-3.662,3.664-3.662s3.662,1.639,3.662,3.66c0,2.025-1.639,3.666-3.662,3.666
			C72.037,325.358,70.396,323.72,70.396,321.696z"/>
		<path fill="#D12222" d="M25.162,321.696c0-2.023,1.639-3.662,3.662-3.662c2.025,0,3.664,1.639,3.664,3.66
			c0,2.025-1.641,3.666-3.664,3.666S25.162,323.72,25.162,321.696z"/>
		<polygon fill="#333333" points="93.027,301.989 96.988,304.794 96.988,341.403 93.027,341.403 		"/>
		<rect x="28.824" y="296.462" fill="#333333" width="45.236" height="6.527"/>
	</g>
</g>
</svg>
