<?xml version="1.0" encoding="utf-8"?>
<!-- Generator: Adobe Illustrator 16.0.3, SVG Export Plug-In . SVG Version: 6.00 Build 0)  -->
<!DOCTYPE svg PUBLIC "-//W3C//DTD SVG 1.1//EN" "http://www.w3.org/Graphics/SVG/1.1/DTD/svg11.dtd">
<svg version="1.1" id="Capa_1" xmlns="http://www.w3.org/2000/svg" xmlns:xlink="http://www.w3.org/1999/xlink" x="0px" y="0px"
	 width="80.486px" height="80.485px" viewBox="0 0 80.486 80.485" enable-background="new 0 0 80.486 80.485" xml:space="preserve">
<g>
	<g>
		<path fill="#F0D40F" d="M40.242,80.485C18.053,80.485,0,62.434,0,40.242C0,18.053,18.053,0,40.242,0
			c22.191,0,40.244,18.053,40.244,40.242C80.486,62.434,62.434,80.485,40.242,80.485z M40.242,3.662
			c-20.17,0-36.58,16.41-36.58,36.58c0,20.173,16.41,36.582,36.58,36.582c20.172,0,36.582-16.409,36.582-36.582
			C76.824,20.072,60.414,3.662,40.242,3.662z"/>
	</g>
	<circle fill="#F0D40F" cx="40.243" cy="14.674" r="2.257"/>
	<circle fill="#F0D40F" cx="65.811" cy="40.242" r="2.256"/>
	<circle fill="#F0D40F" cx="40.242" cy="65.812" r="2.256"/>
	<circle fill="#F0D40F" cx="14.674" cy="40.242" r="2.256"/>
	<circle fill="#F0D40F" cx="22.163" cy="22.163" r="2.256"/>
	<circle fill="#F0D40F" cx="58.322" cy="22.163" r="2.256"/>
	<circle fill="#F0D40F" cx="58.322" cy="58.323" r="2.256"/>
	<circle fill="#F0D40F" cx="22.163" cy="58.323" r="2.256"/>
	<circle fill="#F0D40F" cx="30.609" cy="16.559" r="2.256"/>
	<circle fill="#F0D40F" cx="63.927" cy="30.61" r="2.256"/>
	<circle fill="#F0D40F" cx="49.875" cy="63.927" r="2.256"/>
	<circle fill="#F0D40F" cx="16.558" cy="49.876" r="2.256"/>
	<circle fill="#F0D40F" cx="16.639" cy="30.415" r="2.256"/>
	<circle fill="#F0D40F" cx="50.069" cy="16.639" r="2.256"/>
	<circle fill="#F0D40F" cx="63.848" cy="50.07" r="2.256"/>
	<circle fill="#F0D40F" cx="30.415" cy="63.848" r="2.256"/>
	<circle fill="#F0D40F" cx="40.243" cy="14.674" r="2.257"/>
	<circle fill="#F0D40F" cx="65.811" cy="40.242" r="2.256"/>
	<circle fill="#F0D40F" cx="40.242" cy="65.812" r="2.256"/>
	<circle fill="#F0D40F" cx="14.674" cy="40.242" r="2.256"/>
	<circle fill="#F0D40F" cx="22.163" cy="22.163" r="2.256"/>
	<circle fill="#F0D40F" cx="58.322" cy="22.163" r="2.256"/>
	<circle fill="#F0D40F" cx="58.322" cy="58.323" r="2.256"/>
	<circle fill="#F0D40F" cx="22.163" cy="58.323" r="2.256"/>
	<circle fill="#F0D40F" cx="30.609" cy="16.559" r="2.256"/>
	<circle fill="#F0D40F" cx="63.927" cy="30.61" r="2.256"/>
	<circle fill="#F0D40F" cx="49.875" cy="63.927" r="2.256"/>
	<circle fill="#F0D40F" cx="16.558" cy="49.876" r="2.256"/>
	<circle fill="#F0D40F" cx="16.639" cy="30.415" r="2.256"/>
	<circle fill="#F0D40F" cx="50.069" cy="16.639" r="2.256"/>
	<circle fill="#F0D40F" cx="63.848" cy="50.07" r="2.256"/>
	<circle fill="#F0D40F" cx="30.415" cy="63.848" r="2.256"/>
	<polygon fill="#F0D40F" points="40.242,31.82 50.813,31.82 45.527,40.975 40.242,50.128 34.957,40.975 29.672,31.82 	"/>
	<g>
		<path fill="#F0D40F" d="M40.242,52.882L27.27,30.411h25.945L40.242,52.882z M28.539,31.145l11.703,20.272l11.705-20.272H28.539z"
			/>
	</g>
</g>
</svg>
