<?xml version="1.0" encoding="utf-8"?>
<!-- Generator: Adobe Illustrator 16.0.3, SVG Export Plug-In . SVG Version: 6.00 Build 0)  -->
<!DOCTYPE svg PUBLIC "-//W3C//DTD SVG 1.1//EN" "http://www.w3.org/Graphics/SVG/1.1/DTD/svg11.dtd">
<svg version="1.1" id="Capa_1" xmlns="http://www.w3.org/2000/svg" xmlns:xlink="http://www.w3.org/1999/xlink" x="0px" y="0px"
	 width="91.729px" height="278.646px" viewBox="0 0 91.729 278.646" enable-background="new 0 0 91.729 278.646"
	 xml:space="preserve">
<g>
	<g>
		<polygon fill="#F0D310" points="39.133,-6.927 64.053,-1.177 38.08,139.942 69.389,130.358 16.453,256.405 25.287,256.405 
			0,278.646 1.523,245.743 8.531,254.272 43.195,156.19 13.041,170.204 		"/>
		<polygon fill="#EDAB15" points="0,278.646 4.141,248.93 1.523,245.743 		"/>
		<polygon fill="#EDAB15" points="8.531,254.272 48.408,153.882 43.195,156.19 		"/>
		<polygon fill="#EDAB15" points="69.389,130.358 37.246,145.111 38.08,139.942 		"/>
		<polygon fill="#EDAB15" points="13.041,170.204 45.344,-5.494 39.133,-6.927 		"/>
	</g>
	<g>
		<rect x="9.049" fill="#4D4D4D" width="82.68" height="39.413"/>
		<circle fill="#ED9513" cx="50.388" cy="19.707" r="3.663"/>
		<circle fill="#ED9513" cx="28.017" cy="19.707" r="3.663"/>
		<circle fill="#ED9513" cx="73.253" cy="19.707" r="3.663"/>
		<polygon fill="#333333" points="9.049,39.413 5.088,36.609 5.088,0 9.049,0 		"/>
		<rect x="28.018" y="38.413" fill="#333333" width="45.234" height="6.528"/>
	</g>
</g>
</svg>
