<?xml version="1.0" encoding="utf-8"?>
<!-- Generator: Adobe Illustrator 16.0.3, SVG Export Plug-In . SVG Version: 6.00 Build 0)  -->
<!DOCTYPE svg PUBLIC "-//W3C//DTD SVG 1.1//EN" "http://www.w3.org/Graphics/SVG/1.1/DTD/svg11.dtd">
<svg version="1.1" id="Capa_1" xmlns="http://www.w3.org/2000/svg" xmlns:xlink="http://www.w3.org/1999/xlink" x="0px" y="0px"
	 width="101.457px" height="347.541px" viewBox="0 0 101.457 347.541" enable-background="new 0 0 101.457 347.541"
	 xml:space="preserve">
<g>
	<g>
		<polygon fill="#F0D310" points="79.48,350.76 6.398,168.493 42.939,173.64 11.838,39.602 5.146,48.865 0,0 38.084,37.543 
			26.248,37.028 79.48,201.431 39.336,190.38 		"/>
		<polygon fill="#EDAB15" points="79.48,350.76 6.398,168.493 14.408,169.622 		"/>
		<polygon fill="#EDAB15" points="79.48,201.431 36.793,184.481 39.336,190.38 		"/>
		<polygon fill="#EDAB15" points="42.939,173.64 15.523,34.955 11.838,39.602 		"/>
		<polygon fill="#EDAB15" points="5.146,48.865 5.146,5.073 0,0 		"/>
	</g>
	<g>
		<rect x="14.816" y="308.128" fill="#4D4D4D" width="82.68" height="39.413"/>
		<circle fill="#ED9513" cx="56.157" cy="327.834" r="3.663"/>
		<circle fill="#ED9513" cx="78.528" cy="327.834" r="3.663"/>
		<circle fill="#ED9513" cx="33.294" cy="327.834" r="3.663"/>
		<polygon fill="#333333" points="97.496,308.128 101.457,310.931 101.457,347.541 97.496,347.541 		"/>
		<rect x="33.293" y="302.599" fill="#333333" width="45.236" height="6.529"/>
	</g>
</g>
</svg>
