<?xml version="1.0" encoding="utf-8"?>
<!-- Generator: Adobe Illustrator 16.0.3, SVG Export Plug-In . SVG Version: 6.00 Build 0)  -->
<!DOCTYPE svg PUBLIC "-//W3C//DTD SVG 1.1//EN" "http://www.w3.org/Graphics/SVG/1.1/DTD/svg11.dtd">
<svg version="1.1" id="Capa_1" xmlns="http://www.w3.org/2000/svg" xmlns:xlink="http://www.w3.org/1999/xlink" x="0px" y="0px"
	 width="1280px" height="720px" viewBox="0 0 1280 720" enable-background="new 0 0 1280 720" xml:space="preserve">
<rect fill="#040404" width="1280" height="720"/>
<g opacity="0.05">
	<g>
		<g>
			<g>
				<g>
					<g>
						<g>
							<g>
								<path fill="#F0D40F" d="M46.908,171.405"/>
							</g>
						</g>
					</g>
				</g>
			</g>
		</g>
		<g>
			<g>
				<g>
					<g>
						<g>
							<polygon fill="#F0D40F" points="745.541,425.843 776.883,397.062 776.939,396.493 790.764,259.506 934.002,130.15 
								937.154,100.505 1007.596,38.792 1102.244,38.792 1145.578,1.132 1143.609,-1.133 1101.123,35.792 1006.467,35.792 
								934.295,99.021 931.141,128.692 787.895,258.055 787.836,258.63 774.012,395.624 743.512,423.634 							"/>
						</g>
					</g>
				</g>
			</g>
		</g>
		<g>
			<g>
				<g>
					<g>
						<g>
							<polygon fill="#F0D40F" points="1064.229,105.899 1077,93.736 1129.361,97.522 1197.99,33.978 1195.951,31.776 
								1128.279,94.437 1075.893,90.648 1062.158,103.727 							"/>
						</g>
					</g>
				</g>
			</g>
		</g>
		<g>
			<g>
				<g>
					<g>
						<g>
							<polygon fill="#F0D40F" points="244.797,700.732 407.514,700.732 444.113,667.29 769.098,667.923 769.531,667.519 
								938.844,509.535 1018.34,509.535 1059.584,472.156 1072.834,333.338 1216.043,205.271 1220.459,175.62 1280.26,122.977 
								1278.277,120.725 1217.652,174.093 1213.234,203.757 1069.959,331.884 1056.709,470.713 1017.184,506.535 937.662,506.535 
								767.918,664.921 442.951,664.288 406.35,697.733 245.984,697.733 132.402,591.091 -0.988,591.091 -0.988,594.091 
								131.215,594.091 							"/>
						</g>
					</g>
				</g>
			</g>
		</g>
		<g>
			<g>
				<g>
					<g>
						<g>
							<polygon fill="#F0D40F" points="224.82,721.254 226.84,719.035 143.115,642.835 -0.988,642.835 -0.988,645.835 
								141.955,645.835 							"/>
						</g>
					</g>
				</g>
			</g>
		</g>
		<g>
			<g>
				<g>
					<g>
						<g>
							<polygon fill="#F0D40F" points="189.457,721.23 191.527,719.059 139.35,669.337 -0.988,669.337 -0.988,672.337 
								138.148,672.337 							"/>
						</g>
					</g>
				</g>
			</g>
		</g>
		<g>
			<g>
				<g>
					<g>
						<g>
							<polygon fill="#F0D40F" points="172.82,621.226 260.527,621.226 280.09,601.663 453.629,601.663 454.07,601.214 
								544.496,508.904 582.357,508.904 582.357,505.904 543.234,505.904 542.795,506.354 452.367,598.663 278.848,598.663 
								259.285,618.226 174.092,618.226 113.057,555.122 -0.988,555.122 -0.988,558.122 111.785,558.122 							"/>
						</g>
					</g>
				</g>
			</g>
		</g>
		<g>
			<g>
				<g>
					<g>
						<g>
							<g>
								<polygon fill="#F0D40F" points="395.391,570.612 522.619,570.612 590.727,501.232 587.871,498.43 520.941,566.612 
									397.021,566.612 310.572,482.055 -0.988,482.055 -0.988,486.055 308.941,486.055 								"/>
							</g>
						</g>
					</g>
				</g>
			</g>
		</g>
		<g>
			<g>
				<g>
					<g>
						<g>
							<polygon fill="#F0D40F" points="183.146,553.206 211.73,553.206 238.58,526.357 228.453,515.553 226.994,516.92 
								235.797,526.313 210.902,551.206 183.957,551.206 141.047,509.559 -0.988,509.559 -0.988,511.559 140.236,511.559 							"/>
						</g>
					</g>
				</g>
			</g>
		</g>
		<g>
			<g>
				<g>
					<g>
						<g>
							<polygon fill="#F0D40F" points="208.381,590.437 240.344,590.437 240.344,588.437 209.203,588.437 150.518,530.382 
								-0.988,530.382 -0.988,532.382 149.695,532.382 							"/>
						</g>
					</g>
				</g>
			</g>
		</g>
		<g>
			<g>
				<g>
					<g>
						<g>
							<polygon fill="#F0D40F" points="208.375,611.892 251.506,611.892 251.803,611.573 288.443,572.36 271.957,556.532 
								270.572,557.976 285.635,572.437 250.637,609.892 209.209,609.892 151.156,551.206 -0.988,551.206 -0.988,553.206 
								150.322,553.206 							"/>
						</g>
					</g>
				</g>
			</g>
		</g>
		<g>
			<g>
				<g>
					<g>
						<g>
							<polygon fill="#F0D40F" points="270.854,461.076 299.436,461.076 326.934,434.233 315.531,422.159 314.078,423.532 
								324.129,434.177 298.621,459.076 271.674,459.076 230.027,418.06 81.957,418.06 81.957,420.06 229.207,420.06 							"/>
						</g>
					</g>
				</g>
			</g>
		</g>
		<g>
			<g>
				<g>
					<g>
						<g>
							<polygon fill="#F0D40F" points="411.564,448.456 520.314,448.456 520.609,448.147 547.742,419.751 546.297,418.37 
								519.459,446.456 412.398,446.456 325.949,359.071 237.189,359.071 237.189,361.071 325.115,361.071 							"/>
						</g>
					</g>
				</g>
			</g>
		</g>
		<g>
			<g>
				<g>
					<g>
						<g>
							<polygon fill="#F0D40F" points="391.688,401.761 530.398,401.761 595.686,336.474 594.271,335.06 529.57,399.761 
								392.521,399.761 301.971,308.263 -0.988,308.263 -0.988,310.263 301.137,310.263 							"/>
						</g>
					</g>
				</g>
			</g>
		</g>
		<g>
			<g>
				<g>
					<g>
						<g>
							<polygon fill="#F0D40F" points="407.15,348.125 501.371,348.125 501.666,347.83 847.465,0.705 846.047,-0.706 
								500.541,346.125 407.979,346.125 322.16,260.306 -0.988,260.306 -0.988,262.306 321.332,262.306 							"/>
						</g>
					</g>
				</g>
			</g>
		</g>
		<g>
			<g>
				<g>
					<g>
						<g>
							<polygon fill="#F0D40F" points="999.441,425.53 1013.689,414.522 1017.477,339.391 1097.008,268.697 1097.008,251.666 
								1130.455,222.552 1186,222.552 1235.506,177.488 1234.158,176.01 1185.225,220.552 1129.707,220.552 1095.008,250.755 
								1095.008,267.799 1015.521,338.453 1011.738,413.503 998.219,423.948 							"/>
						</g>
					</g>
				</g>
			</g>
		</g>
		<g>
			<g>
				<g>
					<g>
						<g>
							<polygon fill="#F0D40F" points="451.068,720.947 457.744,716.01 780.258,716.01 780.545,715.744 949.371,559.517 
								1018.393,559.517 1018.393,557.517 948.588,557.517 948.301,557.782 779.475,714.01 457.084,714.01 449.879,719.34 							
								"/>
						</g>
					</g>
				</g>
			</g>
		</g>
		<g>
			<g>
				<g>
					<g>
						<g>
							<polygon fill="#F0D40F" points="834.188,720.873 982.189,582.233 1013.346,582.233 1013.346,580.233 981.398,580.233 
								981.111,580.505 832.82,719.414 							"/>
						</g>
					</g>
				</g>
			</g>
		</g>
		<g>
			<g>
				<g>
					<g>
						<g>
							<polygon fill="#F0D40F" points="956.633,720.846 1003.666,673.103 1279.268,673.103 1279.268,671.103 1002.828,671.103 
								1002.535,671.399 955.209,719.441 							"/>
						</g>
					</g>
				</g>
			</g>
		</g>
		<g>
			<g>
				<g>
					<g>
						<g>
							<circle fill="#F0D40F" cx="611.424" cy="318.053" r="26.947"/>
						</g>
					</g>
				</g>
			</g>
		</g>
		<g>
			<g>
				<g>
					<g>
						<g>
							<circle fill="#F0D40F" cx="550.274" cy="415.132" r="5.915"/>
						</g>
					</g>
				</g>
			</g>
		</g>
		<g>
			<g>
				<g>
					<g>
						<g>
							<circle fill="#F0D40F" cx="311.551" cy="419.06" r="5.182"/>
						</g>
					</g>
				</g>
			</g>
		</g>
		<g>
			<g>
				<g>
					<g>
						<g>
							<circle fill="#F0D40F" cx="208.944" cy="360.071" r="27.423"/>
						</g>
					</g>
				</g>
			</g>
		</g>
		<g>
			<g>
				<g>
					<g>
						<g>
							<circle fill="#F0D40F" cx="60.736" cy="419.06" r="22.672"/>
						</g>
					</g>
				</g>
			</g>
		</g>
		<g>
			<g>
				<g>
					<g>
						<g>
							<circle fill="#F0D40F" cx="222.074" cy="510.559" r="9.6"/>
						</g>
					</g>
				</g>
			</g>
		</g>
		<g>
			<g>
				<g>
					<g>
						<g>
							<circle fill="#F0D40F" cx="211.02" cy="536.739" r="7.275"/>
						</g>
					</g>
				</g>
			</g>
		</g>
		<g>
			<g>
				<g>
					<g>
						<g>
							<circle fill="#F0D40F" cx="265.95" cy="552.206" r="8.204"/>
						</g>
					</g>
				</g>
			</g>
		</g>
		<g>
			<g>
				<g>
					<g>
						<g>
							<circle fill="#F0D40F" cx="250.059" cy="589.437" r="10.18"/>
						</g>
					</g>
				</g>
			</g>
		</g>
		<g>
			<g>
				<g>
					<g>
						<g>
							<circle fill="#F0D40F" cx="409.669" cy="504.264" r="10.019"/>
						</g>
					</g>
				</g>
			</g>
		</g>
		<g>
			<g>
				<g>
					<g>
						<g>
							<circle fill="#F0D40F" cx="536.459" cy="542.61" r="3.455"/>
						</g>
					</g>
				</g>
			</g>
		</g>
		<g>
			<g>
				<g>
					<g>
						<g>
							<circle fill="#F0D40F" cx="598.99" cy="494.246" r="13.158"/>
						</g>
					</g>
				</g>
			</g>
		</g>
		<g>
			<g>
				<g>
					<g>
						<g>
							<circle fill="#F0D40F" cx="731.308" cy="424.739" r="14.231"/>
						</g>
					</g>
				</g>
			</g>
		</g>
		<g>
			<g>
				<g>
					<g>
						<g>
							<circle fill="#F0D40F" cx="1063.194" cy="579.257" r="53.179"/>
						</g>
					</g>
				</g>
			</g>
		</g>
		<g>
			<g>
				<g>
					<g>
						<g>
							<circle fill="#F0D40F" cx="1239.653" cy="173.563" r="5.278"/>
						</g>
					</g>
				</g>
			</g>
		</g>
		<g>
			<g>
				<g>
					<g>
						<g>
							<circle fill="#F0D40F" cx="1059.448" cy="109.057" r="4.858"/>
						</g>
					</g>
				</g>
			</g>
		</g>
		<g>
			<g>
				<g>
					<g>
						<g>
							<circle fill="#F0D40F" cx="1196.97" cy="32.877" r="6.093"/>
						</g>
					</g>
				</g>
			</g>
		</g>
		<g>
			<g>
				<g>
					<g>
						<g>
							<polygon fill="#F0D40F" points="299.846,559.517 437.48,559.517 566.576,425.739 731.678,425.739 731.959,425.497 
								843.096,329.925 847.744,174.012 935.441,93.019 1019.52,99.531 1130.746,0.747 1129.418,-0.748 1018.826,97.472 
								934.725,90.957 845.77,173.113 845.756,173.533 841.123,328.983 730.936,423.739 565.727,423.739 436.631,557.517 
								300.674,557.517 232.088,488.936 -0.984,488.342 -0.99,490.342 231.258,490.934 							"/>
						</g>
					</g>
				</g>
			</g>
		</g>
		<g>
			<g>
				<g>
					<g>
						<g>
							<polygon fill="#F0D40F" points="376.814,620.726 572.492,620.726 758.438,432.306 988.971,432.306 988.971,430.306 
								757.602,430.306 571.656,618.726 377.672,618.726 282.924,519.158 -0.988,519.158 -0.988,521.158 282.066,521.158 							"/>
						</g>
					</g>
				</g>
			</g>
		</g>
		<g>
			<g>
				<g>
					<g>
						<g>
							<circle fill="#F0D40F" cx="995.483" cy="431.306" r="7.665"/>
						</g>
					</g>
				</g>
			</g>
		</g>
		<g>
			<g>
				<g>
					<g>
						<g>
							<polygon fill="#F0D40F" points="388.084,573.837 506.754,573.837 507.049,573.544 533.713,546.772 532.295,545.36 
								505.924,571.837 388.902,571.837 319.217,503.264 -0.988,503.264 -0.988,505.264 318.398,505.264 							"/>
						</g>
					</g>
				</g>
			</g>
		</g>
		<g>
			<g>
				<g>
					<g>
						<g>
							<polygon fill="#F0D40F" points="305.943,527.335 392.572,527.335 404.539,513.002 403.004,511.721 391.637,525.334 
								306.795,525.334 258.172,474.719 -0.988,474.719 -0.988,476.719 257.32,476.719 							"/>
						</g>
					</g>
				</g>
			</g>
		</g>
	</g>
</g>
</svg>
