<?xml version="1.0" encoding="utf-8"?>
<!-- Generator: Adobe Illustrator 16.0.3, SVG Export Plug-In . SVG Version: 6.00 Build 0)  -->
<!DOCTYPE svg PUBLIC "-//W3C//DTD SVG 1.1//EN" "http://www.w3.org/Graphics/SVG/1.1/DTD/svg11.dtd">
<svg version="1.1" id="Capa_1" xmlns="http://www.w3.org/2000/svg" xmlns:xlink="http://www.w3.org/1999/xlink" x="0px" y="0px"
	 width="189.391px" height="76.953px" viewBox="0 0 189.391 76.953" enable-background="new 0 0 189.391 76.953"
	 xml:space="preserve">
<g>
	<g>
		<g>
			<circle fill="#FFFFFF" cx="41.688" cy="24.049" r="23.112"/>
			<path fill="#040404" d="M41.688,0c6.424,0,12.463,2.502,17.006,7.043c4.541,4.543,7.043,10.582,7.043,17.006
				s-2.502,12.463-7.043,17.004c-4.543,4.543-10.582,7.045-17.006,7.045s-12.463-2.502-17.004-7.045
				c-4.543-4.541-7.045-10.58-7.045-17.004s2.502-12.463,7.045-17.006C29.225,2.502,35.264,0,41.688,0z M41.688,46.225
				c12.229,0,22.176-9.949,22.176-22.176c0-12.229-9.947-22.176-22.176-22.176c-12.227,0-22.176,9.947-22.176,22.176
				C19.512,36.275,29.461,46.225,41.688,46.225z"/>
		</g>
		<g>
			<circle fill="#FFFFFF" cx="41.688" cy="24.049" r="16.748"/>
			<path fill="#040404" d="M41.688,6.363c4.725,0,9.164,1.84,12.506,5.18c3.34,3.342,5.18,7.781,5.18,12.506
				c0,4.723-1.84,9.164-5.18,12.504c-3.342,3.34-7.781,5.18-12.506,5.18c-4.723,0-9.164-1.84-12.504-5.18s-5.18-7.781-5.18-12.504
				c0-4.725,1.84-9.164,5.18-12.506C32.523,8.203,36.965,6.363,41.688,6.363z M41.688,39.859c8.719,0,15.813-7.092,15.813-15.811
				S50.406,8.236,41.688,8.236S25.877,15.33,25.877,24.049S32.969,39.859,41.688,39.859z"/>
		</g>
		<g>
			<circle fill="#FFFFFF" cx="41.688" cy="24.049" r="10.338"/>
			<path fill="#040404" d="M41.688,12.773c6.217,0,11.275,5.059,11.275,11.275s-5.059,11.273-11.275,11.273
				s-11.273-5.057-11.273-11.273S35.471,12.773,41.688,12.773z M41.688,33.451c5.186,0,9.402-4.219,9.402-9.402
				c0-5.186-4.217-9.402-9.402-9.402c-5.184,0-9.402,4.217-9.402,9.402C32.285,29.232,36.504,33.451,41.688,33.451z"/>
		</g>
		<g>
			<circle fill="#FFFFFF" cx="41.688" cy="24.049" r="3.871"/>
			<path fill="#040404" d="M41.688,19.24c2.65,0,4.809,2.156,4.809,4.809c0,2.65-2.158,4.807-4.809,4.807s-4.807-2.156-4.807-4.807
				C36.881,21.396,39.037,19.24,41.688,19.24z M41.688,26.982c1.619,0,2.936-1.316,2.936-2.934c0-1.619-1.316-2.936-2.936-2.936
				c-1.617,0-2.936,1.316-2.936,2.936C38.752,25.666,40.07,26.982,41.688,26.982z"/>
		</g>
	</g>
	<g>
		<g>
			<circle fill="#FFFFFF" cx="77.058" cy="24.049" r="23.112"/>
			<path fill="#040404" d="M77.059,0c6.424,0,12.463,2.502,17.004,7.043c4.543,4.543,7.045,10.582,7.045,17.006
				s-2.502,12.463-7.045,17.004c-4.541,4.543-10.58,7.045-17.004,7.045s-12.463-2.502-17.006-7.045
				c-4.541-4.541-7.043-10.58-7.043-17.004s2.502-12.463,7.043-17.006C64.596,2.502,70.635,0,77.059,0z M77.059,46.225
				c12.227,0,22.176-9.949,22.176-22.176c0-12.229-9.949-22.176-22.176-22.176c-12.229,0-22.176,9.947-22.176,22.176
				C54.883,36.275,64.83,46.225,77.059,46.225z"/>
		</g>
		<g>
			<circle fill="#FFFFFF" cx="77.059" cy="24.049" r="16.748"/>
			<path fill="#040404" d="M77.059,6.363c4.723,0,9.164,1.84,12.504,5.18c3.34,3.342,5.18,7.781,5.18,12.506
				c0,4.723-1.84,9.164-5.18,12.504s-7.781,5.18-12.504,5.18c-4.725,0-9.166-1.84-12.506-5.18s-5.18-7.781-5.18-12.504
				c0-4.725,1.84-9.164,5.18-12.506C67.893,8.203,72.334,6.363,77.059,6.363z M77.059,39.859c8.719,0,15.811-7.092,15.811-15.811
				S85.777,8.236,77.059,8.236S61.246,15.33,61.246,24.049S68.34,39.859,77.059,39.859z"/>
		</g>
		<g>
			<circle fill="#FFFFFF" cx="77.059" cy="24.049" r="10.338"/>
			<path fill="#040404" d="M77.059,12.773c6.217,0,11.273,5.059,11.273,11.275s-5.057,11.273-11.273,11.273
				s-11.275-5.057-11.275-11.273S70.842,12.773,77.059,12.773z M77.059,33.451c5.184,0,9.402-4.219,9.402-9.402
				c0-5.186-4.219-9.402-9.402-9.402c-5.186,0-9.402,4.217-9.402,9.402C67.656,29.232,71.873,33.451,77.059,33.451z"/>
		</g>
		<g>
			<circle fill="#FFFFFF" cx="77.059" cy="24.049" r="3.871"/>
			<path fill="#040404" d="M77.059,19.24c2.65,0,4.807,2.156,4.807,4.809c0,2.65-2.156,4.807-4.807,4.807s-4.809-2.156-4.809-4.807
				C72.25,21.396,74.408,19.24,77.059,19.24z M77.059,26.982c1.617,0,2.934-1.316,2.934-2.934c0-1.619-1.316-2.936-2.934-2.936
				c-1.619,0-2.936,1.316-2.936,2.936C74.123,25.666,75.439,26.982,77.059,26.982z"/>
		</g>
	</g>
	<g>
		<g>
			<circle fill="#FFFFFF" cx="112.429" cy="24.049" r="23.112"/>
			<path fill="#040404" d="M112.428,0c6.424,0,12.463,2.502,17.006,7.043c4.541,4.543,7.043,10.582,7.043,17.006
				s-2.502,12.463-7.043,17.004c-4.543,4.543-10.582,7.045-17.006,7.045s-12.463-2.502-17.004-7.045
				c-4.543-4.541-7.045-10.58-7.045-17.004s2.502-12.463,7.045-17.006C99.965,2.502,106.004,0,112.428,0z M112.428,46.225
				c12.229,0,22.176-9.949,22.176-22.176c0-12.229-9.947-22.176-22.176-22.176c-12.227,0-22.176,9.947-22.176,22.176
				C90.252,36.275,100.201,46.225,112.428,46.225z"/>
		</g>
		<g>
			<circle fill="#FFFFFF" cx="112.428" cy="24.049" r="16.748"/>
			<path fill="#040404" d="M112.428,6.363c4.725,0,9.164,1.84,12.506,5.18c3.34,3.342,5.18,7.781,5.18,12.506
				c0,4.723-1.84,9.164-5.18,12.504c-3.342,3.34-7.781,5.18-12.506,5.18c-4.723,0-9.164-1.84-12.504-5.18s-5.18-7.781-5.18-12.504
				c0-4.725,1.84-9.164,5.18-12.506C103.264,8.203,107.705,6.363,112.428,6.363z M112.428,39.859
				c8.719,0,15.813-7.092,15.813-15.811s-7.094-15.813-15.813-15.813S96.617,15.33,96.617,24.049S103.709,39.859,112.428,39.859z"/>
		</g>
		<g>
			<circle fill="#FFFFFF" cx="112.428" cy="24.049" r="10.338"/>
			<path fill="#040404" d="M112.428,12.773c6.217,0,11.275,5.059,11.275,11.275s-5.059,11.273-11.275,11.273
				s-11.273-5.057-11.273-11.273S106.211,12.773,112.428,12.773z M112.428,33.451c5.186,0,9.402-4.219,9.402-9.402
				c0-5.186-4.217-9.402-9.402-9.402c-5.184,0-9.402,4.217-9.402,9.402C103.025,29.232,107.244,33.451,112.428,33.451z"/>
		</g>
		<g>
			<circle fill="#FFFFFF" cx="112.428" cy="24.049" r="3.871"/>
			<path fill="#040404" d="M112.428,19.24c2.65,0,4.809,2.156,4.809,4.809c0,2.65-2.158,4.807-4.809,4.807s-4.807-2.156-4.807-4.807
				C107.621,21.396,109.777,19.24,112.428,19.24z M112.428,26.982c1.619,0,2.936-1.316,2.936-2.934c0-1.619-1.316-2.936-2.936-2.936
				c-1.617,0-2.936,1.316-2.936,2.936C109.492,25.666,110.811,26.982,112.428,26.982z"/>
		</g>
	</g>
	<g>
		<g>
			<circle fill="#FFFFFF" cx="147.798" cy="24.048" r="23.112"/>
			<path fill="#040404" d="M147.799,0c6.424,0,12.463,2.501,17.004,7.042c4.543,4.543,7.045,10.582,7.045,17.006
				s-2.502,12.463-7.045,17.005c-4.541,4.542-10.58,7.045-17.004,7.045s-12.463-2.502-17.006-7.045
				c-4.541-4.541-7.043-10.58-7.043-17.004s2.502-12.463,7.043-17.006C135.336,2.502,141.375,0,147.799,0z M147.799,46.225
				c12.227-0.001,22.176-9.949,22.176-22.177c0-12.229-9.949-22.176-22.176-22.175c-12.229,0-22.176,9.947-22.176,22.176
				C125.623,36.275,135.57,46.225,147.799,46.225z"/>
		</g>
		<g>
			<circle fill="#FFFFFF" cx="147.799" cy="24.048" r="16.748"/>
			<path fill="#040404" d="M147.799,6.363c4.723,0,9.164,1.84,12.504,5.18c3.34,3.341,5.18,7.78,5.18,12.505
				c0,4.724-1.84,9.164-5.18,12.504c-3.34,3.341-7.781,5.181-12.504,5.181c-4.725,0-9.166-1.84-12.506-5.18s-5.18-7.781-5.18-12.504
				c0-4.725,1.84-9.164,5.18-12.506C138.633,8.203,143.074,6.363,147.799,6.363z M147.799,39.859
				c8.719,0,15.811-7.093,15.811-15.812s-7.092-15.812-15.811-15.812s-15.813,7.094-15.813,15.813S139.08,39.859,147.799,39.859z"/>
		</g>
		<g>
			<circle fill="#FFFFFF" cx="147.799" cy="24.049" r="10.338"/>
			<path fill="#040404" d="M147.799,12.773c6.217,0,11.273,5.058,11.273,11.274s-5.057,11.274-11.273,11.274
				s-11.275-5.057-11.275-11.273S141.582,12.773,147.799,12.773z M147.799,33.451c5.184,0,9.402-4.219,9.402-9.402
				c0-5.186-4.219-9.402-9.402-9.402c-5.186,0-9.402,4.217-9.402,9.402C138.396,29.232,142.613,33.451,147.799,33.451z"/>
		</g>
		<g>
			<circle fill="#FFFFFF" cx="147.799" cy="24.049" r="3.871"/>
			<path fill="#040404" d="M147.799,19.24c2.65,0,4.807,2.156,4.807,4.809c0,2.65-2.156,4.807-4.807,4.807s-4.809-2.156-4.809-4.807
				C142.99,21.396,145.148,19.24,147.799,19.24z M147.799,26.982c1.617,0,2.934-1.316,2.934-2.934c0-1.619-1.316-2.936-2.934-2.936
				c-1.619,0-2.936,1.316-2.936,2.936C144.863,25.666,146.18,26.982,147.799,26.982z"/>
		</g>
	</g>
	<g>
		<g>
			<circle fill="#FFFFFF" cx="165.343" cy="52.904" r="23.112"/>
			<path fill="#040404" d="M165.342,28.855c6.424,0,12.465,2.501,17.006,7.044c4.543,4.541,7.043,10.581,7.043,17.004
				c0,6.424-2.5,12.464-7.043,17.006c-4.541,4.542-10.582,7.043-17.006,7.043c-6.422,0-12.463-2.501-17.004-7.042
				c-4.543-4.543-7.043-10.582-7.043-17.006s2.5-12.463,7.043-17.004C152.879,31.357,158.92,28.855,165.342,28.855z M165.342,75.079
				c12.229,0,22.178-9.947,22.178-22.176c0-12.227-9.949-22.176-22.178-22.176c-12.227,0.001-22.176,9.95-22.176,22.177
				C143.166,65.133,153.115,75.08,165.342,75.079z"/>
		</g>
		<g>
			<circle fill="#FFFFFF" cx="165.342" cy="52.904" r="16.748"/>
			<path fill="#040404" d="M165.342,35.22c4.725,0,9.166,1.839,12.506,5.18c3.34,3.34,5.18,7.781,5.18,12.504
				c0,4.725-1.84,9.165-5.18,12.506c-3.34,3.34-7.781,5.18-12.506,5.18c-4.723,0-9.164-1.839-12.504-5.179
				c-3.34-3.342-5.18-7.781-5.18-12.506c0-4.723,1.84-9.164,5.18-12.504C156.178,37.059,160.619,35.22,165.342,35.22z
				 M165.342,68.716c8.719,0,15.813-7.094,15.813-15.813c0-8.718-7.094-15.811-15.813-15.811
				c-8.717,0.001-15.811,7.093-15.811,15.812S156.625,68.717,165.342,68.716z"/>
		</g>
		<g>
			<circle fill="#FFFFFF" cx="165.343" cy="52.904" r="10.339"/>
			<path fill="#040404" d="M165.342,41.629c6.217,0,11.275,5.058,11.275,11.274c0,6.218-5.059,11.275-11.275,11.275
				s-11.273-5.058-11.273-11.274S159.125,41.629,165.342,41.629z M165.342,62.306c5.186,0,9.402-4.217,9.402-9.402
				c0-5.184-4.217-9.401-9.402-9.401c-5.184,0-9.4,4.219-9.4,9.402C155.941,58.09,160.158,62.306,165.342,62.306z"/>
		</g>
		<g>
			<circle fill="#FFFFFF" cx="165.343" cy="52.903" r="3.872"/>
			<path fill="#040404" d="M165.342,48.097c2.652,0,4.809,2.156,4.809,4.807c0,2.651-2.156,4.809-4.809,4.809
				c-2.65,0-4.807-2.157-4.807-4.809C160.535,50.253,162.691,48.097,165.342,48.097z M165.342,55.839
				c1.619,0,2.936-1.316,2.936-2.936c0-1.617-1.316-2.935-2.936-2.935c-1.617,0-2.934,1.317-2.934,2.935
				C162.408,54.522,163.725,55.839,165.342,55.839z"/>
		</g>
	</g>
	<g>
		<g>
			<circle fill="#FFFFFF" cx="130.02" cy="52.904" r="23.113"/>
			<path fill="#040404" d="M130.02,28.855c6.424,0,12.463,2.502,17.006,7.045c4.541,4.541,7.043,10.58,7.043,17.004
				s-2.502,12.463-7.043,17.006c-4.543,4.541-10.582,7.043-17.006,7.043s-12.463-2.502-17.006-7.043
				c-4.541-4.543-7.043-10.582-7.043-17.006s2.502-12.463,7.043-17.004C117.557,31.357,123.596,28.855,130.02,28.855z M130.02,75.08
				c12.229,0,22.176-9.947,22.176-22.176c0-12.227-9.947-22.176-22.176-22.176s-22.176,9.949-22.176,22.176
				C107.844,65.133,117.791,75.08,130.02,75.08z"/>
		</g>
		<g>
			<circle fill="#FFFFFF" cx="130.02" cy="52.904" r="16.748"/>
			<path fill="#040404" d="M130.02,35.221c4.723,0,9.164,1.838,12.504,5.18c3.342,3.34,5.182,7.781,5.182,12.504
				c0,4.725-1.84,9.164-5.182,12.506c-3.34,3.34-7.781,5.18-12.504,5.18c-4.725,0-9.164-1.84-12.504-5.18
				c-3.342-3.342-5.182-7.781-5.182-12.506c0-4.723,1.84-9.164,5.182-12.504C120.855,37.059,125.295,35.221,130.02,35.221z
				 M130.02,68.717c8.719,0,15.811-7.094,15.811-15.813s-7.092-15.811-15.811-15.811s-15.811,7.092-15.811,15.811
				S121.301,68.717,130.02,68.717z"/>
		</g>
		<g>
			<circle fill="#FFFFFF" cx="130.02" cy="52.904" r="10.338"/>
			<path fill="#040404" d="M130.02,41.629c6.217,0,11.275,5.059,11.275,11.275S136.236,64.18,130.02,64.18
				s-11.275-5.059-11.275-11.275S123.803,41.629,130.02,41.629z M130.02,62.307c5.184,0,9.402-4.217,9.402-9.402
				c0-5.184-4.219-9.402-9.402-9.402s-9.402,4.219-9.402,9.402C120.617,58.09,124.836,62.307,130.02,62.307z"/>
		</g>
		<g>
			<circle fill="#FFFFFF" cx="130.02" cy="52.904" r="3.871"/>
			<path fill="#040404" d="M130.02,48.098c2.65,0,4.809,2.156,4.809,4.807s-2.158,4.809-4.809,4.809s-4.809-2.158-4.809-4.809
				S127.369,48.098,130.02,48.098z M130.02,55.84c1.619,0,2.934-1.316,2.934-2.936c0-1.617-1.314-2.936-2.934-2.936
				s-2.936,1.318-2.936,2.936C127.084,54.523,128.4,55.84,130.02,55.84z"/>
		</g>
	</g>
	<g>
		<g>
			<circle fill="#FFFFFF" cx="94.696" cy="52.904" r="23.112"/>
			<path fill="#040404" d="M94.695,28.855c6.424,0,12.465,2.502,17.006,7.045c4.543,4.541,7.043,10.58,7.043,17.004
				s-2.5,12.463-7.043,17.006c-4.541,4.541-10.582,7.043-17.006,7.043c-6.422,0-12.463-2.502-17.004-7.043
				c-4.543-4.543-7.043-10.582-7.043-17.006s2.5-12.463,7.043-17.004C82.232,31.357,88.273,28.855,94.695,28.855z M94.695,75.08
				c12.229,0,22.178-9.947,22.178-22.176c0-12.227-9.949-22.176-22.178-22.176c-12.227,0-22.176,9.949-22.176,22.176
				C72.52,65.133,82.469,75.08,94.695,75.08z"/>
		</g>
		<g>
			<circle fill="#FFFFFF" cx="94.695" cy="52.904" r="16.748"/>
			<path fill="#040404" d="M94.695,35.221c4.725,0,9.166,1.838,12.506,5.18c3.34,3.34,5.18,7.781,5.18,12.504
				c0,4.725-1.84,9.164-5.18,12.506c-3.34,3.34-7.781,5.18-12.506,5.18c-4.723,0-9.164-1.84-12.504-5.18
				c-3.34-3.342-5.18-7.781-5.18-12.506c0-4.723,1.84-9.164,5.18-12.504C85.531,37.059,89.973,35.221,94.695,35.221z M94.695,68.717
				c8.719,0,15.813-7.094,15.813-15.813s-7.094-15.811-15.813-15.811c-8.717,0-15.811,7.092-15.811,15.811
				S85.979,68.717,94.695,68.717z"/>
		</g>
		<g>
			<circle fill="#FFFFFF" cx="94.696" cy="52.904" r="10.339"/>
			<path fill="#040404" d="M94.695,41.629c6.217,0,11.275,5.059,11.275,11.275S100.912,64.18,94.695,64.18
				s-11.273-5.059-11.273-11.275S88.479,41.629,94.695,41.629z M94.695,62.307c5.186,0,9.402-4.217,9.402-9.402
				c0-5.184-4.217-9.402-9.402-9.402c-5.184,0-9.4,4.219-9.4,9.402C85.295,58.09,89.512,62.307,94.695,62.307z"/>
		</g>
		<g>
			<circle fill="#FFFFFF" cx="94.696" cy="52.904" r="3.872"/>
			<path fill="#040404" d="M94.695,48.098c2.652,0,4.809,2.156,4.809,4.807s-2.156,4.809-4.809,4.809
				c-2.65,0-4.807-2.158-4.807-4.809S92.045,48.098,94.695,48.098z M94.695,55.84c1.619,0,2.936-1.316,2.936-2.936
				c0-1.617-1.316-2.936-2.936-2.936c-1.617,0-2.934,1.318-2.934,2.936C91.762,54.523,93.078,55.84,94.695,55.84z"/>
		</g>
	</g>
	<g>
		<g>
			<circle fill="#FFFFFF" cx="59.373" cy="52.904" r="23.113"/>
			<path fill="#040404" d="M59.373,28.855c6.424,0,12.463,2.502,17.006,7.045c4.541,4.541,7.043,10.58,7.043,17.004
				S80.92,65.367,76.379,69.91c-4.543,4.541-10.582,7.043-17.006,7.043S46.91,74.451,42.367,69.91
				c-4.541-4.543-7.043-10.582-7.043-17.006s2.502-12.463,7.043-17.004C46.91,31.357,52.949,28.855,59.373,28.855z M59.373,75.08
				c12.229,0,22.176-9.947,22.176-22.176c0-12.227-9.947-22.176-22.176-22.176s-22.176,9.949-22.176,22.176
				C37.197,65.133,47.145,75.08,59.373,75.08z"/>
		</g>
		<g>
			<circle fill="#FFFFFF" cx="59.373" cy="52.904" r="16.748"/>
			<path fill="#040404" d="M59.373,35.221c4.723,0,9.164,1.838,12.504,5.18c3.342,3.34,5.182,7.781,5.182,12.504
				c0,4.725-1.84,9.164-5.182,12.506c-3.34,3.34-7.781,5.18-12.504,5.18c-4.725,0-9.164-1.84-12.504-5.18
				c-3.342-3.342-5.182-7.781-5.182-12.506c0-4.723,1.84-9.164,5.182-12.504C50.209,37.059,54.648,35.221,59.373,35.221z
				 M59.373,68.717c8.719,0,15.811-7.094,15.811-15.813s-7.092-15.811-15.811-15.811s-15.811,7.092-15.811,15.811
				S50.654,68.717,59.373,68.717z"/>
		</g>
		<g>
			<circle fill="#FFFFFF" cx="59.373" cy="52.904" r="10.338"/>
			<path fill="#040404" d="M59.373,41.629c6.217,0,11.275,5.059,11.275,11.275S65.59,64.18,59.373,64.18
				s-11.275-5.059-11.275-11.275S53.156,41.629,59.373,41.629z M59.373,62.307c5.184,0,9.402-4.217,9.402-9.402
				c0-5.184-4.219-9.402-9.402-9.402s-9.402,4.219-9.402,9.402C49.971,58.09,54.189,62.307,59.373,62.307z"/>
		</g>
		<g>
			<circle fill="#FFFFFF" cx="59.373" cy="52.904" r="3.871"/>
			<path fill="#040404" d="M59.373,48.098c2.65,0,4.809,2.156,4.809,4.807s-2.158,4.809-4.809,4.809s-4.809-2.158-4.809-4.809
				S56.723,48.098,59.373,48.098z M59.373,55.84c1.619,0,2.934-1.316,2.934-2.936c0-1.617-1.314-2.936-2.934-2.936
				s-2.936,1.318-2.936,2.936C56.438,54.523,57.754,55.84,59.373,55.84z"/>
		</g>
	</g>
	<g>
		<g>
			<circle fill="#FFFFFF" cx="24.05" cy="52.904" r="23.112"/>
			<path fill="#040404" d="M24.049,28.855c6.424,0,12.465,2.502,17.006,7.045c4.543,4.541,7.043,10.58,7.043,17.004
				s-2.5,12.463-7.043,17.006c-4.541,4.541-10.582,7.043-17.006,7.043c-6.422,0-12.463-2.502-17.004-7.043
				C2.502,65.367,0,59.328,0,52.904S2.502,40.441,7.045,35.9C11.586,31.357,17.627,28.855,24.049,28.855z M24.049,75.08
				c12.229,0,22.178-9.947,22.178-22.176c0-12.227-9.949-22.176-22.178-22.176c-12.227,0-22.176,9.949-22.176,22.176
				C1.873,65.133,11.822,75.08,24.049,75.08z"/>
		</g>
		<g>
			<circle fill="#FFFFFF" cx="24.049" cy="52.904" r="16.748"/>
			<path fill="#040404" d="M24.049,35.221c4.725,0,9.166,1.838,12.506,5.18c3.34,3.34,5.18,7.781,5.18,12.504
				c0,4.725-1.84,9.164-5.18,12.506c-3.34,3.34-7.781,5.18-12.506,5.18c-4.723,0-9.164-1.84-12.504-5.18
				c-3.34-3.342-5.18-7.781-5.18-12.506c0-4.723,1.84-9.164,5.18-12.504C14.885,37.059,19.326,35.221,24.049,35.221z M24.049,68.717
				c8.719,0,15.813-7.094,15.813-15.813s-7.094-15.811-15.813-15.811c-8.717,0-15.811,7.092-15.811,15.811
				S15.332,68.717,24.049,68.717z"/>
		</g>
		<g>
			<circle fill="#FFFFFF" cx="24.05" cy="52.904" r="10.339"/>
			<path fill="#040404" d="M24.049,41.629c6.217,0,11.275,5.059,11.275,11.275S30.266,64.18,24.049,64.18
				s-11.273-5.059-11.273-11.275S17.832,41.629,24.049,41.629z M24.049,62.307c5.186,0,9.402-4.217,9.402-9.402
				c0-5.184-4.217-9.402-9.402-9.402c-5.184,0-9.4,4.219-9.4,9.402C14.648,58.09,18.865,62.307,24.049,62.307z"/>
		</g>
		<g>
			<circle fill="#FFFFFF" cx="24.05" cy="52.904" r="3.872"/>
			<path fill="#040404" d="M24.049,48.098c2.652,0,4.809,2.156,4.809,4.807s-2.156,4.809-4.809,4.809
				c-2.65,0-4.807-2.158-4.807-4.809S21.398,48.098,24.049,48.098z M24.049,55.84c1.619,0,2.936-1.316,2.936-2.936
				c0-1.617-1.316-2.936-2.936-2.936c-1.617,0-2.934,1.318-2.934,2.936C21.115,54.523,22.432,55.84,24.049,55.84z"/>
		</g>
	</g>
</g>
</svg>
