<?xml version="1.0" encoding="utf-8"?>
<!-- Generator: Adobe Illustrator 16.0.3, SVG Export Plug-In . SVG Version: 6.00 Build 0)  -->
<!DOCTYPE svg PUBLIC "-//W3C//DTD SVG 1.1//EN" "http://www.w3.org/Graphics/SVG/1.1/DTD/svg11.dtd">
<svg version="1.1" id="Capa_1" xmlns="http://www.w3.org/2000/svg" xmlns:xlink="http://www.w3.org/1999/xlink" x="0px" y="0px"
	 width="92.049px" height="347px" viewBox="0 0 92.049 347" enable-background="new 0 0 92.049 347" xml:space="preserve">
<g>
	<g>
		<polygon fill="#F0D310" points="79.479,-3.76 6.396,178.507 42.938,173.36 11.836,307.398 5.146,298.135 0,347 38.084,309.457 
			26.246,309.972 79.479,145.569 39.334,156.62 		"/>
		<polygon fill="#EDAB15" points="79.479,-3.76 33.662,157.933 39.334,156.62 		"/>
		<polygon fill="#EDAB15" points="42.938,173.36 6.396,178.507 44.951,165.38 		"/>
		<polygon fill="#EDAB15" points="79.479,145.569 20.809,310.211 26.246,309.972 		"/>
		<polygon fill="#EDAB15" points="38.084,309.457 0.758,339.801 0,347 		"/>
	</g>
	<g>
		<rect x="9.367" fill="#4D4D4D" width="82.682" height="39.413"/>
		<circle fill="#ED9513" cx="50.708" cy="19.707" r="3.663"/>
		<circle fill="#ED9513" cx="28.337" cy="19.707" r="3.663"/>
		<circle fill="#ED9513" cx="73.571" cy="19.707" r="3.663"/>
		<polygon fill="#333333" points="9.367,39.413 5.408,36.609 5.408,0 9.367,0 		"/>
		<rect x="28.336" y="38.413" fill="#333333" width="45.236" height="6.529"/>
	</g>
</g>
</svg>
