<?xml version="1.0" encoding="utf-8"?>
<!-- Generator: Adobe Illustrator 16.0.3, SVG Export Plug-In . SVG Version: 6.00 Build 0)  -->
<!DOCTYPE svg PUBLIC "-//W3C//DTD SVG 1.1//EN" "http://www.w3.org/Graphics/SVG/1.1/DTD/svg11.dtd">
<svg version="1.1" id="Capa_1" xmlns="http://www.w3.org/2000/svg" xmlns:xlink="http://www.w3.org/1999/xlink" x="0px" y="0px"
	 width="91.728px" height="318.646px" viewBox="0 0 91.728 318.646" enable-background="new 0 0 91.728 318.646"
	 xml:space="preserve">
<g>
	<g>
		<polygon fill="#F0D310" points="52.595,285.572 27.675,279.822 53.648,138.703 22.34,148.287 75.275,22.24 66.441,22.24 91.728,0 
			90.205,32.902 83.197,24.373 48.533,122.455 78.687,108.441 		"/>
		<polygon fill="#EDAB15" points="91.728,0 87.587,29.716 90.205,32.902 		"/>
		<polygon fill="#EDAB15" points="83.197,24.373 43.32,124.764 48.533,122.455 		"/>
		<polygon fill="#EDAB15" points="22.34,148.287 54.482,133.534 53.648,138.703 		"/>
		<polygon fill="#EDAB15" points="78.687,108.441 46.384,284.14 52.595,285.572 		"/>
	</g>
	<g>
		<rect y="279.232" fill="#4D4D4D" width="82.679" height="39.413"/>
		<circle fill="#ED9513" cx="41.34" cy="298.938" r="3.663"/>
		<circle fill="#ED9513" cx="63.711" cy="298.938" r="3.663"/>
		<circle fill="#ED9513" cx="18.476" cy="298.938" r="3.663"/>
		<polygon fill="#333333" points="82.679,279.232 86.64,282.036 86.64,318.646 82.679,318.646 		"/>
		<rect x="18.477" y="273.704" fill="#333333" width="45.234" height="6.528"/>
	</g>
</g>
</svg>
