<?xml version="1.0" encoding="utf-8"?>
<!-- Generator: Adobe Illustrator 16.0.3, SVG Export Plug-In . SVG Version: 6.00 Build 0)  -->
<!DOCTYPE svg PUBLIC "-//W3C//DTD SVG 1.1//EN" "http://www.w3.org/Graphics/SVG/1.1/DTD/svg11.dtd">
<svg version="1.1" id="Capa_1" xmlns="http://www.w3.org/2000/svg" xmlns:xlink="http://www.w3.org/1999/xlink" x="0px" y="0px"
	 width="318.646px" height="91.729px" viewBox="0 0 318.646 91.729" enable-background="new 0 0 318.646 91.729"
	 xml:space="preserve">
<g>
	<g>
		<polygon fill="#F0D310" points="285.572,39.133 279.822,64.053 138.703,38.08 148.287,69.389 22.24,16.453 22.24,25.287 0,0 
			32.902,1.523 24.373,8.531 122.455,43.195 108.441,13.041 		"/>
		<polygon fill="#EDAB15" points="0,0 29.717,4.141 32.902,1.523 		"/>
		<polygon fill="#EDAB15" points="24.373,8.531 124.764,48.408 122.455,43.195 		"/>
		<polygon fill="#EDAB15" points="148.287,69.389 133.535,37.246 138.703,38.08 		"/>
		<polygon fill="#EDAB15" points="108.441,13.041 284.141,45.344 285.572,39.133 		"/>
	</g>
	<g>
		<rect x="279.232" y="9.049" fill="#4D4D4D" width="39.414" height="82.68"/>
		<circle fill="#ED9513" cx="298.939" cy="50.388" r="3.663"/>
		<circle fill="#ED9513" cx="298.939" cy="28.017" r="3.663"/>
		<circle fill="#ED9513" cx="298.939" cy="73.253" r="3.663"/>
		<polygon fill="#333333" points="279.232,9.049 282.037,5.088 318.646,5.088 318.646,9.049 		"/>
		<rect x="273.705" y="28.018" fill="#333333" width="6.527" height="45.234"/>
	</g>
</g>
</svg>
