<?xml version="1.0" encoding="utf-8"?>
<!-- Generator: Adobe Illustrator 16.0.3, SVG Export Plug-In . SVG Version: 6.00 Build 0)  -->
<!DOCTYPE svg PUBLIC "-//W3C//DTD SVG 1.1//EN" "http://www.w3.org/Graphics/SVG/1.1/DTD/svg11.dtd">
<svg version="1.1" id="Capa_1" xmlns="http://www.w3.org/2000/svg" xmlns:xlink="http://www.w3.org/1999/xlink" x="0px" y="0px"
	 width="318.646px" height="91.729px" viewBox="0 0 318.646 91.729" enable-background="new 0 0 318.646 91.729"
	 xml:space="preserve">
<g>
	<g>
		<polygon fill="#F0D310" points="33.073,52.596 38.823,27.676 179.942,53.648 170.358,22.34 296.405,75.275 296.405,66.441 
			318.646,91.729 285.743,90.205 294.272,83.197 196.19,48.533 210.204,78.688 		"/>
		<polygon fill="#EDAB15" points="318.646,91.729 288.93,87.588 285.743,90.205 		"/>
		<polygon fill="#EDAB15" points="294.272,83.197 193.882,43.32 196.19,48.533 		"/>
		<polygon fill="#EDAB15" points="170.358,22.34 185.111,54.482 179.942,53.648 		"/>
		<polygon fill="#EDAB15" points="210.204,78.688 34.506,46.385 33.073,52.596 		"/>
	</g>
	<g>
		<rect fill="#4D4D4D" width="39.413" height="82.68"/>
		<circle fill="#ED9513" cx="19.707" cy="41.341" r="3.663"/>
		<circle fill="#ED9513" cx="19.707" cy="63.712" r="3.663"/>
		<circle fill="#ED9513" cx="19.707" cy="18.476" r="3.663"/>
		<polygon fill="#333333" points="39.413,82.68 36.609,86.641 0,86.641 0,82.68 		"/>
		<rect x="38.413" y="18.477" fill="#333333" width="6.528" height="45.234"/>
	</g>
</g>
</svg>
