<?xml version="1.0" encoding="utf-8"?>
<!-- Generator: Adobe Illustrator 16.0.3, SVG Export Plug-In . SVG Version: 6.00 Build 0)  -->
<!DOCTYPE svg PUBLIC "-//W3C//DTD SVG 1.1//EN" "http://www.w3.org/Graphics/SVG/1.1/DTD/svg11.dtd">
<svg version="1.1" id="Capa_1" xmlns="http://www.w3.org/2000/svg" xmlns:xlink="http://www.w3.org/1999/xlink" x="0px" y="0px"
	 width="101.457px" height="347.541px" viewBox="0 0 101.457 347.541" enable-background="new 0 0 101.457 347.541"
	 xml:space="preserve">
<g>
	<g>
		<polygon fill="#F0D310" points="21.977,-3.219 95.059,179.048 58.518,173.901 89.619,307.939 96.311,298.676 101.457,347.541 
			63.373,309.998 75.209,310.513 21.977,146.11 62.121,157.161 		"/>
		<polygon fill="#EDAB15" points="21.977,-3.219 95.059,179.048 87.049,177.919 		"/>
		<polygon fill="#EDAB15" points="21.977,146.11 64.664,163.06 62.121,157.161 		"/>
		<polygon fill="#EDAB15" points="58.518,173.901 85.934,312.586 89.619,307.939 		"/>
		<polygon fill="#EDAB15" points="96.311,298.676 96.311,342.468 101.457,347.541 		"/>
	</g>
	<g>
		<rect x="3.961" fill="#4D4D4D" width="82.68" height="39.413"/>
		<circle fill="#ED9513" cx="45.3" cy="19.707" r="3.663"/>
		<circle fill="#ED9513" cx="22.929" cy="19.707" r="3.663"/>
		<circle fill="#ED9513" cx="68.163" cy="19.707" r="3.663"/>
		<polygon fill="#333333" points="3.961,39.413 0,36.61 0,0 3.961,0 		"/>
		<rect x="22.928" y="38.413" fill="#333333" width="45.236" height="6.529"/>
	</g>
</g>
</svg>
