<?xml version="1.0" encoding="utf-8"?>
<!-- Generator: Adobe Illustrator 16.0.3, SVG Export Plug-In . SVG Version: 6.00 Build 0)  -->
<!DOCTYPE svg PUBLIC "-//W3C//DTD SVG 1.1//EN" "http://www.w3.org/Graphics/SVG/1.1/DTD/svg11.dtd">
<svg version="1.1" id="Capa_1" xmlns="http://www.w3.org/2000/svg" xmlns:xlink="http://www.w3.org/1999/xlink" x="0px" y="0px"
	 width="381.988px" height="96.988px" viewBox="0 0 381.988 96.988" enable-background="new 0 0 381.988 96.988"
	 xml:space="preserve">
<g>
	<g>
		<path fill-rule="evenodd" clip-rule="evenodd" fill="#D12222" d="M0,32.213c6.871-4.26,16.727-2.398,22.02,4.234
			c1.749,2.191,3.127,4.771,4.222,7.365c1.345,3.184,2.934,5.863,6.703,6.244c3.018,0.305,5.225-1.398,7.309-5.381
			c0.533,4.457-3.056,11.225-8.604,12.963c-5.731,1.795-10.737-0.336-15.134-7.059c0.239,1.111,0.302,1.662,0.476,2.174
			c3.776,11.127,14.036,18.559,25.113,17.691c9.936-0.777,16.682-6.525,20.763-15.275c1.574-3.377,2.307-7.223,2.958-10.936
			c1.133-6.457,5.974-10.625,11.659-9.389c1.56,0.338,3.095,1.217,4.417,2.16c7.122,5.09,13.178,4.779,19.713-1.047
			c4.019-3.582,7.865-7.434,12.24-10.525c11.804-8.344,27.309-7.744,38.768,1.168c4.105,3.193,8.316,6.145,13.639,6.82
			c9.062,1.152,16.536-1.984,22.409-8.826c3.382-3.939,7.07-7.264,12.258-8.518c0.504-0.121,1.028-0.156,1.609-0.105
			c-3.096,1.713-5.504,4.021-6.912,7.271c-1.101,2.541-0.439,4.633,1.924,6.107c5.759,3.596,13.176,2.477,18.354-2.426
			c3.137-2.971,6.384-5.973,10.042-8.209c5.544-3.389,11.766-3.941,18.129-2.459c2.128,0.498,4.273,0.924,7.016,1.512
			c-2.04,0.244-3.48,0.434-4.926,0.584c-1.712,0.18-2.533,1.188-2.628,2.826c-0.098,1.68,0.825,2.678,2.348,3.146
			c4.792,1.475,9.427,1.006,13.742-1.506c2.456-1.428,4.61-3.393,7.106-4.729c2.203-1.18,4.628-2.193,7.07-2.631
			c5.857-1.051,10.582,0.811,13.695,6.189c2.664,4.604,6.264,8.34,11.036,10.795c5.757,2.963,10.467,1.85,14.451-3.287
			c0.175-0.225,0.39-0.42,0.586-0.629c0.235,0.158,0.47,0.314,0.705,0.471c-1.468,2.197-2.594,4.754-4.462,6.529
			c-7.877,7.479-18.806,6.053-24.905-3.027c-0.971-1.445-1.772-3.037-2.91-4.336c-3.986-4.551-9.676-4.799-14.177-0.154
			c-6.858,7.076-15.129,7.945-24.133,6.354c-5.287-0.938-10.186-2.916-14.712-5.813c-1.536-0.982-3.137-1.82-4.698-0.131
			c-1.539,1.664-1.258,3.438-0.103,5.223c2.218,3.426,5.269,5.609,9.386,6.754c-1.482,0.285-2.953,0.68-4.448,0.834
			c-6.197,0.633-12.163-0.217-17.817-2.945c-6.586-3.176-9.609-2.379-14.108,3.352c-0.702,0.895-2.341,1.809-3.266,1.58
			c-1.092-0.27-1.885-1.768-2.79-2.75c-0.088-0.096-0.034-0.311-0.073-0.463c-0.635-2.48-2.333-3.727-4.198-3.086
			c-1.875,0.645-2.808,2.994-2.055,5.18c1.239,3.602,6.345,7.178,10.425,7.096c2.367-0.047,4.724-0.48,7.093-0.635
			c4.69-0.309,9.126,0.65,13.322,2.795c6.605,3.375,7.533,3.424,14.72,0.908c-6.299,7.615-13.751,12.145-23.417,12.484
			c-11.589,0.41-20.315-4.738-27.257-13.74c-1.774-2.303-4.282-4.307-6.866-5.662c-5.312-2.785-10.445-1.586-15.103,1.947
			c-1.008,0.766-1.89,1.695-2.888,2.475c-4.467,3.496-9.035,3.166-13.287-0.482c-3.655-3.137-7.327-6.42-11.482-8.77
			c-10.308-5.832-20.257-4.223-28.543,4.287c-2.97,3.051-5.595,6.457-8.192,9.844c-2.382,3.104-4.307,3.906-7.98,2.783
			c-4.145-1.268-7.453,0.723-8.25,5c-0.202,1.088-0.304,2.199-0.382,3.305c-0.482,6.813-5.643,10.656-12.135,8.836
			c-6.333-1.773-12.444-1.334-18.234,1.699c-13.627,7.135-28.8,0.697-34.765-13.674c-2.432-5.859-2.891-11.916-2.14-18.203
			c0.287-2.414,0.052-5.148-0.837-7.383C7.203,33.482,4.116,31.867,0,32.213z"/>
		<path fill-rule="evenodd" clip-rule="evenodd" fill="#D12222" d="M232.178,57.371c4.692-7.582,10.01-14.496,19.889-15.34
			c2.017-0.172,4.488,0.537,6.167,1.691c5.082,3.49,6.435,3.912,12.202,2.242c-1.427,1.203-2.978,2.289-4.236,3.646
			c-0.78,0.842-1.458,2.07-1.53,3.168c-0.049,0.719,0.949,1.941,1.698,2.15c0.725,0.203,1.823-0.475,2.579-1.016
			c0.436-0.311,0.561-1.104,0.753-1.701c2.057-6.377,8.641-9.742,15.238-6.1c6.306,3.479,12.917,4.023,19.759,1.785
			c4.972-1.627,8.674-5.084,12.492-8.451c8.233-7.264,17.817-10.107,28.636-7.826c6.34,1.338,12.016,4.102,16.414,9.105
			c1.475,1.68,3.16,3.178,4.75,4.758c-0.164,0.201-0.33,0.402-0.494,0.605c-0.424-0.213-0.887-0.369-1.262-0.646
			c-10.789-7.996-22.906-2.912-28.424,5.021c-1.48,2.129-2.803,4.371-4.344,6.453c-5.703,7.711-16.156,10.547-25.152,7.182
			c-3.818-1.43-7.795-2.609-11.803-3.311c-4.455-0.777-8.892,0.215-12.913,2.246c-6.871,3.471-13.034,2.406-18.688-2.475
			c-4.975-4.297-10.721-6.543-17.214-7.322c-4.231-0.508-7.77,0.979-11.267,2.936c-0.958,0.537-1.9,1.105-2.851,1.658
			C232.444,57.678,232.312,57.525,232.178,57.371z"/>
		<path fill-rule="evenodd" clip-rule="evenodd" fill="#D12222" d="M117.011,72.709c-5.273-1.678-10.532-2.074-15.819-0.295
			c-6.735,2.27-11.384,6.889-14.828,12.992c-1.615,2.861-3.348,5.797-5.623,8.113c-2.863,2.916-6.71,3.939-11.422,3.273
			c4.767-2.039,8.056-5.021,9.67-9.447c0.83-2.277,1.255-4.736,1.593-7.15c0.828-5.928,4.676-9.496,10.686-9.695
			c3.246-0.107,4.649-1.629,4.568-5.281c-0.181-8.18,3.084-14.588,9.744-19.264c7.878-5.529,18.871-4.705,25.86,1.943
			c1.373,1.307,2.601,2.773,3.842,4.213c5.245,6.082,12.782,7.24,19.654,2.994c-2.095,3.209-7.989,6.227-12.894,6.66
			c-7.654,0.676-14.039-1.92-19.108-7.6c-2.639-2.957-5.489-5.213-9.668-4.018c-3.891,1.113-5.981,4.014-6.638,7.91
			c-0.756,4.48,0.738,8.115,4.482,10.736C113.043,70.148,115.042,71.406,117.011,72.709z"/>
	</g>
	<g>
		<rect x="342.574" y="3.959" fill="#4D4D4D" width="39.414" height="82.682"/>
		<circle fill="#D12222" cx="362.281" cy="45.3" r="3.663"/>
		<circle fill="#D12222" cx="362.281" cy="22.929" r="3.663"/>
		<circle fill="#D12222" cx="362.281" cy="68.163" r="3.663"/>
		<polygon fill="#333333" points="342.574,3.959 345.379,0 381.988,0 381.988,3.959 		"/>
		<rect x="337.047" y="22.928" fill="#333333" width="6.527" height="45.236"/>
	</g>
</g>
</svg>
