<?xml version="1.0" encoding="utf-8"?>
<!-- Generator: Adobe Illustrator 16.0.3, SVG Export Plug-In . SVG Version: 6.00 Build 0)  -->
<!DOCTYPE svg PUBLIC "-//W3C//DTD SVG 1.1//EN" "http://www.w3.org/Graphics/SVG/1.1/DTD/svg11.dtd">
<svg version="1.1" id="Capa_1" xmlns="http://www.w3.org/2000/svg" xmlns:xlink="http://www.w3.org/1999/xlink" x="0px" y="0px"
	 width="96.988px" height="341.987px" viewBox="0 0 96.988 341.987" enable-background="new 0 0 96.988 341.987"
	 xml:space="preserve">
<g>
	<g>
		<path fill-rule="evenodd" clip-rule="evenodd" fill="#D12222" d="M64.775,0c4.259,6.871,2.396,16.727-4.234,22.02
			c-2.191,1.749-4.773,3.127-7.367,4.222c-3.182,1.345-5.863,2.934-6.243,6.703c-0.304,3.018,1.398,5.225,5.383,7.309
			c-4.46,0.533-11.228-3.056-12.965-8.604c-1.794-5.731,0.337-10.737,7.06-15.134c-1.113,0.239-1.662,0.302-2.174,0.476
			c-11.129,3.776-18.56,14.036-17.693,25.113c0.778,9.935,6.526,16.682,15.277,20.764c3.376,1.573,7.223,2.306,10.936,2.957
			c6.457,1.133,10.624,5.974,9.389,11.659c-0.34,1.559-1.217,3.095-2.161,4.417c-5.089,7.122-4.778,13.178,1.047,19.713
			c3.583,4.019,7.435,7.865,10.526,12.24c8.343,11.804,7.744,27.309-1.169,38.768c-3.193,4.105-6.144,8.316-6.82,13.639
			c-1.152,9.062,1.984,16.535,8.826,22.409c3.94,3.382,7.265,7.069,8.518,12.258c0.122,0.504,0.155,1.028,0.106,1.608
			c-1.715-3.095-4.022-5.503-7.273-6.911c-2.539-1.101-4.633-0.439-6.106,1.924c-3.595,5.758-2.477,13.176,2.427,18.354
			c2.97,3.137,5.971,6.384,8.207,10.041c3.39,5.545,3.943,11.767,2.459,18.13c-0.496,2.128-0.922,4.272-1.51,7.016
			c-0.244-2.041-0.434-3.48-0.585-4.926c-0.18-1.713-1.187-2.533-2.827-2.628c-1.68-0.099-2.678,0.825-3.145,2.348
			c-1.476,4.792-1.007,9.427,1.505,13.741c1.429,2.456,3.393,4.611,4.729,7.108c1.18,2.202,2.194,4.627,2.631,7.069
			c1.05,5.857-0.812,10.582-6.189,13.695c-4.604,2.663-8.34,6.263-10.797,11.036c-2.961,5.756-1.849,10.467,3.289,14.451
			c0.225,0.174,0.419,0.39,0.628,0.586c-0.157,0.235-0.313,0.47-0.472,0.705c-2.196-1.469-4.754-2.594-6.527-4.463
			c-7.479-7.876-6.053-18.805,3.025-24.905c1.447-0.97,3.037-1.771,4.336-2.909c4.553-3.986,4.801-9.676,0.157-14.177
			c-7.077-6.858-7.947-15.129-6.354-24.133c0.936-5.288,2.914-10.186,5.813-14.712c0.982-1.536,1.818-3.137,0.13-4.698
			c-1.664-1.54-3.438-1.258-5.224-0.103c-3.424,2.218-5.609,5.268-6.752,9.386c-0.285-1.482-0.682-2.953-0.834-4.448
			c-0.635-6.197,0.217-12.163,2.944-17.817c3.177-6.586,2.379-9.609-3.351-14.108c-0.895-0.703-1.809-2.341-1.58-3.266
			c0.27-1.092,1.768-1.885,2.75-2.79c0.095-0.088,0.311-0.034,0.463-0.073c2.479-0.635,3.725-2.333,3.084-4.198
			c-0.643-1.875-2.994-2.808-5.178-2.056c-3.604,1.24-7.178,6.346-7.098,10.426c0.047,2.367,0.481,4.724,0.637,7.093
			c0.307,4.69-0.65,9.126-2.795,13.322c-3.376,6.605-3.424,7.533-0.908,14.72c-7.615-6.299-12.145-13.751-12.486-23.417
			c-0.408-11.589,4.74-20.315,13.742-27.257c2.302-1.774,4.307-4.282,5.661-6.866c2.785-5.312,1.587-10.445-1.948-15.103
			c-0.765-1.008-1.694-1.89-2.475-2.888c-3.494-4.467-3.166-9.035,0.484-13.288c3.135-3.654,6.418-7.326,8.77-11.482
			c5.832-10.307,4.221-20.256-4.286-28.542c-3.052-2.97-6.46-5.595-9.846-8.192c-3.104-2.382-3.906-4.307-2.782-7.98
			c1.266-4.145-0.722-7.453-5.002-8.25c-1.088-0.202-2.198-0.304-3.304-0.382c-6.813-0.482-10.656-5.643-8.837-12.135
			c1.775-6.333,1.335-12.444-1.697-18.235c-7.137-13.626-0.697-28.799,13.674-34.764c5.857-2.432,11.914-2.891,18.203-2.14
			c2.412,0.287,5.148,0.052,7.381-0.837C63.506,7.203,65.119,4.116,64.775,0z"/>
		<path fill-rule="evenodd" clip-rule="evenodd" fill="#D12222" d="M39.617,232.178c7.582,4.692,14.494,10.01,15.339,19.889
			c0.173,2.018-0.538,4.488-1.69,6.167c-3.491,5.082-3.913,6.435-2.244,12.202c-1.201-1.427-2.288-2.978-3.645-4.236
			c-0.842-0.78-2.07-1.458-3.17-1.53c-0.717-0.049-1.94,0.948-2.149,1.698c-0.202,0.725,0.476,1.823,1.015,2.579
			c0.313,0.436,1.104,0.561,1.703,0.753c6.378,2.057,9.742,8.641,6.1,15.238c-3.48,6.306-4.024,12.917-1.786,19.759
			c1.627,4.972,5.085,8.674,8.452,12.491c7.262,8.234,10.107,17.816,7.824,28.637c-1.337,6.339-4.102,12.015-9.104,16.413
			c-1.68,1.476-3.178,3.16-4.758,4.75c-0.203-0.165-0.404-0.331-0.605-0.494c0.213-0.423,0.369-0.887,0.646-1.261
			c7.996-10.789,2.91-22.907-5.023-28.424c-2.128-1.481-4.369-2.804-6.452-4.345c-7.71-5.702-10.547-16.155-7.181-25.151
			c1.428-3.818,2.609-7.795,3.309-11.803c0.778-4.456-0.213-8.892-2.245-12.913c-3.47-6.871-2.406-13.034,2.476-18.688
			c4.295-4.975,6.543-10.721,7.322-17.214c0.508-4.231-0.979-7.77-2.937-11.267c-0.536-0.958-1.104-1.9-1.658-2.851
			C39.309,232.444,39.463,232.312,39.617,232.178z"/>
		<path fill-rule="evenodd" clip-rule="evenodd" fill="#D12222" d="M24.279,117.011c1.677-5.273,2.074-10.532,0.293-15.819
			c-2.269-6.736-6.886-11.384-12.99-14.828c-2.862-1.615-5.797-3.348-8.113-5.623c-2.916-2.863-3.939-6.71-3.273-11.422
			c2.037,4.767,5.021,8.057,9.447,9.67c2.276,0.83,4.735,1.255,7.15,1.593c5.928,0.828,9.494,4.676,9.695,10.686
			c0.107,3.246,1.629,4.649,5.281,4.568c8.178-0.181,14.586,3.083,19.263,9.744c5.53,7.878,4.704,18.871-1.944,25.86
			c-1.307,1.373-2.772,2.601-4.212,3.842c-6.083,5.244-7.239,12.782-2.993,19.654c-3.208-2.095-6.227-7.99-6.66-12.894
			c-0.677-7.654,1.92-14.04,7.6-19.108c2.957-2.639,5.213-5.489,4.017-9.668c-1.113-3.891-4.015-5.982-7.909-6.638
			c-4.481-0.756-8.115,0.738-10.736,4.482C26.84,113.043,25.581,115.042,24.279,117.011z"/>
	</g>
	<g>
		<rect x="10.348" y="302.574" fill="#4D4D4D" width="82.68" height="39.413"/>
		<circle fill="#D12222" cx="51.688" cy="322.28" r="3.663"/>
		<path fill="#D12222" d="M70.396,322.28c0-2.022,1.641-3.662,3.663-3.662c2.023,0.001,3.663,1.64,3.663,3.661
			c0,2.025-1.64,3.665-3.663,3.665C72.037,325.943,70.396,324.304,70.396,322.28z"/>
		<circle fill="#D12222" cx="28.824" cy="322.28" r="3.663"/>
		<polygon fill="#333333" points="93.027,302.574 96.988,305.379 96.988,341.987 93.027,341.987 		"/>
		<rect x="28.824" y="297.046" fill="#333333" width="45.235" height="6.528"/>
	</g>
</g>
</svg>
