<?xml version="1.0" encoding="utf-8"?>
<!-- Generator: Adobe Illustrator 16.0.3, SVG Export Plug-In . SVG Version: 6.00 Build 0)  -->
<!DOCTYPE svg PUBLIC "-//W3C//DTD SVG 1.1//EN" "http://www.w3.org/Graphics/SVG/1.1/DTD/svg11.dtd">
<svg version="1.1" id="Capa_1" xmlns="http://www.w3.org/2000/svg" xmlns:xlink="http://www.w3.org/1999/xlink" x="0px" y="0px"
	 width="1280px" height="720px" viewBox="0 0 1280 720" enable-background="new 0 0 1280 720" xml:space="preserve">
<rect fill="#040404" width="1280" height="720"/>
<g opacity="0.04">
	<g>
		<g>
			<g>
				<g>
					<g>
						<g>
							<g>
								<path fill="#F0D40F" d="M1232.359,548.654"/>
							</g>
						</g>
					</g>
				</g>
			</g>
		</g>
		<g>
			<g>
				<g>
					<g>
						<g>
							<polygon fill="#F0D40F" points="533.727,294.216 502.386,322.999 502.328,323.567 488.504,460.554 345.266,589.909 
								342.113,619.555 271.672,681.268 177.023,681.268 133.689,718.928 135.658,721.192 178.145,684.268 272.801,684.268 
								344.973,621.038 348.128,591.367 491.373,462.005 491.432,461.43 505.256,324.437 535.756,296.425 							"/>
						</g>
					</g>
				</g>
			</g>
		</g>
		<g>
			<g>
				<g>
					<g>
						<g>
							<polygon fill="#F0D40F" points="215.039,614.16 202.269,626.323 149.906,622.537 81.278,686.082 83.316,688.283 
								150.989,625.623 203.376,629.411 217.109,616.333 							"/>
						</g>
					</g>
				</g>
			</g>
		</g>
		<g>
			<g>
				<g>
					<g>
						<g>
							<polygon fill="#F0D40F" points="1034.471,19.327 871.754,19.327 835.155,52.771 510.17,52.138 509.736,52.542 
								340.424,210.524 260.928,210.524 219.684,247.903 206.434,386.722 63.226,514.789 58.81,544.439 -0.991,597.083 
								0.991,599.335 61.615,545.967 66.033,516.303 209.309,388.176 222.559,249.347 262.085,213.524 341.606,213.524 
								511.35,55.14 836.317,55.772 872.918,22.327 1033.283,22.327 1146.866,128.968 1280.256,128.968 1280.256,125.968 
								1148.054,125.968 							"/>
						</g>
					</g>
				</g>
			</g>
		</g>
		<g>
			<g>
				<g>
					<g>
						<g>
							<polygon fill="#F0D40F" points="1054.448,-1.194 1052.429,1.024 1136.152,77.226 1280.256,77.226 1280.256,74.226 
								1137.313,74.226 							"/>
						</g>
					</g>
				</g>
			</g>
		</g>
		<g>
			<g>
				<g>
					<g>
						<g>
							<polygon fill="#F0D40F" points="1089.811,-1.171 1087.74,1.001 1139.918,50.722 1280.256,50.722 1280.256,47.722 
								1141.119,47.722 							"/>
						</g>
					</g>
				</g>
			</g>
		</g>
		<g>
			<g>
				<g>
					<g>
						<g>
							<polygon fill="#F0D40F" points="1106.448,98.835 1018.741,98.835 999.179,118.396 825.64,118.396 825.198,118.847 
								734.771,211.155 696.91,211.155 696.91,214.155 736.033,214.155 736.474,213.706 826.9,121.396 1000.421,121.396 
								1019.983,101.835 1105.177,101.835 1166.212,164.937 1280.256,164.937 1280.256,161.937 1167.483,161.937 							"/>
						</g>
					</g>
				</g>
			</g>
		</g>
		<g>
			<g>
				<g>
					<g>
						<g>
							<g>
								<polygon fill="#F0D40F" points="883.877,149.446 756.649,149.446 688.542,218.827 691.397,221.63 758.327,153.446 
									882.246,153.446 968.696,238.005 1280.256,238.005 1280.256,234.005 970.327,234.005 								"/>
							</g>
						</g>
					</g>
				</g>
			</g>
		</g>
		<g>
			<g>
				<g>
					<g>
						<g>
							<polygon fill="#F0D40F" points="1096.122,166.854 1067.538,166.854 1040.688,193.702 1050.815,204.507 1052.274,203.14 
								1043.471,193.747 1068.366,168.854 1095.312,168.854 1138.221,210.501 1280.256,210.501 1280.256,208.501 1139.031,208.501 
															"/>
						</g>
					</g>
				</g>
			</g>
		</g>
		<g>
			<g>
				<g>
					<g>
						<g>
							<polygon fill="#F0D40F" points="1070.887,129.624 1038.924,129.624 1038.924,131.624 1070.064,131.624 1128.75,189.677 
								1280.256,189.677 1280.256,187.677 1129.572,187.677 							"/>
						</g>
					</g>
				</g>
			</g>
		</g>
		<g>
			<g>
				<g>
					<g>
						<g>
							<polygon fill="#F0D40F" points="1070.893,108.169 1027.762,108.169 1027.466,108.485 990.824,147.7 1007.312,163.528 
								1008.696,162.085 993.633,147.624 1028.631,110.169 1070.059,110.169 1128.112,168.854 1280.256,168.854 1280.256,166.854 
								1128.946,166.854 							"/>
						</g>
					</g>
				</g>
			</g>
		</g>
		<g>
			<g>
				<g>
					<g>
						<g>
							<polygon fill="#F0D40F" points="1008.414,258.983 979.832,258.983 952.334,285.827 963.737,297.899 965.19,296.526 
								955.139,285.884 980.646,260.983 1007.594,260.983 1049.241,301.999 1197.312,301.999 1197.312,299.999 1050.062,299.999 
															"/>
						</g>
					</g>
				</g>
			</g>
		</g>
		<g>
			<g>
				<g>
					<g>
						<g>
							<polygon fill="#F0D40F" points="867.704,271.603 758.954,271.603 758.659,271.913 731.525,300.31 732.971,301.69 
								759.81,273.603 866.87,273.603 953.319,360.988 1042.079,360.988 1042.079,358.987 954.153,358.987 							"/>
						</g>
					</g>
				</g>
			</g>
		</g>
		<g>
			<g>
				<g>
					<g>
						<g>
							<polygon fill="#F0D40F" points="887.58,318.298 748.87,318.298 683.582,383.586 684.996,385 749.698,320.298 
								886.746,320.298 977.297,411.797 1280.256,411.797 1280.256,409.797 978.131,409.797 							"/>
						</g>
					</g>
				</g>
			</g>
		</g>
		<g>
			<g>
				<g>
					<g>
						<g>
							<polygon fill="#F0D40F" points="872.117,371.935 777.896,371.935 777.603,372.229 431.803,719.354 433.221,720.766 
								778.727,373.935 871.289,373.935 957.108,459.754 1280.256,459.754 1280.256,457.754 957.937,457.754 							"/>
						</g>
					</g>
				</g>
			</g>
		</g>
		<g>
			<g>
				<g>
					<g>
						<g>
							<polygon fill="#F0D40F" points="279.826,294.53 265.579,305.536 261.791,380.669 182.26,451.362 182.26,468.394 
								148.813,497.508 93.268,497.508 43.762,542.571 45.109,544.05 94.043,499.508 149.561,499.508 184.26,469.305 
								184.26,452.261 263.746,381.606 267.53,306.556 281.049,296.112 							"/>
						</g>
					</g>
				</g>
			</g>
		</g>
		<g>
			<g>
				<g>
					<g>
						<g>
							<polygon fill="#F0D40F" points="828.2,-0.888 821.523,4.05 499.01,4.05 498.723,4.315 329.896,160.544 260.876,160.544 
								260.876,162.544 330.68,162.544 330.968,162.278 499.793,6.05 822.184,6.05 829.39,0.72 							"/>
						</g>
					</g>
				</g>
			</g>
		</g>
		<g>
			<g>
				<g>
					<g>
						<g>
							<polygon fill="#F0D40F" points="445.08,-0.813 297.079,137.825 265.923,137.825 265.923,139.825 297.869,139.825 
								298.157,139.556 446.447,0.646 							"/>
						</g>
					</g>
				</g>
			</g>
		</g>
		<g>
			<g>
				<g>
					<g>
						<g>
							<polygon fill="#F0D40F" points="322.635,-0.786 275.603,46.958 0,46.958 0,48.958 276.439,48.958 276.733,48.659 
								324.06,0.618 							"/>
						</g>
					</g>
				</g>
			</g>
		</g>
		<g>
			<g>
				<g>
					<g>
						<g>
							<circle fill="#F0D40F" cx="667.844" cy="402.007" r="26.947"/>
						</g>
					</g>
				</g>
			</g>
		</g>
		<g>
			<g>
				<g>
					<g>
						<g>
							<circle fill="#F0D40F" cx="728.993" cy="304.929" r="5.915"/>
						</g>
					</g>
				</g>
			</g>
		</g>
		<g>
			<g>
				<g>
					<g>
						<g>
							<circle fill="#F0D40F" cx="967.717" cy="300.999" r="5.182"/>
						</g>
					</g>
				</g>
			</g>
		</g>
		<g>
			<g>
				<g>
					<g>
						<g>
							<circle fill="#F0D40F" cx="1070.324" cy="359.987" r="27.422"/>
						</g>
					</g>
				</g>
			</g>
		</g>
		<g>
			<g>
				<g>
					<g>
						<g>
							<circle fill="#F0D40F" cx="1218.532" cy="300.999" r="22.672"/>
						</g>
					</g>
				</g>
			</g>
		</g>
		<g>
			<g>
				<g>
					<g>
						<g>
							<circle fill="#F0D40F" cx="1057.194" cy="209.501" r="9.599"/>
						</g>
					</g>
				</g>
			</g>
		</g>
		<g>
			<g>
				<g>
					<g>
						<g>
							<circle fill="#F0D40F" cx="1068.249" cy="183.319" r="7.275"/>
						</g>
					</g>
				</g>
			</g>
		</g>
		<g>
			<g>
				<g>
					<g>
						<g>
							<circle fill="#F0D40F" cx="1013.317" cy="167.854" r="8.204"/>
						</g>
					</g>
				</g>
			</g>
		</g>
		<g>
			<g>
				<g>
					<g>
						<g>
							<circle fill="#F0D40F" cx="1029.209" cy="130.624" r="10.179"/>
						</g>
					</g>
				</g>
			</g>
		</g>
		<g>
			<g>
				<g>
					<g>
						<g>
							<circle fill="#F0D40F" cx="869.599" cy="215.796" r="10.018"/>
						</g>
					</g>
				</g>
			</g>
		</g>
		<g>
			<g>
				<g>
					<g>
						<g>
							<circle fill="#F0D40F" cx="742.81" cy="177.448" r="3.455"/>
						</g>
					</g>
				</g>
			</g>
		</g>
		<g>
			<g>
				<g>
					<g>
						<g>
							<circle fill="#F0D40F" cx="680.277" cy="225.813" r="13.158"/>
						</g>
					</g>
				</g>
			</g>
		</g>
		<g>
			<g>
				<g>
					<g>
						<g>
							<circle fill="#F0D40F" cx="547.96" cy="295.321" r="14.231"/>
						</g>
					</g>
				</g>
			</g>
		</g>
		<g>
			<g>
				<g>
					<g>
						<g>
							<circle fill="#F0D40F" cx="216.074" cy="140.802" r="53.179"/>
						</g>
					</g>
				</g>
			</g>
		</g>
		<g>
			<g>
				<g>
					<g>
						<g>
							<circle fill="#F0D40F" cx="39.615" cy="546.497" r="5.279"/>
						</g>
					</g>
				</g>
			</g>
		</g>
		<g>
			<g>
				<g>
					<g>
						<g>
							<circle fill="#F0D40F" cx="219.819" cy="611.003" r="4.858"/>
						</g>
					</g>
				</g>
			</g>
		</g>
		<g>
			<g>
				<g>
					<g>
						<g>
							<circle fill="#F0D40F" cx="82.298" cy="687.183" r="6.093"/>
						</g>
					</g>
				</g>
			</g>
		</g>
		<g>
			<g>
				<g>
					<g>
						<g>
							<polygon fill="#F0D40F" points="979.422,160.544 841.788,160.544 712.691,294.321 547.591,294.321 547.31,294.563 
								436.172,390.135 431.524,546.048 343.826,627.041 259.748,620.528 148.521,719.313 149.85,720.808 260.441,622.588 
								344.543,629.103 433.498,546.946 433.512,546.526 438.145,391.076 548.332,296.321 713.541,296.321 842.638,162.544 
								978.594,162.544 1047.18,231.124 1280.253,231.718 1280.259,229.718 1048.01,229.126 							"/>
						</g>
					</g>
				</g>
			</g>
		</g>
		<g>
			<g>
				<g>
					<g>
						<g>
							<polygon fill="#F0D40F" points="902.453,99.335 706.776,99.335 520.831,287.755 290.298,287.755 290.298,289.755 
								521.667,289.755 707.612,101.335 901.596,101.335 996.345,200.901 1280.256,200.901 1280.256,198.901 997.202,198.901 
															"/>
						</g>
					</g>
				</g>
			</g>
		</g>
		<g>
			<g>
				<g>
					<g>
						<g>
							<circle fill="#F0D40F" cx="283.784" cy="288.755" r="7.665"/>
						</g>
					</g>
				</g>
			</g>
		</g>
		<g>
			<g>
				<g>
					<g>
						<g>
							<polygon fill="#F0D40F" points="891.184,146.222 772.514,146.222 772.22,146.517 745.556,173.288 746.974,174.7 
								773.344,148.222 890.365,148.222 960.051,216.796 1280.256,216.796 1280.256,214.796 960.869,214.796 							"/>
						</g>
					</g>
				</g>
			</g>
		</g>
		<g>
			<g>
				<g>
					<g>
						<g>
							<polygon fill="#F0D40F" points="973.325,192.726 886.695,192.726 874.729,207.058 876.264,208.339 887.631,194.726 
								972.474,194.726 1021.096,245.341 1280.256,245.341 1280.256,243.341 1021.947,243.341 							"/>
						</g>
					</g>
				</g>
			</g>
		</g>
	</g>
</g>
</svg>
