<?xml version="1.0" encoding="utf-8"?>
<!-- Generator: Adobe Illustrator 16.0.3, SVG Export Plug-In . SVG Version: 6.00 Build 0)  -->
<!DOCTYPE svg PUBLIC "-//W3C//DTD SVG 1.1//EN" "http://www.w3.org/Graphics/SVG/1.1/DTD/svg11.dtd">
<svg version="1.1" id="Capa_1" xmlns="http://www.w3.org/2000/svg" xmlns:xlink="http://www.w3.org/1999/xlink" x="0px" y="0px"
	 width="86.64px" height="378.205px" viewBox="0 0 86.64 378.205" enable-background="new 0 0 86.64 378.205" xml:space="preserve">
<g>
	<g>
		<path fill="#245789" d="M61.017,116.181c0,0,0.299,4.88,0.641,12.2c0.182,3.66,0.398,7.931,0.58,12.506
			c0.209,4.575,0.357,9.455,0.529,14.335c0.115,2.44,0.203,4.88,0.342,7.282c0.141,2.401,0.242,4.766,0.264,7.053
			c-0.002,2.288-0.059,4.499-0.178,6.597c-0.1,2.097-0.266,4.079-0.428,5.909c-0.152,1.83-0.357,3.508-0.537,4.994
			c-0.195,1.487-0.383,2.783-0.566,3.851c-0.354,2.136-0.646,3.355-0.646,3.355h-0.5c0,0-0.291-1.22-0.646-3.355
			c-0.182-1.067-0.371-2.363-0.564-3.851c-0.18-1.486-0.387-3.164-0.539-4.994c-0.162-1.83-0.328-3.813-0.426-5.909
			c-0.119-2.098-0.176-4.309-0.178-6.597c0.021-2.287,0.123-4.651,0.262-7.053c0.141-2.402,0.229-4.842,0.342-7.282
			c0.174-4.88,0.322-9.76,0.531-14.335c0.182-4.575,0.398-8.846,0.58-12.506c0.34-7.32,0.639-12.2,0.639-12.2H61.017z"/>
		<path fill="#245789" d="M22.096,97.926c0,0,0.299,4.88,0.641,12.2c0.181,3.66,0.398,7.931,0.579,12.506
			c0.21,4.575,0.357,9.455,0.53,14.335c0.114,2.44,0.203,4.88,0.342,7.282c0.14,2.401,0.241,4.766,0.264,7.053
			c-0.002,2.288-0.059,4.499-0.178,6.597c-0.1,2.097-0.266,4.079-0.428,5.909c-0.152,1.83-0.357,3.508-0.538,4.994
			c-0.194,1.487-0.382,2.783-0.565,3.851c-0.354,2.136-0.646,3.355-0.646,3.355h-0.5c0,0-0.292-1.22-0.646-3.355
			c-0.183-1.067-0.371-2.363-0.564-3.851c-0.181-1.486-0.387-3.164-0.539-4.994c-0.162-1.83-0.328-3.813-0.427-5.909
			c-0.119-2.098-0.176-4.309-0.177-6.597c0.021-2.287,0.123-4.651,0.262-7.053c0.141-2.402,0.229-4.842,0.342-7.282
			c0.174-4.88,0.321-9.76,0.531-14.335c0.182-4.575,0.398-8.846,0.579-12.506c0.341-7.32,0.64-12.2,0.64-12.2H22.096z"/>
		<path fill="#245789" d="M48.258,153.852c0,0,0.299,4.88,0.641,12.2c0.18,3.66,0.397,7.931,0.578,12.506
			c0.211,4.575,0.357,9.455,0.531,14.335c0.113,2.44,0.202,4.88,0.342,7.282c0.139,2.401,0.24,4.766,0.263,7.053
			c-0.001,2.288-0.058,4.499-0.177,6.597c-0.1,2.097-0.266,4.079-0.428,5.909c-0.152,1.83-0.357,3.508-0.539,4.994
			c-0.193,1.487-0.381,2.783-0.564,3.851c-0.354,2.136-0.646,3.355-0.646,3.355h-0.5c0,0-0.293-1.22-0.646-3.355
			c-0.184-1.067-0.371-2.363-0.564-3.851c-0.182-1.486-0.387-3.164-0.539-4.994c-0.162-1.83-0.328-3.813-0.428-5.909
			c-0.119-2.098-0.176-4.309-0.177-6.597c0.022-2.287,0.124-4.651,0.263-7.053c0.14-2.402,0.229-4.842,0.342-7.282
			c0.174-4.88,0.32-9.76,0.531-14.335c0.181-4.575,0.398-8.846,0.578-12.506c0.342-7.32,0.641-12.2,0.641-12.2H48.258z"/>
		<path fill="#245789" d="M70.771,196.124c0,0,0.299,4.88,0.641,12.2c0.18,3.66,0.396,7.931,0.578,12.506
			c0.211,4.575,0.357,9.455,0.531,14.335c0.113,2.44,0.201,4.88,0.342,7.282c0.139,2.401,0.24,4.766,0.262,7.053
			c0,2.288-0.057,4.499-0.176,6.597c-0.1,2.097-0.266,4.079-0.428,5.909c-0.152,1.83-0.357,3.508-0.539,4.994
			c-0.193,1.487-0.381,2.783-0.564,3.851c-0.354,2.136-0.646,3.355-0.646,3.355h-0.5c0,0-0.293-1.22-0.646-3.355
			c-0.184-1.067-0.371-2.363-0.564-3.851c-0.182-1.486-0.387-3.164-0.539-4.994c-0.162-1.83-0.328-3.813-0.428-5.909
			c-0.119-2.098-0.176-4.309-0.178-6.597c0.023-2.287,0.125-4.651,0.264-7.053c0.139-2.402,0.229-4.842,0.342-7.282
			c0.174-4.88,0.32-9.76,0.531-14.335c0.18-4.575,0.398-8.846,0.578-12.506c0.342-7.32,0.641-12.2,0.641-12.2H70.771z"/>
		<path fill="#245789" d="M34.111,22.471c0,0,0.238,4.88,0.512,12.2c0.146,3.66,0.322,7.931,0.447,12.506
			c0.141,4.575,0.291,9.455,0.441,14.335c0.092,2.44,0.183,4.88,0.273,7.282c0.111,2.401,0.192,4.766,0.209,7.053
			c-0.004,2.288-0.039,4.499-0.148,6.597c-0.049,1.048-0.096,2.068-0.142,3.055c-0.067,0.986-0.132,1.939-0.192,2.854
			c-0.123,1.83-0.287,3.508-0.432,4.994c-0.154,1.487-0.306,2.783-0.451,3.851c-0.283,2.136-0.518,3.355-0.518,3.355h-0.4
			c0,0-0.234-1.22-0.518-3.355c-0.146-1.067-0.297-2.363-0.451-3.851c-0.145-1.486-0.309-3.164-0.432-4.994
			c-0.061-0.915-0.125-1.868-0.192-2.854c-0.046-0.986-0.093-2.007-0.142-3.055c-0.109-2.098-0.145-4.309-0.148-6.597
			c0.017-2.287,0.098-4.651,0.209-7.053c0.091-2.402,0.182-4.842,0.273-7.282c0.15-4.88,0.301-9.76,0.441-14.335
			c0.125-4.575,0.302-8.846,0.447-12.506c0.273-7.32,0.512-12.2,0.512-12.2H34.111z"/>
		<path fill="#245789" d="M45.604,75.232c0,0,0.238,4.88,0.512,12.2c0.146,3.66,0.322,7.931,0.447,12.506
			c0.141,4.575,0.291,9.455,0.441,14.335c0.092,2.44,0.183,4.88,0.273,7.282c0.111,2.401,0.192,4.766,0.209,7.053
			c-0.004,2.288-0.039,4.499-0.148,6.597c-0.049,1.048-0.096,2.068-0.142,3.055c-0.067,0.986-0.132,1.939-0.192,2.854
			c-0.123,1.83-0.287,3.508-0.432,4.994c-0.154,1.487-0.306,2.783-0.451,3.851c-0.283,2.136-0.518,3.355-0.518,3.355h-0.4
			c0,0-0.234-1.22-0.518-3.355c-0.146-1.067-0.297-2.363-0.451-3.851c-0.145-1.486-0.309-3.164-0.432-4.994
			c-0.061-0.915-0.125-1.868-0.192-2.854c-0.046-0.986-0.093-2.007-0.142-3.055c-0.109-2.098-0.145-4.309-0.148-6.597
			c0.017-2.287,0.098-4.651,0.209-7.053c0.091-2.402,0.182-4.842,0.273-7.282c0.15-4.88,0.301-9.76,0.441-14.335
			c0.125-4.575,0.302-8.846,0.447-12.506c0.273-7.32,0.512-12.2,0.512-12.2H45.604z"/>
		<path fill="#245789" d="M22.047,243.401c0,0,0.238,4.88,0.512,12.2c0.145,3.66,0.321,7.931,0.447,12.506
			c0.141,4.575,0.291,9.455,0.44,14.335c0.092,2.44,0.183,4.88,0.273,7.282c0.111,2.401,0.192,4.766,0.21,7.053
			c-0.004,2.288-0.039,4.499-0.148,6.597c-0.049,1.048-0.097,2.068-0.143,3.055c-0.066,0.986-0.131,1.939-0.192,2.854
			c-0.122,1.83-0.286,3.508-0.431,4.994c-0.155,1.487-0.307,2.783-0.452,3.851c-0.283,2.136-0.517,3.355-0.517,3.355h-0.4
			c0,0-0.234-1.22-0.518-3.355c-0.146-1.067-0.297-2.363-0.452-3.851c-0.144-1.486-0.309-3.164-0.431-4.994
			c-0.062-0.915-0.126-1.868-0.193-2.854c-0.045-0.986-0.092-2.007-0.141-3.055c-0.11-2.098-0.145-4.309-0.149-6.597
			c0.017-2.287,0.099-4.651,0.21-7.053c0.09-2.402,0.182-4.842,0.273-7.282c0.15-4.88,0.301-9.76,0.441-14.335
			c0.125-4.575,0.301-8.846,0.446-12.506c0.273-7.32,0.513-12.2,0.513-12.2H22.047z"/>
		<path fill="#245789" d="M70.72,104.783c0,0,0.24,4.88,0.514,12.2c0.145,3.66,0.32,7.931,0.445,12.506
			c0.141,4.575,0.291,9.455,0.441,14.335c0.092,2.44,0.184,4.88,0.273,7.282c0.111,2.401,0.193,4.766,0.211,7.053
			c-0.006,2.288-0.039,4.499-0.15,6.597c-0.049,1.048-0.096,2.068-0.141,3.055c-0.066,0.986-0.131,1.939-0.193,2.854
			c-0.121,1.83-0.287,3.508-0.43,4.994c-0.156,1.487-0.307,2.783-0.453,3.851c-0.283,2.136-0.518,3.355-0.518,3.355h-0.4
			c0,0-0.232-1.22-0.516-3.355c-0.146-1.067-0.297-2.363-0.453-3.851c-0.145-1.486-0.309-3.164-0.43-4.994
			c-0.063-0.915-0.127-1.868-0.193-2.854c-0.045-0.986-0.094-2.007-0.143-3.055c-0.109-2.098-0.145-4.309-0.148-6.597
			c0.018-2.287,0.1-4.651,0.211-7.053c0.09-2.402,0.182-4.842,0.273-7.282c0.148-4.88,0.299-9.76,0.439-14.335
			c0.127-4.575,0.303-8.846,0.447-12.506c0.273-7.32,0.514-12.2,0.512-12.2H70.72z"/>
		<path fill="#245789" d="M32.027,185.12c0,0,0.239,4.88,0.513,12.2c0.146,3.66,0.321,7.931,0.446,12.506
			c0.141,4.575,0.291,9.455,0.441,14.335c0.092,2.44,0.184,4.88,0.273,7.282c0.111,2.401,0.193,4.766,0.21,7.053
			c-0.005,2.288-0.039,4.499-0.149,6.597c-0.049,1.048-0.096,2.068-0.141,3.055c-0.067,0.986-0.132,1.939-0.193,2.854
			c-0.122,1.83-0.287,3.508-0.431,4.994c-0.155,1.487-0.306,2.783-0.452,3.851c-0.283,2.136-0.518,3.355-0.518,3.355h-0.4
			c0,0-0.233-1.22-0.517-3.355c-0.146-1.067-0.297-2.363-0.452-3.851c-0.145-1.486-0.309-3.164-0.431-4.994
			c-0.062-0.915-0.126-1.868-0.192-2.854c-0.046-0.986-0.094-2.007-0.143-3.055c-0.109-2.098-0.145-4.309-0.148-6.597
			c0.018-2.287,0.099-4.651,0.21-7.053c0.091-2.402,0.182-4.842,0.273-7.282c0.149-4.88,0.3-9.76,0.44-14.335
			c0.126-4.575,0.303-8.846,0.447-12.506c0.273-7.32,0.513-12.2,0.512-12.2H32.027z"/>
		<path fill="#245789" d="M70.72,294.4c0,0,0.24,4.88,0.514,12.2c0.145,3.66,0.32,7.931,0.445,12.506
			c0.141,4.575,0.291,9.455,0.441,14.335c0.092,2.44,0.184,4.88,0.273,7.282c0.111,2.401,0.193,4.766,0.211,7.053
			c-0.006,2.288-0.039,4.499-0.15,6.597c-0.049,1.048-0.096,2.068-0.141,3.055c-0.066,0.986-0.131,1.939-0.193,2.854
			c-0.121,1.83-0.287,3.508-0.43,4.994c-0.156,1.487-0.307,2.783-0.453,3.851c-0.283,2.136-0.518,3.355-0.518,3.355h-0.4
			c0,0-0.232-1.22-0.516-3.355c-0.146-1.067-0.297-2.363-0.453-3.851c-0.145-1.486-0.309-3.164-0.43-4.994
			c-0.063-0.915-0.127-1.868-0.193-2.854c-0.045-0.986-0.094-2.007-0.143-3.055c-0.109-2.098-0.145-4.309-0.148-6.597
			c0.018-2.287,0.1-4.651,0.211-7.053c0.09-2.402,0.182-4.842,0.273-7.282c0.148-4.88,0.299-9.76,0.439-14.335
			c0.127-4.575,0.303-8.846,0.447-12.506c0.273-7.32,0.514-12.2,0.512-12.2H70.72z"/>
		<path fill="#245789" d="M36.195,300.123c-0.001,0,0.238,4.88,0.512,12.2c0.145,3.66,0.321,7.931,0.447,12.506
			c0.141,4.575,0.291,9.455,0.44,14.335c0.092,2.44,0.183,4.88,0.273,7.282c0.111,2.401,0.192,4.766,0.21,7.053
			c-0.004,2.288-0.039,4.499-0.148,6.597c-0.049,1.048-0.097,2.068-0.143,3.055c-0.066,0.986-0.131,1.939-0.192,2.854
			c-0.122,1.83-0.286,3.508-0.431,4.994c-0.155,1.487-0.307,2.783-0.452,3.851c-0.283,2.136-0.517,3.355-0.517,3.355h-0.4
			c0,0-0.234-1.22-0.518-3.355c-0.146-1.067-0.297-2.363-0.452-3.851c-0.144-1.486-0.309-3.164-0.431-4.994
			c-0.062-0.915-0.126-1.868-0.193-2.854c-0.045-0.986-0.092-2.007-0.141-3.055c-0.11-2.098-0.145-4.309-0.149-6.597
			c0.017-2.287,0.099-4.651,0.21-7.053c0.09-2.402,0.182-4.842,0.273-7.282c0.15-4.88,0.301-9.76,0.441-14.335
			c0.125-4.575,0.301-8.846,0.446-12.506c0.273-7.32,0.513-12.2,0.513-12.2H36.195z"/>
		<path fill="#245789" d="M56.751,22.471c0,0,0.152,4.88,0.383,12.2c0.244,7.32,0.434,17.081,0.666,26.841
			c0.068,2.44,0.139,4.88,0.205,7.282c0.094,2.401,0.119,4.766,0.158,7.053c-0.004,2.288-0.029,4.499-0.111,6.597
			c-0.063,2.097-0.148,4.079-0.252,5.909c-0.375,7.32-1.049,12.2-1.049,12.2h-0.301c0,0-0.673-4.88-1.05-12.2
			c-0.103-1.83-0.188-3.813-0.25-5.909c-0.082-2.098-0.108-4.309-0.111-6.597c0.039-2.287,0.064-4.651,0.156-7.053
			c0.068-2.402,0.137-4.842,0.205-7.282c0.234-9.76,0.424-19.521,0.666-26.841c0.23-7.32,0.384-12.2,0.384-12.2H56.751z"/>
		<path fill="#245789" d="M6.686,275.705c0,0,0.154,4.88,0.385,12.2c0.242,7.32,0.432,17.081,0.666,26.841
			c0.068,2.44,0.137,4.88,0.205,7.282c0.092,2.401,0.117,4.766,0.156,7.053c-0.003,2.288-0.029,4.499-0.111,6.597
			c-0.063,2.097-0.147,4.079-0.25,5.909c-0.377,7.32-1.051,12.2-1.051,12.2h-0.3c0,0-0.674-4.88-1.05-12.2
			c-0.104-1.83-0.188-3.813-0.251-5.909c-0.083-2.098-0.108-4.309-0.112-6.597c0.04-2.287,0.065-4.651,0.158-7.053
			c0.067-2.402,0.137-4.842,0.205-7.282c0.233-9.76,0.423-19.521,0.666-26.841c0.23-7.32,0.384-12.2,0.384-12.2H6.686z"/>
		<path fill="#245789" d="M12.415,174.568c0,0,0.153,4.88,0.384,12.2c0.243,7.32,0.433,17.081,0.666,26.841
			c0.068,2.44,0.138,4.88,0.205,7.282c0.093,2.401,0.118,4.766,0.158,7.053c-0.004,2.288-0.029,4.499-0.112,6.597
			c-0.063,2.097-0.147,4.079-0.251,5.909c-0.376,7.32-1.05,12.2-1.05,12.2h-0.3c0,0-0.674-4.88-1.051-12.2
			c-0.103-1.83-0.188-3.813-0.25-5.909c-0.082-2.098-0.108-4.309-0.111-6.597c0.039-2.287,0.064-4.651,0.156-7.053
			c0.068-2.402,0.137-4.842,0.205-7.282c0.234-9.76,0.424-19.521,0.666-26.841c0.23-7.32,0.385-12.2,0.385-12.2H12.415z"/>
		<path fill="#245789" d="M55.188,252.65c0,0,0.153,4.88,0.384,12.2c0.243,7.32,0.433,17.081,0.666,26.841
			c0.068,2.44,0.139,4.88,0.205,7.282c0.094,2.401,0.119,4.766,0.158,7.053c-0.004,2.288-0.029,4.499-0.111,6.597
			c-0.063,2.097-0.148,4.079-0.252,5.909c-0.375,7.32-1.049,12.2-1.049,12.2h-0.3c0,0-0.674-4.88-1.051-12.2
			c-0.103-1.83-0.188-3.813-0.25-5.909c-0.082-2.098-0.108-4.309-0.111-6.597c0.039-2.287,0.064-4.651,0.156-7.053
			c0.068-2.402,0.137-4.842,0.205-7.282c0.234-9.76,0.424-19.521,0.666-26.841c0.23-7.32,0.385-12.2,0.385-12.2H55.188z"/>
	</g>
	<g>
		<rect x="3.959" fill="#4D4D4D" width="82.681" height="39.413"/>
		<circle fill="#245789" cx="45.3" cy="19.707" r="3.663"/>
		<circle fill="#245789" cx="22.928" cy="19.707" r="3.663"/>
		<circle fill="#245789" cx="68.163" cy="19.707" r="3.663"/>
		<polygon fill="#333333" points="3.959,39.413 0,36.609 0,0 3.959,0 		"/>
		<rect x="22.928" y="38.413" fill="#333333" width="45.236" height="6.528"/>
	</g>
</g>
</svg>
