<?xml version="1.0" encoding="utf-8"?>
<!-- Generator: Adobe Illustrator 16.0.3, SVG Export Plug-In . SVG Version: 6.00 Build 0)  -->
<!DOCTYPE svg PUBLIC "-//W3C//DTD SVG 1.1//EN" "http://www.w3.org/Graphics/SVG/1.1/DTD/svg11.dtd">
<svg version="1.1" id="Capa_1" xmlns="http://www.w3.org/2000/svg" xmlns:xlink="http://www.w3.org/1999/xlink" x="0px" y="0px"
	 width="41.459px" height="110.41px" viewBox="0 0 41.459 110.41" enable-background="new 0 0 41.459 110.41" xml:space="preserve">
<g>
	<g>
		<path fill="#245789" d="M20.73,6.071C28.943,6.065,41.459,0,41.459,0s-6.043,12.726-6.07,20.729
			c-0.031,8.004,6.07,20.729,6.07,20.729S29.41,35.412,20.73,35.388C12.049,35.362,0,41.459,0,41.459s6.082-10.77,6.072-20.729
			C6.061,10.77,0,0,0,0S12.518,6.078,20.73,6.071z"/>
		<path fill="#264887" d="M41.459,0c0,0-10.816,13.642-10.816,20.729s10.816,20.729,10.816,20.729s-5.365-13.896-5.408-20.729
			S41.459,0,41.459,0z"/>
	</g>
	<rect x="18.938" y="35.25" fill="#245789" width="3.584" height="75.16"/>
	<polygon fill="#264887" points="22.521,35.25 21.625,35.25 20.73,107.896 22.521,107.896 	"/>
</g>
</svg>
