<?xml version="1.0" encoding="utf-8"?>
<!-- Generator: Adobe Illustrator 16.0.3, SVG Export Plug-In . SVG Version: 6.00 Build 0)  -->
<!DOCTYPE svg PUBLIC "-//W3C//DTD SVG 1.1//EN" "http://www.w3.org/Graphics/SVG/1.1/DTD/svg11.dtd">
<svg version="1.1" id="Capa_1" xmlns="http://www.w3.org/2000/svg" xmlns:xlink="http://www.w3.org/1999/xlink" x="0px" y="0px"
	 width="189.389px" height="76.953px" viewBox="0 0 189.389 76.953" enable-background="new 0 0 189.389 76.953"
	 xml:space="preserve">
<g>
	<g>
		<g>
			<circle fill="#FFFFFF" cx="147.702" cy="52.905" r="23.112"/>
			<path fill="#040404" d="M147.703,76.953c-6.424,0-12.463-2.501-17.006-7.043c-4.541-4.542-7.043-10.581-7.043-17.005
				s2.502-12.463,7.043-17.006c4.543-4.541,10.582-7.043,17.006-7.043s12.463,2.502,17.004,7.043
				c4.543,4.543,7.045,10.582,7.045,17.006s-2.502,12.463-7.045,17.005C160.166,74.452,154.127,76.953,147.703,76.953z
				 M147.703,30.729c-12.229,0-22.176,9.947-22.176,22.176c0,12.228,9.947,22.176,22.176,22.176
				c12.227,0,22.176-9.948,22.176-22.176C169.879,40.677,159.93,30.729,147.703,30.729z"/>
		</g>
		<g>
			<circle fill="#FFFFFF" cx="147.703" cy="52.905" r="16.748"/>
			<path fill="#040404" d="M147.703,70.59c-4.725,0-9.164-1.839-12.506-5.181c-3.34-3.34-5.18-7.78-5.18-12.504
				c0-4.725,1.84-9.164,5.18-12.505c3.342-3.341,7.781-5.181,12.506-5.181c4.723,0,9.164,1.84,12.504,5.181s5.18,7.78,5.18,12.505
				c0,4.724-1.84,9.164-5.18,12.504C156.867,68.751,152.426,70.59,147.703,70.59z M147.703,37.094
				c-8.719,0-15.813,7.093-15.813,15.812s7.094,15.811,15.813,15.811s15.811-7.092,15.811-15.811S156.422,37.094,147.703,37.094z"/>
		</g>
		<g>
			<circle fill="#FFFFFF" cx="147.703" cy="52.905" r="10.338"/>
			<path fill="#040404" d="M147.703,64.181c-6.217,0-11.275-5.059-11.275-11.275s5.059-11.275,11.275-11.275
				s11.273,5.059,11.273,11.275S153.92,64.181,147.703,64.181z M147.703,43.503c-5.186,0-9.402,4.218-9.402,9.402
				c0,5.184,4.217,9.402,9.402,9.402c5.184,0,9.402-4.219,9.402-9.402C157.105,47.721,152.887,43.503,147.703,43.503z"/>
		</g>
		<g>
			<circle fill="#FFFFFF" cx="147.703" cy="52.905" r="3.871"/>
			<path fill="#040404" d="M147.703,57.713c-2.65,0-4.809-2.156-4.809-4.808c0-2.65,2.158-4.809,4.809-4.809
				s4.807,2.158,4.807,4.809C152.51,55.557,150.354,57.713,147.703,57.713z M147.703,49.971c-1.619,0-2.936,1.315-2.936,2.935
				c0,1.618,1.316,2.936,2.936,2.936c1.617,0,2.936-1.317,2.936-2.936C150.639,51.286,149.32,49.971,147.703,49.971z"/>
		</g>
	</g>
	<g>
		<g>
			<circle fill="#FFFFFF" cx="112.333" cy="52.905" r="23.112"/>
			<path fill="#040404" d="M112.332,76.953c-6.424,0-12.463-2.501-17.004-7.043c-4.543-4.542-7.045-10.581-7.045-17.005
				s2.502-12.463,7.045-17.006c4.541-4.541,10.58-7.043,17.004-7.043s12.463,2.502,17.006,7.043
				c4.541,4.543,7.043,10.582,7.043,17.006s-2.502,12.463-7.043,17.005C124.795,74.452,118.756,76.953,112.332,76.953z
				 M112.332,30.729c-12.227,0-22.176,9.947-22.176,22.176c0,12.228,9.949,22.176,22.176,22.176
				c12.229,0,22.176-9.948,22.176-22.176C134.508,40.677,124.561,30.729,112.332,30.729z"/>
		</g>
		<g>
			<circle fill="#FFFFFF" cx="112.332" cy="52.905" r="16.748"/>
			<path fill="#040404" d="M112.332,70.59c-4.723,0-9.164-1.839-12.504-5.181c-3.34-3.34-5.18-7.78-5.18-12.504
				c0-4.725,1.84-9.164,5.18-12.505s7.781-5.181,12.504-5.181c4.725,0,9.166,1.84,12.506,5.181s5.18,7.78,5.18,12.505
				c0,4.724-1.84,9.164-5.18,12.504C121.498,68.751,117.057,70.59,112.332,70.59z M112.332,37.094
				c-8.719,0-15.811,7.093-15.811,15.812s7.092,15.811,15.811,15.811s15.813-7.092,15.813-15.811S121.051,37.094,112.332,37.094z"/>
		</g>
		<g>
			<circle fill="#FFFFFF" cx="112.332" cy="52.905" r="10.338"/>
			<path fill="#040404" d="M112.332,64.181c-6.217,0-11.273-5.059-11.273-11.275s5.057-11.275,11.273-11.275
				s11.275,5.059,11.275,11.275S118.549,64.181,112.332,64.181z M112.332,43.503c-5.184,0-9.402,4.218-9.402,9.402
				c0,5.184,4.219,9.402,9.402,9.402c5.186,0,9.402-4.219,9.402-9.402C121.734,47.721,117.518,43.503,112.332,43.503z"/>
		</g>
		<g>
			<circle fill="#FFFFFF" cx="112.332" cy="52.905" r="3.871"/>
			<path fill="#040404" d="M112.332,57.713c-2.65,0-4.807-2.156-4.807-4.808c0-2.65,2.156-4.809,4.807-4.809
				s4.809,2.158,4.809,4.809C117.141,55.557,114.982,57.713,112.332,57.713z M112.332,49.971c-1.617,0-2.934,1.315-2.934,2.935
				c0,1.618,1.316,2.936,2.934,2.936c1.619,0,2.936-1.317,2.936-2.936C115.268,51.286,113.951,49.971,112.332,49.971z"/>
		</g>
	</g>
	<g>
		<g>
			<circle fill="#FFFFFF" cx="76.962" cy="52.905" r="23.112"/>
			<path fill="#040404" d="M76.963,76.953c-6.424,0-12.463-2.501-17.006-7.043c-4.541-4.542-7.043-10.581-7.043-17.005
				s2.502-12.463,7.043-17.006c4.543-4.541,10.582-7.043,17.006-7.043s12.463,2.502,17.004,7.043
				c4.543,4.543,7.045,10.582,7.045,17.006S98.51,65.368,93.967,69.91C89.426,74.452,83.387,76.953,76.963,76.953z M76.963,30.729
				c-12.229,0-22.176,9.947-22.176,22.176c0,12.228,9.947,22.176,22.176,22.176c12.227,0,22.176-9.948,22.176-22.176
				C99.139,40.677,89.189,30.729,76.963,30.729z"/>
		</g>
		<g>
			<circle fill="#FFFFFF" cx="76.963" cy="52.905" r="16.748"/>
			<path fill="#040404" d="M76.963,70.59c-4.725,0-9.164-1.839-12.506-5.181c-3.34-3.34-5.18-7.78-5.18-12.504
				c0-4.725,1.84-9.164,5.18-12.505c3.342-3.341,7.781-5.181,12.506-5.181c4.723,0,9.164,1.84,12.504,5.181s5.18,7.78,5.18,12.505
				c0,4.724-1.84,9.164-5.18,12.504C86.127,68.751,81.686,70.59,76.963,70.59z M76.963,37.094c-8.719,0-15.813,7.093-15.813,15.812
				s7.094,15.811,15.813,15.811s15.811-7.092,15.811-15.811S85.682,37.094,76.963,37.094z"/>
		</g>
		<g>
			<circle fill="#FFFFFF" cx="76.963" cy="52.905" r="10.338"/>
			<path fill="#040404" d="M76.963,64.181c-6.217,0-11.275-5.059-11.275-11.275S70.746,41.63,76.963,41.63
				s11.273,5.059,11.273,11.275S83.18,64.181,76.963,64.181z M76.963,43.503c-5.186,0-9.402,4.218-9.402,9.402
				c0,5.184,4.217,9.402,9.402,9.402c5.184,0,9.402-4.219,9.402-9.402C86.365,47.721,82.146,43.503,76.963,43.503z"/>
		</g>
		<g>
			<circle fill="#FFFFFF" cx="76.963" cy="52.905" r="3.871"/>
			<path fill="#040404" d="M76.963,57.713c-2.65,0-4.809-2.156-4.809-4.808c0-2.65,2.158-4.809,4.809-4.809s4.807,2.158,4.807,4.809
				C81.77,55.557,79.613,57.713,76.963,57.713z M76.963,49.971c-1.619,0-2.936,1.315-2.936,2.935c0,1.618,1.316,2.936,2.936,2.936
				c1.617,0,2.936-1.317,2.936-2.936C79.898,51.286,78.58,49.971,76.963,49.971z"/>
		</g>
	</g>
	<g>
		<g>
			<circle fill="#FFFFFF" cx="41.593" cy="52.905" r="23.112"/>
			<path fill="#040404" d="M41.592,76.953c-6.424,0-12.463-2.501-17.004-7.043c-4.543-4.542-7.045-10.581-7.045-17.005
				s2.502-12.463,7.045-17.006c4.541-4.541,10.58-7.043,17.004-7.043s12.463,2.502,17.006,7.043
				c4.541,4.543,7.043,10.582,7.043,17.006s-2.502,12.463-7.043,17.005C54.055,74.452,48.016,76.953,41.592,76.953z M41.592,30.729
				c-12.227,0-22.176,9.947-22.176,22.176c0,12.228,9.949,22.176,22.176,22.176c12.229,0,22.176-9.948,22.176-22.176
				C63.768,40.677,53.82,30.729,41.592,30.729z"/>
		</g>
		<g>
			<circle fill="#FFFFFF" cx="41.592" cy="52.905" r="16.748"/>
			<path fill="#040404" d="M41.592,70.59c-4.723,0-9.164-1.839-12.504-5.181c-3.34-3.34-5.18-7.78-5.18-12.504
				c0-4.725,1.84-9.164,5.18-12.505s7.781-5.181,12.504-5.181c4.725,0,9.166,1.84,12.506,5.181s5.18,7.78,5.18,12.505
				c0,4.724-1.84,9.164-5.18,12.504C50.758,68.751,46.316,70.59,41.592,70.59z M41.592,37.094c-8.719,0-15.811,7.093-15.811,15.812
				s7.092,15.811,15.811,15.811s15.813-7.092,15.813-15.811S50.311,37.094,41.592,37.094z"/>
		</g>
		<g>
			<circle fill="#FFFFFF" cx="41.592" cy="52.905" r="10.338"/>
			<path fill="#040404" d="M41.592,64.181c-6.217,0-11.273-5.059-11.273-11.275S35.375,41.63,41.592,41.63
				s11.275,5.059,11.275,11.275S47.809,64.181,41.592,64.181z M41.592,43.503c-5.184,0-9.402,4.218-9.402,9.402
				c0,5.184,4.219,9.402,9.402,9.402c5.186,0,9.402-4.219,9.402-9.402C50.994,47.721,46.777,43.503,41.592,43.503z"/>
		</g>
		<g>
			<circle fill="#FFFFFF" cx="41.592" cy="52.905" r="3.871"/>
			<path fill="#040404" d="M41.592,57.713c-2.65,0-4.807-2.156-4.807-4.808c0-2.65,2.156-4.809,4.807-4.809s4.809,2.158,4.809,4.809
				C46.4,55.557,44.242,57.713,41.592,57.713z M41.592,49.971c-1.617,0-2.934,1.315-2.934,2.935c0,1.618,1.316,2.936,2.934,2.936
				c1.619,0,2.936-1.317,2.936-2.936C44.527,51.286,43.211,49.971,41.592,49.971z"/>
		</g>
	</g>
	<g>
		<g>
			<circle fill="#FFFFFF" cx="24.048" cy="24.049" r="23.112"/>
			<path fill="#040404" d="M24.049,48.097c-6.424,0-12.465-2.501-17.006-7.043C2.5,36.512,0,30.472,0,24.049
				c0-6.424,2.5-12.464,7.043-17.005C11.584,2.501,17.625,0,24.049,0c6.422,0,12.463,2.501,17.004,7.044
				c4.543,4.541,7.043,10.581,7.043,17.005c0,6.423-2.5,12.463-7.043,17.005C36.512,45.596,30.471,48.097,24.049,48.097z
				 M24.049,1.873c-12.229,0-22.178,9.948-22.178,22.176s9.949,22.176,22.178,22.176c12.227,0,22.176-9.948,22.176-22.176
				S36.275,1.873,24.049,1.873z"/>
		</g>
		<g>
			<circle fill="#FFFFFF" cx="24.049" cy="24.049" r="16.748"/>
			<path fill="#040404" d="M24.049,41.733c-4.725,0-9.166-1.84-12.506-5.18c-3.34-3.341-5.18-7.781-5.18-12.505
				s1.84-9.165,5.18-12.505s7.781-5.18,12.506-5.18c4.723,0,9.164,1.84,12.504,5.18s5.18,7.781,5.18,12.505s-1.84,9.164-5.18,12.505
				C33.213,39.894,28.771,41.733,24.049,41.733z M24.049,8.237c-8.719,0-15.813,7.093-15.813,15.812
				c0,8.718,7.094,15.812,15.813,15.812c8.717,0,15.811-7.094,15.811-15.812C39.859,15.33,32.766,8.237,24.049,8.237z"/>
		</g>
		<g>
			<circle fill="#FFFFFF" cx="24.048" cy="24.049" r="10.339"/>
			<path fill="#040404" d="M24.049,35.323c-6.217,0-11.275-5.058-11.275-11.274c0-6.218,5.059-11.274,11.275-11.274
				s11.273,5.057,11.273,11.274C35.322,30.266,30.266,35.323,24.049,35.323z M24.049,14.646c-5.186,0-9.402,4.218-9.402,9.402
				s4.217,9.401,9.402,9.401c5.184,0,9.4-4.217,9.4-9.401S29.232,14.646,24.049,14.646z"/>
		</g>
		<g>
			<circle fill="#FFFFFF" cx="24.048" cy="24.049" r="3.872"/>
			<path fill="#040404" d="M24.049,28.856c-2.652,0-4.809-2.156-4.809-4.808s2.156-4.808,4.809-4.808
				c2.65,0,4.807,2.156,4.807,4.808S26.699,28.856,24.049,28.856z M24.049,21.114c-1.619,0-2.936,1.316-2.936,2.935
				s1.316,2.935,2.936,2.935c1.617,0,2.934-1.316,2.934-2.935S25.666,21.114,24.049,21.114z"/>
		</g>
	</g>
	<g>
		<g>
			<circle fill="#FFFFFF" cx="59.371" cy="24.049" r="23.113"/>
			<path fill="#040404" d="M59.371,48.097c-6.424,0-12.463-2.501-17.006-7.043c-4.541-4.542-7.043-10.582-7.043-17.005
				c0-6.424,2.502-12.464,7.043-17.005C46.908,2.501,52.947,0,59.371,0s12.463,2.501,17.006,7.044
				c4.541,4.541,7.043,10.581,7.043,17.005c0,6.423-2.502,12.463-7.043,17.005C71.834,45.596,65.795,48.097,59.371,48.097z
				 M59.371,1.873c-12.229,0-22.176,9.948-22.176,22.176s9.947,22.176,22.176,22.176s22.176-9.948,22.176-22.176
				S71.6,1.873,59.371,1.873z"/>
		</g>
		<g>
			<circle fill="#FFFFFF" cx="59.371" cy="24.049" r="16.748"/>
			<path fill="#040404" d="M59.371,41.733c-4.723,0-9.164-1.84-12.504-5.18c-3.342-3.341-5.182-7.781-5.182-12.505
				s1.84-9.165,5.182-12.505c3.34-3.34,7.781-5.18,12.504-5.18c4.725,0,9.164,1.84,12.504,5.18c3.342,3.34,5.182,7.781,5.182,12.505
				s-1.84,9.164-5.182,12.505C68.535,39.894,64.096,41.733,59.371,41.733z M59.371,8.237c-8.719,0-15.811,7.093-15.811,15.812
				c0,8.718,7.092,15.812,15.811,15.812s15.811-7.094,15.811-15.812C75.182,15.33,68.09,8.237,59.371,8.237z"/>
		</g>
		<g>
			<circle fill="#FFFFFF" cx="59.371" cy="24.049" r="10.338"/>
			<path fill="#040404" d="M59.371,35.323c-6.217,0-11.275-5.058-11.275-11.274c0-6.218,5.059-11.274,11.275-11.274
				s11.275,5.057,11.275,11.274C70.646,30.266,65.588,35.323,59.371,35.323z M59.371,14.646c-5.184,0-9.402,4.218-9.402,9.402
				s4.219,9.401,9.402,9.401s9.402-4.217,9.402-9.401S64.555,14.646,59.371,14.646z"/>
		</g>
		<g>
			<circle fill="#FFFFFF" cx="59.371" cy="24.049" r="3.871"/>
			<path fill="#040404" d="M59.371,28.856c-2.65,0-4.809-2.156-4.809-4.808s2.158-4.808,4.809-4.808s4.809,2.156,4.809,4.808
				S62.021,28.856,59.371,28.856z M59.371,21.114c-1.619,0-2.934,1.316-2.934,2.935s1.314,2.935,2.934,2.935
				s2.936-1.316,2.936-2.935S60.99,21.114,59.371,21.114z"/>
		</g>
	</g>
	<g>
		<g>
			<circle fill="#FFFFFF" cx="94.694" cy="24.049" r="23.112"/>
			<path fill="#040404" d="M94.695,48.097c-6.424,0-12.465-2.501-17.006-7.043c-4.543-4.542-7.043-10.582-7.043-17.005
				c0-6.424,2.5-12.464,7.043-17.005C82.23,2.501,88.271,0,94.695,0c6.422,0,12.463,2.501,17.004,7.044
				c4.543,4.541,7.043,10.581,7.043,17.005c0,6.423-2.5,12.463-7.043,17.005C107.158,45.596,101.117,48.097,94.695,48.097z
				 M94.695,1.873c-12.229,0-22.178,9.948-22.178,22.176s9.949,22.176,22.178,22.176c12.227,0,22.176-9.948,22.176-22.176
				S106.922,1.873,94.695,1.873z"/>
		</g>
		<g>
			<circle fill="#FFFFFF" cx="94.695" cy="24.049" r="16.748"/>
			<path fill="#040404" d="M94.695,41.733c-4.725,0-9.166-1.84-12.506-5.18c-3.34-3.341-5.18-7.781-5.18-12.505
				s1.84-9.165,5.18-12.505s7.781-5.18,12.506-5.18c4.723,0,9.164,1.84,12.504,5.18s5.18,7.781,5.18,12.505s-1.84,9.164-5.18,12.505
				C103.859,39.894,99.418,41.733,94.695,41.733z M94.695,8.237c-8.719,0-15.813,7.093-15.813,15.812
				c0,8.718,7.094,15.812,15.813,15.812c8.717,0,15.811-7.094,15.811-15.812C110.506,15.33,103.412,8.237,94.695,8.237z"/>
		</g>
		<g>
			<circle fill="#FFFFFF" cx="94.694" cy="24.049" r="10.339"/>
			<path fill="#040404" d="M94.695,35.323c-6.217,0-11.275-5.058-11.275-11.274c0-6.218,5.059-11.274,11.275-11.274
				s11.273,5.057,11.273,11.274C105.969,30.266,100.912,35.323,94.695,35.323z M94.695,14.646c-5.186,0-9.402,4.218-9.402,9.402
				s4.217,9.401,9.402,9.401c5.184,0,9.4-4.217,9.4-9.401S99.879,14.646,94.695,14.646z"/>
		</g>
		<g>
			<circle fill="#FFFFFF" cx="94.694" cy="24.049" r="3.872"/>
			<path fill="#040404" d="M94.695,28.856c-2.652,0-4.809-2.156-4.809-4.808s2.156-4.808,4.809-4.808
				c2.65,0,4.807,2.156,4.807,4.808S97.346,28.856,94.695,28.856z M94.695,21.114c-1.619,0-2.936,1.316-2.936,2.935
				s1.316,2.935,2.936,2.935c1.617,0,2.934-1.316,2.934-2.935S96.313,21.114,94.695,21.114z"/>
		</g>
	</g>
	<g>
		<g>
			<circle fill="#FFFFFF" cx="130.018" cy="24.049" r="23.113"/>
			<path fill="#040404" d="M130.018,48.097c-6.424,0-12.463-2.501-17.006-7.043c-4.541-4.542-7.043-10.582-7.043-17.005
				c0-6.424,2.502-12.464,7.043-17.005C117.555,2.501,123.594,0,130.018,0s12.463,2.501,17.006,7.044
				c4.541,4.541,7.043,10.581,7.043,17.005c0,6.423-2.502,12.463-7.043,17.005C142.48,45.596,136.441,48.097,130.018,48.097z
				 M130.018,1.873c-12.229,0-22.176,9.948-22.176,22.176s9.947,22.176,22.176,22.176s22.176-9.948,22.176-22.176
				S142.246,1.873,130.018,1.873z"/>
		</g>
		<g>
			<circle fill="#FFFFFF" cx="130.018" cy="24.049" r="16.748"/>
			<path fill="#040404" d="M130.018,41.733c-4.723,0-9.164-1.84-12.504-5.18c-3.342-3.341-5.182-7.781-5.182-12.505
				s1.84-9.165,5.182-12.505c3.34-3.34,7.781-5.18,12.504-5.18c4.725,0,9.164,1.84,12.504,5.18c3.342,3.34,5.182,7.781,5.182,12.505
				s-1.84,9.164-5.182,12.505C139.182,39.894,134.742,41.733,130.018,41.733z M130.018,8.237c-8.719,0-15.811,7.093-15.811,15.812
				c0,8.718,7.092,15.812,15.811,15.812s15.811-7.094,15.811-15.812C145.828,15.33,138.736,8.237,130.018,8.237z"/>
		</g>
		<g>
			<circle fill="#FFFFFF" cx="130.018" cy="24.049" r="10.338"/>
			<path fill="#040404" d="M130.018,35.323c-6.217,0-11.275-5.058-11.275-11.274c0-6.218,5.059-11.274,11.275-11.274
				s11.275,5.057,11.275,11.274C141.293,30.266,136.234,35.323,130.018,35.323z M130.018,14.646c-5.184,0-9.402,4.218-9.402,9.402
				s4.219,9.401,9.402,9.401s9.402-4.217,9.402-9.401S135.201,14.646,130.018,14.646z"/>
		</g>
		<g>
			<circle fill="#FFFFFF" cx="130.018" cy="24.049" r="3.871"/>
			<path fill="#040404" d="M130.018,28.856c-2.65,0-4.809-2.156-4.809-4.808s2.158-4.808,4.809-4.808s4.809,2.156,4.809,4.808
				S132.668,28.856,130.018,28.856z M130.018,21.114c-1.619,0-2.934,1.316-2.934,2.935s1.314,2.935,2.934,2.935
				s2.936-1.316,2.936-2.935S131.637,21.114,130.018,21.114z"/>
		</g>
	</g>
	<g>
		<g>
			<circle fill="#FFFFFF" cx="165.341" cy="24.049" r="23.112"/>
			<path fill="#040404" d="M165.342,48.097c-6.424,0-12.465-2.501-17.006-7.043c-4.543-4.542-7.043-10.582-7.043-17.005
				c0-6.424,2.5-12.464,7.043-17.005C152.877,2.501,158.918,0,165.342,0c6.422,0,12.463,2.501,17.004,7.044
				c4.543,4.541,7.043,10.581,7.043,17.005c0,6.423-2.5,12.463-7.043,17.005C177.805,45.596,171.764,48.097,165.342,48.097z
				 M165.342,1.873c-12.229,0-22.178,9.948-22.178,22.176s9.949,22.176,22.178,22.176c12.227,0,22.176-9.948,22.176-22.176
				S177.568,1.873,165.342,1.873z"/>
		</g>
		<g>
			<circle fill="#FFFFFF" cx="165.342" cy="24.049" r="16.748"/>
			<path fill="#040404" d="M165.342,41.733c-4.725,0-9.166-1.84-12.506-5.18c-3.34-3.341-5.18-7.781-5.18-12.505
				s1.84-9.165,5.18-12.505s7.781-5.18,12.506-5.18c4.723,0,9.164,1.84,12.504,5.18s5.18,7.781,5.18,12.505s-1.84,9.164-5.18,12.505
				C174.506,39.894,170.064,41.733,165.342,41.733z M165.342,8.237c-8.719,0-15.813,7.093-15.813,15.812
				c0,8.718,7.094,15.812,15.813,15.812c8.717,0,15.811-7.094,15.811-15.812C181.152,15.33,174.059,8.237,165.342,8.237z"/>
		</g>
		<g>
			<circle fill="#FFFFFF" cx="165.341" cy="24.049" r="10.339"/>
			<path fill="#040404" d="M165.342,35.323c-6.217,0-11.275-5.058-11.275-11.274c0-6.218,5.059-11.274,11.275-11.274
				s11.273,5.057,11.273,11.274C176.615,30.266,171.559,35.323,165.342,35.323z M165.342,14.646c-5.186,0-9.402,4.218-9.402,9.402
				s4.217,9.401,9.402,9.401c5.184,0,9.4-4.217,9.4-9.401S170.525,14.646,165.342,14.646z"/>
		</g>
		<g>
			<circle fill="#FFFFFF" cx="165.341" cy="24.049" r="3.872"/>
			<path fill="#040404" d="M165.342,28.856c-2.652,0-4.809-2.156-4.809-4.808s2.156-4.808,4.809-4.808
				c2.65,0,4.807,2.156,4.807,4.808S167.992,28.856,165.342,28.856z M165.342,21.114c-1.619,0-2.936,1.316-2.936,2.935
				s1.316,2.935,2.936,2.935c1.617,0,2.934-1.316,2.934-2.935S166.959,21.114,165.342,21.114z"/>
		</g>
	</g>
</g>
</svg>
